<svg width="327" height="112" viewBox="0 0 327 112" fill="none" xmlns="http://www.w3.org/2000/svg">
<g clip-path="url(#clip0_8157_130999)">
<path d="M0 9.76682C0 4.63622 4.15917 0.477051 9.28977 0.477051H317.71C322.841 0.477051 327 4.63622 327 9.76682V111.954H0V9.76682Z" fill="#181818"/>
<path d="M341.341 111.955L162.674 46.1381L180.607 91.5728L0 29.2114L102.726 111.955H341.341Z" fill="#141414"/>
<path d="M341.341 0.477127L162.674 66.2935L180.607 20.8588L0 83.2202L102.726 0.477127H341.341Z" fill="#2C2C2C"/>
</g>
<defs>
<clipPath id="clip0_8157_130999">
<path d="M0 9.76682C0 4.63622 4.15917 0.477051 9.28977 0.477051H317.71C322.841 0.477051 327 4.63622 327 9.76682V111.954H0V9.76682Z" fill="white"/>
</clipPath>
</defs>
</svg>
