<svg width="327" height="112" viewBox="0 0 327 112" fill="none" xmlns="http://www.w3.org/2000/svg">
<g clip-path="url(#clip0_8157_130720)">
<path d="M0 9.28977C0 4.15917 4.15917 0 9.28977 0H317.71C322.841 0 327 4.15917 327 9.28977V111.477H0V9.28977Z" fill="#181818"/>
<path d="M298.319 0.0668061C298.319 0.0668061 267.776 23.546 267.776 71.0174L304.579 44.326L295.49 32.6278L312.472 38.5371L329.834 24.4816V39.6691C329.834 39.6691 305.331 56.4407 305.331 87.7545L329.834 69.1883V0.0078125L298.319 0.0668061Z" fill="#141414"/>
<path d="M249.988 0.0078125C251.48 2.76228 252.05 5.27987 249.899 6.12243C247.082 7.22591 244.854 3.70602 243.351 0.0078125H229.625C224.216 3.67993 217.654 8.54105 211.655 14.0877C211.655 14.0877 225.849 22.367 224.058 24.5341C222.128 26.8699 210.152 15.3719 210.152 15.3719C210.152 15.3719 201.82 21.0761 200.659 44.4653C200.659 44.4653 227.876 39.5833 242.105 32.9555C242.105 32.9555 239.468 23.5407 241.853 22.9966C244.237 22.4523 246.161 31.3567 246.161 31.3567C246.161 31.3567 270.757 18.96 276.663 0.0078125L249.988 0.0078125Z" fill="#141414"/>
<path d="M321.426 0.788503C321.334 1.15361 321.256 1.46547 321.192 1.71876C321.063 2.22444 320.986 2.48912 320.986 2.48912C320.986 2.48912 320.904 2.21044 320.774 1.68218C320.708 1.41818 320.631 1.09158 320.545 0.705588C320.498 0.492072 320.45 0.259458 320.401 0.0113058L320.995 0.0098033L321.613 0.00830078C321.547 0.290616 321.484 0.552252 321.426 0.788503Z" fill="#444444"/>
<path d="M316.171 3.95275C316.081 4.53209 315.992 5.06062 315.907 5.53451C315.738 6.48331 315.584 7.21555 315.473 7.71237C315.369 8.21433 315.303 8.47751 315.303 8.47751C315.303 8.47751 315.211 8.20516 315.059 7.68766C314.904 7.16751 314.705 6.41546 314.476 5.43855C314.158 4.05706 313.782 2.22134 313.487 0.028653L315.093 0.02462L316.727 0.0205078C316.638 0.74484 316.546 1.42971 316.452 2.06812C316.352 2.73872 316.258 3.36855 316.171 3.95275Z" fill="#444444"/>
<path d="M310.7 8.31896C310.631 8.98097 310.565 9.60266 310.504 10.1798C310.441 10.7532 310.376 11.2761 310.314 11.7459C310.189 12.685 310.071 13.4113 309.984 13.9033C309.893 14.3934 309.845 14.6572 309.845 14.6572C309.845 14.6572 309.82 14.5909 309.771 14.4609C309.725 14.3318 309.653 14.1376 309.57 13.8873C309.401 13.3853 309.166 12.6456 308.898 11.6901C308.63 10.7346 308.331 9.56375 308.037 8.19848C307.964 7.85745 307.891 7.50384 307.818 7.13881C307.75 6.77678 307.683 6.4025 307.617 6.01718C307.486 5.2469 307.361 4.43048 307.248 3.5712C307.135 2.712 307.033 1.80997 306.948 0.867695C306.925 0.59657 306.904 0.322123 306.885 0.045581L309.049 0.0400849L311.211 0.034668C311.176 1.35609 311.119 2.60382 311.045 3.76566C310.952 5.45907 310.836 6.98808 310.7 8.31896Z" fill="#444444"/>
<path d="M305.298 11.4932C305.288 11.8879 305.279 12.2745 305.27 12.652C305.248 13.4016 305.217 14.1063 305.181 14.764C305.102 16.0742 305.032 17.2171 304.951 18.1448C304.79 19.9996 304.614 21.0196 304.614 21.0196C304.614 21.0196 304.166 19.9938 303.55 18.128C303.243 17.1951 302.895 16.0503 302.544 14.715C302.363 14.0444 302.201 13.3392 302.035 12.5823C301.871 11.8272 301.711 11.0271 301.56 10.1842C301.41 9.34203 301.267 8.45558 301.142 7.53217C301.025 6.61468 300.923 5.65766 300.84 4.66331C300.757 3.66939 300.694 2.63851 300.654 1.57326C300.64 1.07605 300.633 0.571046 300.631 0.0605062L302.845 0.0548915L305.038 0.0493164C305.041 0.0817787 305.044 0.114953 305.046 0.147771C305.084 0.692157 305.117 1.22804 305.145 1.75515C305.203 2.80968 305.242 3.82842 305.267 4.80921C305.332 6.78376 305.349 8.61675 305.318 10.2747C305.311 10.689 305.305 11.0955 305.298 11.4932Z" fill="#444444"/>
<path d="M300.615 25.2899C300.567 27.1478 300.451 28.1714 300.451 28.1714C300.451 28.1714 299.933 27.1483 299.193 25.2884C298.823 24.3575 298.398 23.2161 297.957 21.8848C297.525 20.5619 297.084 19.0554 296.667 17.3757C296.46 16.5382 296.253 15.6508 296.071 14.7361C295.891 13.8217 295.722 12.8681 295.571 11.8777C295.42 10.8868 295.285 9.85793 295.174 8.79621C295.075 7.74251 294.998 6.65528 294.948 5.53582C294.865 3.77831 294.867 1.95374 294.966 0.0754352L296.658 0.0711648L298.32 0.0668945C298.347 0.201133 298.373 0.336043 298.4 0.469846C298.517 1.07232 298.627 1.66779 298.731 2.25559C298.939 3.43036 299.122 4.57453 299.282 5.68599C299.361 6.24023 299.439 6.79078 299.517 7.33647C299.592 7.88011 299.662 8.41516 299.727 8.94068C299.856 9.9928 299.966 11.0095 300.058 11.988C300.104 12.477 300.15 12.9598 300.195 13.4363C300.238 13.9106 300.278 14.3753 300.313 14.8301C300.383 15.7392 300.439 16.6082 300.48 17.4351C300.518 18.258 300.562 19.0569 300.588 19.8038C300.614 20.5527 300.63 21.256 300.637 21.9131C300.645 22.57 300.641 23.1765 300.637 23.7406C300.636 24.3079 300.627 24.8251 300.615 25.2899Z" fill="#444444"/>
<path d="M295.412 29.2241C295.461 30.5387 295.49 31.6918 295.49 32.6273C295.493 34.4998 295.405 35.5359 295.405 35.5359C295.405 35.5359 294.857 34.5231 294.063 32.6774C293.665 31.754 293.207 30.6212 292.726 29.2988C292.247 27.9776 291.762 26.484 291.289 24.8119C291.054 23.977 290.824 23.0992 290.603 22.182C290.391 21.2721 290.189 20.3223 290.002 19.3353C289.816 18.3478 289.645 17.3235 289.495 16.264C289.35 15.2098 289.235 14.1285 289.142 13.0106C289.096 12.4518 289.056 11.8857 289.024 11.3117C288.993 10.7386 288.962 10.1525 288.954 9.5715C288.932 8.40436 288.942 7.20804 288.989 5.98578C289.012 5.37596 289.04 4.75506 289.088 4.13626C289.137 3.51861 289.197 2.89507 289.266 2.26559C289.335 1.63683 289.415 1.00213 289.506 0.362573C289.519 0.271473 289.532 0.179542 289.546 0.0884028L289.94 0.0873747L290.33 0.0864258C290.36 0.183734 290.39 0.281397 290.42 0.378033C290.615 1.02234 290.801 1.66146 290.98 2.29335C291.337 3.55886 291.662 4.79931 291.958 6.01295C292.105 6.61799 292.25 7.22149 292.395 7.82237C292.535 8.41963 292.668 9.01023 292.795 9.59317C293.048 10.7593 293.276 11.8957 293.478 12.9996C293.902 15.2222 294.241 17.3251 294.497 19.2752C294.771 21.2433 294.972 23.0691 295.111 24.7255C295.258 26.391 295.36 27.9055 295.412 29.2241Z" fill="#3C3C3C"/>
<path d="M259.452 41.2776C258.954 41.4924 258.464 41.7139 257.974 41.9409C256.996 42.3945 256.032 42.871 255.084 43.3651C254.133 43.8582 253.211 44.3733 252.306 44.9001C251.4 45.4266 250.513 45.966 249.648 46.5127C247.925 47.6075 246.297 48.7349 244.769 49.8492C243.253 50.9651 241.842 52.0692 240.556 53.1211C239.278 54.1739 238.124 55.1738 237.11 56.081C236.098 56.9885 235.237 57.8021 234.53 58.485C233.823 59.1674 233.276 59.7184 232.906 60.0981C232.537 60.4776 232.344 60.6864 232.344 60.6864C232.344 60.6864 233.19 60.3457 234.698 59.5989C236.206 58.8533 238.359 57.7034 240.991 56.0959C242.304 55.2917 243.732 54.3725 245.261 53.3353C246.024 52.8165 246.809 52.2678 247.614 51.6878C248.42 51.1076 249.252 50.4995 250.097 49.8588C252.803 47.8042 255.704 45.4324 258.705 42.7313C259.106 42.1908 259.503 41.6473 259.89 41.0972C259.744 41.1568 259.597 41.2158 259.452 41.2776Z" fill="#444444"/>
<path d="M266.962 29.7556L266.638 30.2836C264.244 30.3999 261.926 30.6308 259.711 30.9558C257.332 31.3113 255.064 31.7692 252.922 32.2945C250.794 32.8236 248.798 33.4197 246.943 34.0438C245.092 34.6693 243.404 35.3254 241.866 35.9711C240.326 36.6173 238.967 37.2552 237.779 37.8473C236.592 38.4395 235.578 38.9859 234.759 39.4508C233.13 40.3794 232.259 40.9807 232.259 40.9807C232.259 40.9807 233.388 40.9051 235.34 40.6338C235.828 40.5667 236.368 40.4866 236.954 40.3933C237.543 40.2995 238.178 40.1921 238.855 40.069C240.21 39.8232 241.732 39.5162 243.382 39.1347C249.791 37.6575 258.146 35.0622 266.383 30.6965L265.795 31.6532C264.912 33.0757 264.137 34.3719 263.453 35.5155C263.227 35.8941 263.011 36.2551 262.805 36.5976C260.758 36.9171 258.791 37.3415 256.895 37.8332C255.856 38.1033 254.835 38.3933 253.848 38.7031C252.862 39.0136 251.901 39.3399 250.967 39.6788C250.033 40.0178 249.126 40.3692 248.248 40.7277C247.374 41.0877 246.532 41.4558 245.719 41.8268C244.096 42.5686 242.589 43.3229 241.243 44.0562C239.892 44.7893 238.68 45.4995 237.622 46.1518C236.571 46.8037 235.675 47.3981 234.946 47.9002C234.217 48.4025 233.656 48.8123 233.278 49.0971C232.898 49.3817 232.705 49.54 232.705 49.54C232.705 49.54 232.947 49.5011 233.401 49.4122C233.855 49.3228 234.521 49.1828 235.366 48.9811C236.212 48.7793 237.237 48.516 238.409 48.1795C238.995 48.0117 239.618 47.8252 240.274 47.6197C240.933 47.4136 241.625 47.1887 242.347 46.943C247.882 45.0561 255.148 41.9357 262.499 37.1081L262.21 37.5918L261.908 38.1079C263.86 35.1067 265.679 32.0122 267.496 28.9106L266.962 29.7556Z" fill="#444444"/>
<path d="M269.919 14.4803C267.359 14.7962 264.899 15.2341 262.572 15.7575C260.264 16.2882 258.079 16.8996 256.05 17.5521C254.038 18.2101 252.175 18.9058 250.482 19.5977C247.13 20.9881 244.452 22.3583 242.656 23.3788C240.848 24.3988 239.873 25.0627 239.873 25.0627C239.873 25.0627 241.087 24.9805 243.193 24.6895C244.246 24.5445 245.521 24.348 246.977 24.086C248.433 23.8245 250.09 23.5016 251.877 23.1001C252.771 22.899 253.701 22.6789 254.66 22.4383C255.624 22.1987 256.624 21.9401 257.646 21.6583C258.668 21.3771 259.716 21.0735 260.783 20.7457C261.848 20.417 262.953 20.0733 264.062 19.6994C265.174 19.3266 266.3 18.9282 267.436 18.5027C268.584 18.0833 269.741 17.637 270.904 17.1614C271.485 16.9235 272.067 16.6787 272.65 16.4259C273.234 16.1744 273.829 15.9209 274.418 15.6564C275.156 15.3266 275.894 14.9818 276.631 14.6275C276.791 14.4143 276.96 14.2058 277.123 13.9941C274.65 14.0385 272.241 14.206 269.919 14.4803Z" fill="#444444"/>
<path d="M264.85 22.6322C262.432 22.9607 260.12 23.3988 257.934 23.9094C255.76 24.4251 253.72 25.0153 251.819 25.6372C249.925 26.2607 248.195 26.9213 246.616 27.5732C245.034 28.2245 243.643 28.8732 242.419 29.4747C241.2 30.0772 240.151 30.6344 239.313 31.1086C237.636 32.0583 236.736 32.6753 236.736 32.6753C236.736 32.6753 237.883 32.6 239.868 32.3279C241.845 32.0566 244.693 31.5923 248.054 30.8305C254.485 29.381 262.854 26.8604 271.212 22.6745C271.336 22.4735 271.463 22.2743 271.587 22.0737C269.268 22.1564 267.015 22.3475 264.85 22.6322Z" fill="#444444"/>
<path d="M283.275 5.95195C283.642 5.53841 283.987 5.11695 284.273 4.66113C283.94 5.09156 283.604 5.5203 283.275 5.95195Z" fill="#3C3C3C"/>
<path d="M275.549 6.29071C272.929 6.51245 270.42 6.87329 268.029 7.32159C265.662 7.78176 263.423 8.33413 261.332 8.93225C259.263 9.53876 257.346 10.1921 255.601 10.8473C253.866 11.5057 252.321 12.1707 250.961 12.7909C249.597 13.4111 248.454 13.994 247.519 14.4913C245.65 15.4869 244.639 16.1417 244.639 16.1417C244.639 16.1417 245.881 16.0855 248.037 15.841C249.114 15.7183 250.419 15.5497 251.91 15.3209C253.404 15.0925 255.101 14.809 256.932 14.4502C257.849 14.2713 258.802 14.074 259.785 13.8564C260.778 13.6425 261.801 13.4094 262.85 13.1552C263.899 12.9006 264.973 12.6245 266.067 12.3255C267.165 12.0283 268.297 11.7149 269.437 11.3733C270.58 11.0332 271.731 10.6652 272.905 10.2775C274.085 9.893 275.275 9.48273 276.47 9.0436C277.068 8.82486 277.666 8.59763 278.267 8.36438C278.874 8.13533 279.481 7.89907 280.089 7.65523C280.975 7.30095 281.857 6.92738 282.741 6.54029C282.88 6.38825 283.019 6.23658 283.156 6.08467C280.545 6.01409 278.007 6.09534 275.549 6.29071Z" fill="#444444"/>
<path d="M290.748 39.8828C290.719 38.9499 290.657 37.8044 290.563 36.4954C290.467 35.1828 290.316 33.6785 290.112 32.0255C289.913 30.3805 289.648 28.5717 289.3 26.6226C288.968 24.6904 288.551 22.6147 288.035 20.4191C287.537 18.2418 286.933 15.9366 286.217 13.5384C285.567 11.3187 284.804 9.00361 283.93 6.62678C285.606 4.4269 287.32 2.24378 289.073 0.0898438L287.874 0.0929279C286.653 1.60165 285.457 3.12714 284.274 4.65884C283.988 5.11466 283.643 5.53615 283.276 5.94966C283.242 5.99466 283.206 6.03926 283.172 6.08422C283.167 6.08402 283.162 6.08422 283.157 6.08402C283.02 6.23597 282.881 6.38761 282.741 6.53964C282.782 6.52157 282.824 6.50441 282.865 6.48626C282.054 7.55479 281.249 8.6262 280.46 9.70283C280.055 10.2548 279.649 10.817 279.243 11.3802C278.624 12.239 278.004 13.1057 277.383 13.9861C277.296 13.9874 277.21 13.9917 277.123 13.9933C276.96 14.205 276.792 14.4134 276.631 14.6266C276.783 14.5536 276.935 14.4833 277.086 14.4092C275.352 16.8808 273.615 19.4357 271.887 22.0592C271.787 22.0624 271.689 22.0688 271.589 22.0723C271.464 22.2729 271.337 22.4721 271.214 22.6731C271.347 22.6063 271.48 22.5429 271.614 22.4752C271.005 23.4009 270.398 24.3327 269.793 25.275L267.497 28.9103C265.68 32.0119 263.86 35.1064 261.909 38.1076L260.245 40.9515C260.127 40.9999 260.009 41.0488 259.891 41.097C259.504 41.6472 259.106 42.1906 258.705 42.7311C259.205 42.2815 259.706 41.8253 260.211 41.3573C260.217 41.3743 260.225 41.3916 260.234 41.4083C260.208 41.4363 260.183 41.4641 260.155 41.4948C259.833 41.8478 259.375 42.3773 258.803 43.0668C258.234 43.7572 257.551 44.6082 256.798 45.6139C256.05 46.6227 255.227 47.784 254.363 49.0865C250.916 54.2999 246.927 61.8383 244.535 70.8722C250.585 63.5805 254.54 56.1037 257.072 50.4573C257.707 49.0474 258.245 47.7475 258.696 46.5906C259.151 45.4371 259.524 44.4282 259.812 43.5935C260.102 42.759 260.308 42.0983 260.448 41.6498C260.453 41.6342 260.457 41.6209 260.462 41.6061C260.55 41.6424 260.644 41.651 260.734 41.635C259.697 46.252 259.129 50.5172 258.867 54.3391C258.796 55.3615 258.741 56.3485 258.71 57.305C258.679 58.2624 258.664 59.1847 258.664 60.0711C258.66 61.8407 258.72 63.474 258.812 64.9482C258.992 67.8923 259.313 70.2225 259.58 71.8062C259.847 73.3895 260.069 74.2418 260.069 74.2418C260.069 74.2418 260.128 73.9728 260.224 73.4694C260.321 72.9678 260.456 72.2348 260.608 71.3018C260.76 70.37 260.926 69.2356 261.092 67.9452C261.258 66.6555 261.421 65.2013 261.558 63.6169C262.096 57.4721 262.311 49.4379 261.075 41.3866L263.032 38.0413L263.326 37.5499C262.741 46.0858 264.175 53.5134 265.734 58.8551C265.937 59.5492 266.141 60.2079 266.344 60.8292C266.549 61.4528 266.753 62.0393 266.95 62.5856C267.346 63.6787 267.719 64.6139 268.042 65.3749C268.364 66.1358 268.634 66.7231 268.824 67.1204C269.014 67.5179 269.125 67.7264 269.125 67.7264C269.125 67.7264 269.141 67.4881 269.159 67.0457C269.176 66.6023 269.192 65.9511 269.188 65.119C269.185 64.2875 269.161 63.2742 269.1 62.1076C269.043 60.9465 268.948 59.6319 268.798 58.1888C268.215 52.5503 266.825 45.0137 263.626 37.049C263.831 36.7076 264.046 36.3469 264.273 35.9683C264.955 34.8278 265.728 33.5351 266.609 32.1174L267.193 31.1734C267.166 40.2136 269.471 48.2137 271.763 53.9821C272.359 55.4772 272.954 56.8222 273.51 57.9993C273.788 58.5878 274.056 59.1343 274.31 59.6363C274.566 60.1403 274.807 60.6013 275.03 61.0141C275.921 62.6675 276.507 63.5735 276.507 63.5735C276.507 63.5735 276.506 62.5992 276.348 60.8618C276.271 59.9973 276.158 58.9455 275.986 57.7267C275.816 56.5079 275.585 55.1205 275.291 53.6076C274.996 52.0926 274.618 50.4284 274.162 48.6599C273.707 46.8937 273.159 45.0075 272.503 43.0282C271.857 41.0578 271.102 38.9902 270.218 36.8495C269.408 34.8732 268.494 32.8367 267.453 30.7537L268.484 29.0898L270.598 25.7504C271.202 24.8109 271.808 23.8815 272.414 22.9573C272.381 23.8457 272.368 24.7234 272.374 25.5887C272.379 26.1708 272.389 26.7445 272.414 27.3173C272.44 27.8908 272.474 28.4588 272.515 29.0205C272.598 30.1448 272.71 31.2445 272.847 32.3172C272.985 33.3915 273.16 34.4483 273.349 35.47C273.538 36.4935 273.748 37.4879 273.973 38.4505C274.2 39.4157 274.45 40.3547 274.705 41.2571C274.962 42.1594 275.229 43.0285 275.501 43.8616C275.638 44.2781 275.775 44.685 275.914 45.0838C276.055 45.4841 276.196 45.8751 276.337 46.2566C277.471 49.3092 278.609 51.7374 279.477 53.4287C280.342 55.1137 280.917 56.0368 280.917 56.0368C280.917 56.0368 280.934 55.0515 280.81 53.2904C280.747 52.4085 280.658 51.3464 280.512 50.1079C280.367 48.8725 280.162 47.4591 279.905 45.9226C278.863 39.8503 276.792 31.6164 272.685 22.5458C274.408 19.9292 276.141 17.3803 277.872 14.9143C277.793 15.8733 277.738 16.8203 277.704 17.7541C277.683 18.3735 277.666 18.9826 277.668 19.5935C277.671 20.2039 277.682 20.8086 277.701 21.4072C277.74 22.6038 277.811 23.7742 277.91 24.9152C278.02 26.0641 278.157 27.1851 278.317 28.2741C278.479 29.3651 278.653 30.4164 278.864 31.4484C279.072 32.4786 279.297 33.4755 279.535 34.4355C279.774 35.3959 280.022 36.3174 280.282 37.2048C280.546 38.0953 280.817 38.9475 281.09 39.7576C281.637 41.3805 282.187 42.8303 282.718 44.1112C283.25 45.3925 283.75 46.4895 284.181 47.3836C285.041 49.1707 285.62 50.149 285.62 50.149C285.62 50.149 285.664 49.1114 285.582 47.2518C285.494 45.3825 285.307 42.7284 284.838 39.4402C284.614 37.8085 284.322 36.0196 283.941 34.0953C283.573 32.1836 283.123 30.1411 282.564 27.9823C282.019 25.8371 281.376 23.5822 280.604 21.2333C279.904 19.0619 279.097 16.8097 278.165 14.4976C279.189 13.044 280.212 11.6169 281.232 10.2273C282.017 9.15695 282.816 8.09217 283.622 7.02993C283.512 8.00001 283.431 8.96186 283.369 9.90789C283.328 10.5319 283.298 11.1505 283.277 11.763C283.262 12.3802 283.259 12.9925 283.263 13.5979C283.271 14.8081 283.313 15.993 283.386 17.1486C283.463 18.3081 283.581 19.4485 283.717 20.5514C283.856 21.657 284.013 22.7254 284.2 23.7692C284.39 24.8156 284.599 25.8277 284.822 26.8029C285.044 27.7776 285.281 28.715 285.526 29.6138C285.778 30.5195 286.038 31.385 286.302 32.2092C286.831 33.859 287.366 35.3347 287.886 36.636C288.407 37.9401 288.9 39.057 289.325 39.9674C290.175 41.7876 290.751 42.7855 290.751 42.7855C290.751 42.7855 290.809 41.7492 290.748 39.8828Z" fill="#3C3C3C"/>
<path d="M282.374 1.19724C281.153 1.6083 279.937 1.99175 278.733 2.34892C278.13 2.52744 277.536 2.70347 276.951 2.8765C276.362 3.04767 275.777 3.21223 275.195 3.37126C274.034 3.6892 272.882 3.98053 271.762 4.25565C270.649 4.53441 269.557 4.79059 268.491 5.02648C267.425 5.2619 266.384 5.47704 265.376 5.67399C264.377 5.87529 263.411 6.05745 262.481 6.22209C260.624 6.55213 258.901 6.80926 257.39 7.01704C255.881 7.22494 254.56 7.37618 253.47 7.48365C251.289 7.69986 250.035 7.73955 250.035 7.73955C250.035 7.73955 251.081 7.08695 253.004 6.10225C253.966 5.61029 255.139 5.03411 256.54 4.42737C257.937 3.82028 259.519 3.17155 261.295 2.53622C263.083 1.90457 265.04 1.27909 267.151 0.709355C267.9 0.512367 268.669 0.322259 269.453 0.140256L280.344 0.112737L285.519 0.0996094C285.083 0.256702 284.647 0.411659 284.212 0.561396C283.593 0.776573 282.985 0.992421 282.374 1.19724Z" fill="#444444"/>
<path d="M317.38 80.7056C319.704 84.2422 322.512 87.5923 324.156 91.3902C321.1 91.1452 318.185 90.7619 315.485 89.8048C314.283 98.0305 314.345 107.198 316.846 116.781C316.846 116.781 325.507 112.278 329.835 108.115V53.9707C329.835 53.9707 321.715 64.6577 317.38 80.7056Z" fill="#3C3C3C"/>
<path d="M307.781 18.5469C306.731 24.8257 306.608 31.2095 307.954 37.3591C304.805 34.8976 301.407 32.6758 298.324 30.1853C285.791 47.2305 273.978 70.7978 273.978 99.079C273.978 99.079 286.628 85.9593 303.097 72.2153C301.884 66.8928 300.603 61.6356 299.137 56.5571C303.471 59.3369 307.802 62.1197 311.917 65.11C317.007 61.1628 322.291 57.3443 327.553 53.9618V0C327.553 0 318.468 6.59253 307.781 18.5469Z" fill="#3C3C3C"/>
<path d="M307.781 18.5469C306.731 24.8257 306.608 31.2095 307.954 37.3591C304.805 34.8976 301.407 32.6758 298.324 30.1853C285.791 47.2305 273.978 70.7978 273.978 99.079C273.978 99.079 279.198 75.0747 297.011 54.6715C310.316 39.4308 327.553 27.6345 327.553 27.6345V0C327.553 0 318.468 6.59253 307.781 18.5469Z" fill="#444444"/>
<path d="M124.313 85.7459C123.712 84.1829 122.072 83.2853 120.367 83.6528C119.634 83.8109 119.393 84.7802 119.925 85.2662C119.933 85.2742 119.943 85.2813 119.952 85.2893C120.032 85.4227 120.154 85.5437 120.335 85.6361C120.371 85.6544 120.407 85.6715 120.443 85.6897C121.069 86.153 121.775 86.4971 122.542 86.6983C122.642 86.7436 122.74 86.7913 122.839 86.8361C123.548 87.154 124.646 86.6124 124.313 85.7459Z" fill="#2B2B2B"/>
<path d="M116.542 90.7212C115.945 89.4354 114.065 88.0447 112.525 88.6126C111.473 89.0005 111.566 90.2008 112.326 90.8099C113.072 91.4077 113.944 91.8242 114.857 92.1299C115.078 92.204 115.275 92.2018 115.444 92.1491C116.335 92.4413 116.853 91.392 116.542 90.7212Z" fill="#2B2B2B"/>
<path d="M152.455 93.5965C152.103 92.0138 149.823 90.2215 148.071 90.6613C147.061 90.9151 146.568 91.9234 146.87 92.8543C147.063 93.4489 147.517 93.9109 148.053 94.2616C148.784 94.8536 149.653 95.2877 150.603 95.4395C151.848 95.6386 152.725 94.8151 152.455 93.5965Z" fill="#2B2B2B"/>
<path d="M34.6972 25.3959C34.6458 25.2453 34.5853 25.0991 34.5168 24.9576C34.789 23.6625 32.9176 22.6835 31.8571 22.2594C31.1677 21.9837 30.3729 21.8054 29.7474 22.3262C29.1056 22.8607 29.229 23.7077 29.6765 24.3066C30.5495 25.4748 32.034 26.2546 33.463 26.5833C34.1706 26.7461 34.9455 26.1235 34.6972 25.3959Z" fill="#2B2B2B"/>
<path d="M9.90675 5.11382C9.30995 4.48758 8.53435 4.04342 7.68503 3.81599C6.73049 3.56047 5.98207 4.75608 6.70889 5.42938C6.86736 5.57621 7.0318 5.71714 7.19952 5.85448C7.2708 5.93861 7.35284 6.01656 7.4482 6.08244C7.52455 6.13524 7.60552 6.18184 7.6858 6.22938C7.96296 6.43118 8.24856 6.62224 8.54408 6.79742C9.00543 7.07092 9.64778 6.89352 9.91673 6.45109C9.92144 6.44332 9.92358 6.43495 9.92799 6.42711C10.2402 6.07979 10.301 5.52748 9.90675 5.11382Z" fill="#2B2B2B"/>
<path d="M18.2866 -1.22634C17.8642 -2.08844 16.8538 -2.64566 15.8712 -2.60102C15.0253 -2.56255 14.519 -1.56148 15.1617 -0.953089C15.193 -0.923575 15.2272 -0.899467 15.2591 -0.871135C15.3361 -0.76302 15.4352 -0.670881 15.563 -0.612552C15.5799 -0.604781 15.5969 -0.597061 15.6138 -0.589339C15.7315 -0.506491 15.8525 -0.429145 15.9781 -0.359088C16.3259 -0.101495 16.7307 0.0873427 17.1535 0.191669C17.5475 0.288875 17.9603 0.154264 18.2081 -0.154297C18.4687 -0.478761 18.4634 -0.865534 18.2866 -1.22634Z" fill="#141414"/>
<path d="M45.5414 24.5612C44.8895 22.9049 43.1507 20.8579 41.0878 20.99C39.9422 21.0633 39.2671 22.0957 39.5816 23.1373C39.8718 24.0989 40.7755 24.9239 41.6035 25.4759C42.3381 25.9656 43.3619 26.2565 44.0976 25.7013C44.1675 25.717 44.2369 25.7341 44.3073 25.7486C44.9861 25.8885 45.8315 25.2982 45.5414 24.5612Z" fill="#2B2B2B"/>
<path d="M114.384 81.016C114.182 80.8178 113.971 80.6412 113.75 80.4801C113.517 80.0741 113.221 79.699 112.949 79.3899C112.263 78.6102 111.358 77.995 110.362 77.6384C109.393 77.2911 108.165 77.3884 107.789 78.4783C107.493 79.3372 107.994 80.2113 108.598 80.8268C108.642 80.9035 108.694 80.9791 108.766 81.0511C109.607 81.8895 110.675 82.7929 111.831 83.1974C112.593 83.4644 113.459 83.3585 113.898 82.7606C114.138 82.6307 114.355 82.4441 114.54 82.1858C114.793 81.8337 114.678 81.3062 114.384 81.016Z" fill="#2B2B2B"/>
<path d="M132.178 73.7324C132.13 73.6533 132.058 73.5859 131.976 73.5331C131.796 73.1982 131.519 72.915 131.187 72.71C130.723 72.4228 130.168 72.3299 129.629 72.4219C129.479 72.4474 129.36 72.574 129.304 72.7013C129.24 72.8478 129.254 72.9904 129.329 73.1309C129.635 73.7057 130.16 74.1984 130.772 74.4675C131.173 74.6441 131.705 74.8385 132.078 74.4961C132.295 74.2974 132.328 73.9773 132.178 73.7324Z" fill="#2B2B2B"/>
<path d="M157.393 73.6603C156.895 72.8153 155.976 72.2802 154.979 72.1944C154.612 72.1628 154.337 72.6328 154.546 72.9206C154.701 73.133 154.88 73.3232 155.08 73.4922C155.071 73.6232 155.113 73.7553 155.222 73.8506C155.472 74.0694 155.763 74.2329 156.088 74.3252C156.419 74.4195 156.755 74.4225 157.093 74.3693C157.422 74.3175 157.538 73.9067 157.393 73.6603Z" fill="#141414"/>
<path d="M148.244 36.8727C147.749 35.9731 146.669 35.3883 145.611 35.4635C145.407 35.4781 145.234 35.5732 145.152 35.7602C145.076 35.935 145.111 36.1521 145.256 36.2875C145.393 36.4156 145.54 36.5341 145.694 36.643C145.653 36.8832 145.787 37.146 146.049 37.2064L147.678 37.5817C148.111 37.6816 148.451 37.2478 148.244 36.8727Z" fill="#141414"/>
<path d="M37.8247 10.885C37.4086 9.96514 36.3176 9.34904 35.2814 9.42998C35.101 9.44412 34.9431 9.51312 34.8483 9.66906C34.7628 9.80971 34.7488 10.0169 34.8483 10.1563C34.9539 10.304 35.0727 10.4415 35.1986 10.5723C35.1951 10.7915 35.334 10.9796 35.5622 11.0525C35.6956 11.0951 35.8291 11.1377 35.9626 11.1803C36.2895 11.3763 36.6469 11.5257 37.028 11.6107C37.1165 11.6305 37.2101 11.626 37.2976 11.6026C37.4779 11.6406 37.677 11.5561 37.7855 11.421C37.9185 11.2554 37.908 11.0691 37.8247 10.885Z" fill="#2B2B2B"/>
<path d="M140.818 35.4707C140.759 35.4357 140.698 35.4041 140.639 35.3705C140.464 35.1678 140.262 34.9924 140.022 34.8583C139.731 34.696 139.418 34.6076 139.086 34.5703C138.93 34.5528 138.756 34.6947 138.723 34.8361C138.72 34.8464 138.722 34.8569 138.72 34.8673C138.714 34.8782 138.707 34.8888 138.702 34.9001C138.632 35.0604 138.69 35.2656 138.856 35.3522C139.151 35.5066 139.447 35.661 139.742 35.8154C139.819 35.8557 139.91 35.8651 139.996 35.8522C140.056 35.8851 140.116 35.918 140.175 35.9509C140.192 35.9635 140.21 35.9762 140.227 35.9889C140.246 36.0026 140.27 36.0078 140.293 36.0158L140.438 36.0958C140.609 36.1901 140.857 36.1397 140.953 35.9659C141.05 35.7888 140.997 35.5772 140.818 35.4707Z" fill="#2B2B2B"/>
<path d="M0 59.208C0 59.208 1.96894 71.6974 13.4961 69.4556C25.0233 67.2139 37.1557 72.8522 37.1557 82.151C37.1557 91.4499 42.0076 98.8439 50.1659 98.8439C63.4709 98.8439 70.7031 111.425 70.7031 111.425H0V59.208Z" fill="#141414"/>
<path d="M136.869 106.382C131.4 102.43 135.017 98.333 129.277 94.7542C125.973 92.6943 112.897 95.361 108.98 94.979C98.3611 93.9431 107.595 79.0128 105.684 70.9047C104.448 65.6596 100.554 60.4067 88.6895 60.8552C82.9712 61.0715 75.2118 63.4358 69.4991 63.1106C58.325 62.4745 61.5344 56.7921 60.8368 53.2406C54.9951 50.0849 50.4435 45.8188 47.8239 39.1671C43.7317 36.5231 38.5973 34.0598 31.4766 31.9475C30.4453 31.6416 29.3427 31.4384 28.4913 30.8003C25.9037 28.8608 27.0519 24.6495 25.0992 22.1136C22.0189 18.1135 15.9477 21.4494 6.03089 15.8361C4.1933 14.7959 2.03338 12.3817 0 10.752V22.3972C2.84651 23.6186 7.71571 24.497 15.8806 24.9834C18.311 25.1283 21.2831 24.9631 22.5418 26.9687C23.7101 28.8306 15.2837 30.0129 13.5501 33.9331C11.4508 38.6799 25.3697 40.052 31.9963 40.3644C43.1845 40.8919 52.5191 47.5231 54.9951 54.6212C57.1359 60.7587 50.8162 60.9831 53.1219 63.2076C57.5388 67.4692 72.241 67.047 78.3954 65.9713C84.5497 64.8957 91.6059 66.1641 96.029 70.4198C100.199 74.4317 101.644 87.2667 100.085 91.5705C98.2397 96.667 92.8339 99.1086 98.329 100.192C106.832 101.869 122.561 95.1669 127.347 104.246C129.024 107.427 131.968 109.822 134.109 111.476H148.215C144.177 110.225 140.235 108.814 136.869 106.382Z" fill="#3C3C3C"/>
<path d="M66.6046 63.1426C70.4109 64.7189 75.0695 64.2371 79.0878 63.9858C85.9263 63.5583 93.1057 63.7233 98.6561 68.1246C100.703 69.7481 102.218 71.8851 103.181 74.2534C104.264 76.9148 104.421 79.6819 104.631 82.4864C105.446 78.4145 106.442 74.1225 105.684 70.9047C104.448 65.6596 101.393 59.6547 89.5291 60.1033C83.8108 60.3195 75.2118 63.4357 69.4991 63.1105C67.9094 63.02 66.6135 62.8443 65.5537 62.6005C65.8827 62.8042 66.2306 62.9877 66.6046 63.1426Z" fill="#545454"/>
<path d="M2.85204 14.9965C4.68602 17.2012 7.31998 18.5123 10.0864 19.3127C13.02 20.1615 16.1179 20.2708 19.0406 21.0996C21.7918 21.8797 23.921 23.4999 25.6264 25.6842C25.9882 26.1477 26.3168 26.6325 26.6377 27.122C26.3077 25.3812 26.1654 23.4979 25.0993 22.1135C22.019 18.1134 15.9478 21.4493 6.03105 15.836C4.44777 14.9398 2.6253 13.0244 0.850586 11.4688C1.33404 12.7328 1.97217 13.9387 2.85204 14.9965Z" fill="#545454"/>
<path d="M68.8849 98.6548C71.6073 102.084 74.8499 106.313 78.0211 109.364C78.8188 110.132 79.6327 110.832 80.4597 111.477H122.561C118.741 109.406 114.752 107.695 110.45 107.004C103.455 105.881 93.3413 107.784 87.7623 101.862C87.0532 101.109 86.4329 100.104 86.7129 99.1246C87.4073 96.6953 92.7063 94.9865 90.3652 91.3944C85.2929 83.6118 73.7343 85.9035 67.2279 85.522C66.4639 85.4772 65.6586 85.4103 65.0306 84.9894C63.3829 83.8849 64.1677 81.2531 65.7434 80.0552C67.319 78.8573 69.4034 78.3939 70.9362 77.1456C72.469 75.8973 73.0571 73.1717 71.302 72.2328C70.2186 71.6532 68.8882 72.0879 67.6608 72.2546C63.9947 72.7526 60.5523 70.7204 57.1296 69.3619C51.5047 67.1293 40.6408 69.3517 39.2266 67.991C36.5227 65.3894 43.8085 62.1449 45.0825 58.6759C46.4448 54.9666 43.8385 50.7554 40.2301 48.9051C32.8383 45.1147 23.9325 48.9663 16.0406 46.9743C10.5491 45.5881 6.23044 41.5872 2.40632 37.5498C1.59357 36.6917 0.792685 35.8231 0 34.9478V57.4548C1.45893 57.8351 2.97844 58.0281 4.45585 58.0335C13.3839 58.0664 20.0882 53.4305 33.3077 55.7325C34.8457 56.0004 36.4367 56.3874 37.6049 57.3863C38.7733 58.3853 39.3558 60.168 38.517 61.437C37.0037 63.7265 32.6294 62.5791 31.138 64.8819C29.2397 67.813 34.3354 74.0245 43.3004 73.799C45.3725 73.7468 47.4799 73.3843 49.4949 73.852C51.5098 74.3196 53.4509 75.9744 53.277 77.9617C53.1695 79.1901 48.6007 85.238 51.345 87.8785C55.5987 91.9713 60.334 87.8842 68.8849 98.6548Z" fill="#2B2B2B"/>
</g>
<defs>
<clipPath id="clip0_8157_130720">
<path d="M0 9.28977C0 4.15917 4.15917 0 9.28977 0H317.71C322.841 0 327 4.15917 327 9.28977V111.477H0V9.28977Z" fill="white"/>
</clipPath>
</defs>
</svg>
