<svg width="28" height="28" viewBox="0 0 28 28" fill="none" xmlns="http://www.w3.org/2000/svg">
<g id="Frame">
<g id="Group">
<path id="Vector" d="M20.6219 2.87531C18.8573 2.03168 16.8696 1.55859 14.7651 1.55859C11.0739 1.55859 7.73716 3.01742 5.33759 5.37024C5.33584 5.37203 5.33407 5.37382 5.33231 5.37743C3.02623 7.6367 1.58898 10.727 1.5368 14.1393C1.8587 15.6449 2.44518 17.0444 3.242 18.2784C3.38782 18.5033 3.53893 18.7208 3.69707 18.935C4.36983 19.8414 5.16312 20.6437 6.05181 21.3129C6.1488 21.3867 6.24597 21.4568 6.34489 21.5269C6.35577 21.5341 6.3665 21.5431 6.37739 21.5503C6.49793 21.6348 6.61845 21.7176 6.74251 21.7968C6.90977 21.9029 7.0788 22.0054 7.25152 22.1025C7.33972 22.1547 7.42968 22.2034 7.52139 22.2519C8.27691 22.6565 9.08093 22.9751 9.92272 23.1908C10.4031 23.3149 10.8959 23.4068 11.396 23.4642C11.4337 23.4679 11.4698 23.4732 11.5075 23.4751C11.8727 23.5146 12.2432 23.5343 12.6173 23.5343C13.3944 23.5343 14.1534 23.4517 14.8856 23.2915C15.5243 23.1548 16.1448 22.9607 16.7384 22.7124C17.2906 22.4858 17.8195 22.2141 18.3249 21.9012C19.7567 21.0142 20.9907 19.8056 21.9351 18.3664C21.9674 18.3162 22.0017 18.2657 22.0305 18.2153C22.0825 18.1398 22.1294 18.0625 22.1742 17.9851C22.365 17.674 22.5413 17.352 22.7031 17.021C22.9675 16.4832 23.1924 15.9219 23.3796 15.3409C23.768 14.1195 23.9803 12.8118 23.9803 11.452C23.9803 8.099 22.6959 5.06445 20.6219 2.87531ZM8.83441 3.97077C9.96944 3.51569 11.0938 3.65959 11.3492 4.29276C11.6028 4.92592 10.8887 5.80733 9.75367 6.26243C8.61864 6.71752 7.49257 6.57542 7.23886 5.94224C6.98531 5.30907 7.69937 4.42767 8.83441 3.97077Z" fill="#C1C1C1"/>
<path id="Vector_2" d="M9.75454 6.26046C8.61951 6.71556 7.49344 6.57345 7.23973 5.94028C6.98618 5.3071 7.70024 4.42569 8.83528 3.96879C9.97031 3.51371 11.0946 3.65761 11.3499 4.29078C11.6036 4.92395 10.8896 5.80538 9.75454 6.26046Z" fill="#DBDBDB"/>
<path id="Vector_3" d="M6.74426 21.802C6.49424 22.0053 6.2551 22.2175 6.023 22.437C5.75681 22.687 5.50134 22.946 5.25852 23.2122C5.17033 23.1259 5.08229 23.0377 4.99761 22.946C4.93294 22.8794 4.87004 22.8128 4.8089 22.7445C2.77252 20.4997 1.5368 17.5551 1.5368 14.3352C1.5368 14.2722 1.5368 14.2075 1.53857 14.1445C1.86062 15.6501 2.44695 17.0496 3.24392 18.2836C4.00472 19.4636 4.95632 20.4925 6.05357 21.3181C6.15073 21.3919 6.24789 21.4638 6.34681 21.5321C6.35754 21.5393 6.36842 21.5483 6.37914 21.5555C6.49968 21.64 6.6202 21.7227 6.74426 21.802Z" fill="#979797"/>
<path id="Vector_4" d="M27.9973 14.3336C27.9973 15.9202 27.697 17.4401 27.1483 18.8413C26.99 19.2514 26.8084 19.6525 26.6051 20.0394C26.5782 20.0951 26.5494 20.1491 26.5188 20.2048C26.1338 20.9225 25.6805 21.6007 25.1661 22.2285C24.8171 22.6585 24.4394 23.0649 24.0347 23.4463C24.0347 23.4463 24.0341 23.4469 24.0328 23.4481C24.0328 23.4481 24.0328 23.4498 24.031 23.4498C23.9465 23.5164 23.862 23.583 23.7775 23.6459C23.657 23.7376 23.5345 23.8258 23.4104 23.9121C23.3259 23.9715 23.2414 24.0309 23.155 24.0885C22.9375 24.2342 22.7143 24.3745 22.4877 24.5058C22.4193 24.5471 22.351 24.5868 22.2809 24.6246C22.1586 24.6947 22.0344 24.7613 21.9103 24.8259C21.806 24.8818 21.6998 24.9357 21.5937 24.986C21.4911 25.0364 21.3904 25.0849 21.286 25.1318C21.1871 25.1768 21.0882 25.2218 20.9875 25.2648C20.8939 25.3063 20.8004 25.3441 20.7052 25.3818C20.6583 25.4015 20.6115 25.4196 20.563 25.4375C20.5019 25.4627 20.4407 25.486 20.3794 25.5076C20.277 25.5454 20.1744 25.5832 20.0702 25.6192C19.9658 25.6552 19.8614 25.6893 19.7571 25.7236C19.6527 25.7559 19.5466 25.7882 19.4405 25.8188C19.2913 25.8638 19.1402 25.9053 18.9891 25.943C18.8541 25.9771 18.7174 26.0096 18.5807 26.0402C18.5447 26.0491 18.507 26.0564 18.4692 26.0653C18.4044 26.078 18.3379 26.0924 18.2713 26.1049C18.2371 26.1121 18.203 26.1193 18.167 26.1247C18.0447 26.1481 17.9206 26.1697 17.7964 26.1894C17.7713 26.1948 17.746 26.1985 17.7209 26.202C17.604 26.22 17.4852 26.2363 17.3665 26.2525C17.2837 26.2632 17.201 26.2741 17.1182 26.2813C17.0356 26.292 16.9529 26.2992 16.8701 26.3064C16.6776 26.3243 16.4834 26.3387 16.2873 26.3477C16.1884 26.3531 16.0893 26.3568 15.9904 26.3586C15.9364 26.3621 15.8843 26.3621 15.8303 26.3621C15.7512 26.3658 15.6739 26.3658 15.5947 26.3658C15.4724 26.3658 15.3501 26.3638 15.2296 26.3603C15.1918 26.3603 15.1558 26.3586 15.1198 26.3568C15.037 26.3549 14.9562 26.3514 14.8752 26.3459C14.8698 26.3477 14.868 26.3477 14.8626 26.3459H14.8481C14.7996 26.3424 14.7529 26.3405 14.7042 26.337C14.5029 26.3243 14.3031 26.3082 14.1053 26.2848C14.0297 26.2776 13.9542 26.2686 13.8786 26.2577C13.8679 26.2577 13.8589 26.2577 13.8498 26.2542C13.8085 26.2507 13.769 26.2453 13.7294 26.2381C13.7203 26.2381 13.7114 26.2381 13.7024 26.2344C13.6161 26.2237 13.5297 26.211 13.4434 26.1966C13.3786 26.1877 13.3139 26.1769 13.2491 26.166C13.1969 26.1571 13.1447 26.1481 13.0925 26.1374C13.0261 26.1265 12.9613 26.1139 12.8947 26.0996C12.8462 26.0905 12.7976 26.0815 12.7473 26.069C12.7454 26.0708 12.7436 26.0689 12.7401 26.0671C12.6267 26.0437 12.5134 26.0186 12.4001 25.9916C12.2868 25.9647 12.1752 25.9359 12.0636 25.907C11.9647 25.8819 11.8677 25.8548 11.7705 25.826C11.623 25.783 11.4791 25.738 11.3352 25.6913C11.2308 25.657 11.1266 25.6229 11.024 25.5851C10.9268 25.5509 10.8316 25.5168 10.7362 25.479C10.6427 25.443 10.5491 25.407 10.4573 25.3692C10.4429 25.3638 10.4268 25.3585 10.4124 25.3494C10.4088 25.3513 10.4069 25.3494 10.4034 25.3458C10.3063 25.3063 10.2091 25.2648 10.1121 25.2218H10.1102C10.0652 25.2037 10.0202 25.184 9.97715 25.1624C9.93218 25.1425 9.88719 25.1227 9.84222 25.1012C9.83678 25.1012 9.83326 25.0976 9.82957 25.0958C9.74329 25.0563 9.66054 25.0166 9.57602 24.9753C9.46076 24.9196 9.34745 24.8619 9.23411 24.8025C9.12095 24.7432 9.00938 24.682 8.89957 24.6191C8.78816 24.5562 8.67836 24.4931 8.57047 24.4266C8.09907 24.1442 7.64944 23.833 7.2195 23.4967C6.79868 23.1675 6.39931 22.8113 6.02332 22.4353C6.25541 22.2159 6.49455 22.0036 6.74458 21.8003C6.91184 21.9065 7.08104 22.0091 7.25375 22.1062C7.34179 22.1584 7.43174 22.2069 7.52346 22.2554C8.27898 22.6602 9.083 22.9786 9.92495 23.1945C10.4051 23.3186 10.898 23.4103 11.398 23.4679C11.7992 23.5146 12.2075 23.538 12.6195 23.538C14.0729 23.538 15.4634 23.2465 16.7406 22.7159C17.2928 22.4893 17.8215 22.2176 18.327 21.9047C19.7588 21.0179 20.9929 19.8091 21.9372 18.3701C21.9697 18.3197 22.0038 18.2694 22.0326 18.219C22.0848 18.1434 22.1315 18.0661 22.1765 17.9888C22.3671 17.6775 22.5435 17.3556 22.7053 17.0246C22.9698 16.4867 23.1947 15.9255 23.3816 15.3445C23.7703 14.1231 23.9825 12.8154 23.9825 11.4555C23.9825 8.10259 22.6981 5.06803 20.6241 2.87891C24.9952 4.96371 27.9992 9.30958 27.9992 14.3336L27.9973 14.3336Z" fill="#B5B5B5"/>
<g id="Group_2">
<path id="Vector_5" d="M15.0772 20.8666C14.1584 20.6874 13.4141 19.7942 13.4141 18.877V17.3948C13.4141 16.476 14.1584 15.8854 15.0772 16.0742C15.9959 16.2631 16.7419 17.1579 16.7419 18.0687V19.5397C16.7419 20.4521 15.9975 21.0459 15.0772 20.865V20.8666Z" fill="#2F2F2F"/>
<path id="Vector_6" d="M4.39047 16.8236C3.55172 16.6443 2.87463 15.8184 2.87463 14.9797V13.2045C2.87463 12.3658 3.55331 11.8407 4.39047 12.0312C5.22922 12.2201 5.9063 13.0492 5.9063 13.88V15.6423C5.9063 16.4731 5.22762 17.0029 4.39047 16.822V16.8236Z" fill="#2F2F2F"/>
<path id="Vector_7" d="M6.69743 14.235L4.08835 10.6639C3.9587 10.4862 3.70899 10.4462 3.52971 10.5775L3.4961 10.6015C3.31842 10.7311 3.27841 10.9808 3.40967 11.1601L6.02036 14.7312C6.15001 14.9089 6.39972 14.9489 6.579 14.8176L6.61261 14.7936C6.79029 14.664 6.8303 14.4143 6.69904 14.235L6.69743 14.235Z" fill="#2F2F2F"/>
<path id="Vector_8" d="M12.7076 17.801L17.0614 15.4624C17.2647 15.3536 17.3415 15.0991 17.2327 14.8942C17.1239 14.6893 16.8693 14.6124 16.6645 14.7213L12.3106 17.0599C12.1074 17.1687 12.0305 17.4233 12.1394 17.6281C12.2482 17.833 12.5027 17.9098 12.7076 17.801Z" fill="#2F2F2F"/>
</g>
<g id="Group_3">
<path id="Vector_9" d="M13.8778 21.235V22.7669C13.8778 22.9157 13.7786 23.0438 13.6361 23.0822L9.50957 24.4924L7.83847 25.0606L6.88287 25.3872C6.27621 25.5936 5.61194 25.5456 5.04049 25.2543L0.609854 22.9974L0.193686 22.7861C0.0784325 22.7269 0.0144115 22.6228 0.00320689 22.5092C0 22.4964 0 22.4836 0 22.4708V20.9453L8.3651 23.3543H8.3667L12.1379 22.0514L13.7593 21.0958L13.8778 21.2366V21.235Z" fill="#818181"/>
<path id="Vector_10" d="M9.50906 22.9652L6.88236 23.8599C6.27572 24.0664 5.61143 24.0184 5.04 23.7287L0.193167 21.2605C-0.0533348 21.1356 -0.0661364 20.7899 0.167551 20.6442L2.95431 18.9219L9.50905 22.9668L9.50906 22.9652Z" fill="#8F8F8F"/>
<path id="Vector_11" d="M13.699 20.9582C13.9664 21.0927 13.9247 21.488 13.635 21.5633L6.86419 23.8682C6.80817 23.8794 6.74894 23.8858 6.68972 23.8858C6.56007 23.8858 6.44001 23.8602 6.32797 23.8138L6.23512 23.7674L1.24263 21.2223L1.11778 21.1583C0.847276 20.9982 0.664795 20.7021 0.664795 20.3612V20.3452C0.709613 20.3036 0.757639 20.2683 0.807248 20.2395L0.869672 20.2059L0.900079 20.1915L4.94817 17.6897L5.47639 17.3631L5.58523 17.3055H5.59003C5.69247 17.2623 5.80132 17.2383 5.91817 17.2383C6.03502 17.2383 6.14227 17.2607 6.24151 17.3023L6.34875 17.3567L13.6958 20.9582L13.699 20.9582Z" fill="#9A9A9A"/>
<path id="Vector_12" d="M7.2073 23.7515L6.88236 23.8619C6.27572 24.0684 5.61144 24.0204 5.04 23.7307L0.193167 21.2608C-0.0533348 21.136 -0.0661365 20.7902 0.167551 20.6446L0.382036 20.5117C0.354823 20.6638 0.422051 20.8287 0.578916 20.9087L5.68505 23.5098C6.15724 23.7515 6.69029 23.8331 7.2073 23.7515Z" fill="#8F8F8F"/>
<path id="Vector_13" d="M10.6962 19.4871L3.51565 22.4067L1.16266 21.2126L8.29905 18.3125L10.6962 19.4871Z" fill="#AEAEAE"/>
<path id="Vector_14" d="M5.32824 19.5882C5.53633 19.5882 5.7044 19.4202 5.7044 19.2121C5.7044 19.004 5.53633 18.8359 5.32824 18.8359C5.12016 18.8359 4.95209 19.004 4.95209 19.2121C4.95209 19.4202 5.12016 19.5882 5.32824 19.5882Z" fill="#737373"/>
<path id="Vector_15" d="M7.68859 20.9867C7.89668 20.9867 8.06475 20.8186 8.06475 20.6105C8.06475 20.4024 7.89668 20.2344 7.68859 20.2344C7.48051 20.2344 7.31244 20.4024 7.31244 20.6105C7.31244 20.8186 7.48051 20.9867 7.68859 20.9867Z" fill="#737373"/>
</g>
</g>
</g>
</svg>
