<svg width="98" height="153" viewBox="0 0 98 153" fill="none" xmlns="http://www.w3.org/2000/svg">
<path d="M20.5064 120.5H9.61138C9.20187 120.5 8.90013 120.414 8.70616 120.241C8.53373 120.047 8.44752 119.746 8.44752 119.336V98.3867C8.44752 97.9772 8.53373 97.6863 8.70616 97.5138C8.90013 97.3199 9.20187 97.2229 9.61138 97.2229H20.5064C23.2005 97.2229 25.1941 97.7617 26.4873 98.8393C27.802 99.917 28.4594 101.577 28.4594 103.818V113.905C28.4594 116.146 27.802 117.806 26.4873 118.884C25.1941 119.961 23.2005 120.5 20.5064 120.5ZM15.7863 103.398V114.39H19.6335C20.1507 114.39 20.5279 114.26 20.765 114.002C21.0236 113.743 21.153 113.344 21.153 112.806V104.95C21.153 104.411 21.0236 104.023 20.765 103.786C20.5279 103.527 20.1507 103.398 19.6335 103.398H15.7863ZM51.4162 114.39C51.4162 115.381 51.2654 116.286 50.9636 117.105C50.6834 117.903 50.1662 118.593 49.4118 119.174C48.679 119.735 47.666 120.177 46.3729 120.5C45.0797 120.823 43.4309 120.985 41.4265 120.985C39.4221 120.985 37.7733 120.823 36.4801 120.5C35.1869 120.177 34.1632 119.735 33.4088 119.174C32.676 118.593 32.1587 117.903 31.857 117.105C31.5768 116.286 31.4367 115.381 31.4367 114.39V98.3867C31.4367 97.9772 31.5229 97.6863 31.6953 97.5138C31.8893 97.3199 32.1911 97.2229 32.6006 97.2229H37.6763C38.0858 97.2229 38.3767 97.3199 38.5492 97.5138C38.7431 97.6863 38.8401 97.9772 38.8401 98.3867V113.129C38.8401 113.56 39.0018 113.926 39.3251 114.228C39.6484 114.508 40.3704 114.648 41.4911 114.648C42.6334 114.648 43.3662 114.508 43.6895 114.228C44.0128 113.926 44.1745 113.56 44.1745 113.129V98.3867C44.1745 97.9772 44.2607 97.6863 44.4331 97.5138C44.6271 97.3199 44.9288 97.2229 45.3383 97.2229H50.2524C50.6619 97.2229 50.9529 97.3199 51.1253 97.5138C51.3193 97.6863 51.4162 97.9772 51.4162 98.3867V114.39ZM70.9139 120.5H55.9131C55.5035 120.5 55.2018 120.414 55.0078 120.241C54.8354 120.047 54.7492 119.746 54.7492 119.336V98.3867C54.7492 97.9772 54.8354 97.6863 55.0078 97.5138C55.2018 97.3199 55.5035 97.2229 55.9131 97.2229H70.9139C71.3234 97.2229 71.6143 97.3199 71.7868 97.5138C71.9807 97.6863 72.0777 97.9772 72.0777 98.3867V102.169C72.0777 102.579 71.9807 102.881 71.7868 103.074C71.6143 103.247 71.3234 103.333 70.9139 103.333H61.991V105.822H68.2952C68.7047 105.822 68.9957 105.919 69.1681 106.113C69.3621 106.286 69.459 106.577 69.459 106.986V110.446C69.459 110.855 69.3621 111.157 69.1681 111.351C68.9957 111.523 68.7047 111.609 68.2952 111.609H61.991V114.39H70.9139C71.3234 114.39 71.6143 114.487 71.7868 114.681C71.9807 114.853 72.0777 115.144 72.0777 115.554V119.336C72.0777 119.746 71.9807 120.047 71.7868 120.241C71.6143 120.414 71.3234 120.5 70.9139 120.5ZM92.5518 120.5H76.0962C75.6867 120.5 75.3849 120.414 75.1909 120.241C75.0185 120.047 74.9323 119.746 74.9323 119.336V98.3867C74.9323 97.9772 75.0185 97.6863 75.1909 97.5138C75.3849 97.3199 75.6867 97.2229 76.0962 97.2229H81.1072C81.5167 97.2229 81.8077 97.3199 81.9801 97.5138C82.1741 97.6863 82.2711 97.9772 82.2711 98.3867V114.39H86.7002V109.152C86.7002 108.743 86.7864 108.452 86.9588 108.28C87.1528 108.086 87.4545 107.989 87.864 107.989H92.5518C92.9613 107.989 93.2523 108.086 93.4247 108.28C93.6187 108.452 93.7156 108.743 93.7156 109.152V119.336C93.7156 119.746 93.6187 120.047 93.4247 120.241C93.2523 120.414 92.9613 120.5 92.5518 120.5ZM20.5064 149.5H9.61138C9.20187 149.5 8.90013 149.414 8.70616 149.241C8.53373 149.047 8.44752 148.746 8.44752 148.336V127.387C8.44752 126.977 8.53373 126.686 8.70616 126.514C8.90013 126.32 9.20187 126.223 9.61138 126.223H20.5064C23.2005 126.223 25.1941 126.762 26.4873 127.839C27.802 128.917 28.4594 130.577 28.4594 132.818V142.905C28.4594 145.146 27.802 146.806 26.4873 147.884C25.1941 148.961 23.2005 149.5 20.5064 149.5ZM15.7863 132.398V143.39H19.6335C20.1507 143.39 20.5279 143.26 20.765 143.002C21.0236 142.743 21.153 142.344 21.153 141.806V133.95C21.153 133.411 21.0236 133.023 20.765 132.786C20.5279 132.527 20.1507 132.398 19.6335 132.398H15.7863ZM51.4162 143.39C51.4162 144.381 51.2654 145.286 50.9636 146.105C50.6834 146.903 50.1662 147.593 49.4118 148.174C48.679 148.735 47.666 149.177 46.3729 149.5C45.0797 149.823 43.4309 149.985 41.4265 149.985C39.4221 149.985 37.7733 149.823 36.4801 149.5C35.1869 149.177 34.1632 148.735 33.4088 148.174C32.676 147.593 32.1587 146.903 31.857 146.105C31.5768 145.286 31.4367 144.381 31.4367 143.39V127.387C31.4367 126.977 31.5229 126.686 31.6953 126.514C31.8893 126.32 32.1911 126.223 32.6006 126.223H37.6763C38.0858 126.223 38.3767 126.32 38.5492 126.514C38.7431 126.686 38.8401 126.977 38.8401 127.387V142.129C38.8401 142.56 39.0018 142.926 39.3251 143.228C39.6484 143.508 40.3704 143.648 41.4911 143.648C42.6334 143.648 43.3662 143.508 43.6895 143.228C44.0128 142.926 44.1745 142.56 44.1745 142.129V127.387C44.1745 126.977 44.2607 126.686 44.4331 126.514C44.6271 126.32 44.9288 126.223 45.3383 126.223H50.2524C50.6619 126.223 50.9529 126.32 51.1253 126.514C51.3193 126.686 51.4162 126.977 51.4162 127.387V143.39ZM70.2349 149.5H62.3466C59.6525 149.5 57.6481 148.961 56.3333 147.884C55.0402 146.806 54.3936 145.146 54.3936 142.905V132.85C54.3936 130.609 55.0402 128.949 56.3333 127.872C57.6481 126.772 59.6525 126.223 62.3466 126.223H70.2349C70.6445 126.223 70.9354 126.32 71.1078 126.514C71.3018 126.686 71.3988 126.977 71.3988 127.387V131.299C71.3988 131.708 71.3018 132.01 71.1078 132.204C70.9354 132.376 70.6445 132.462 70.2349 132.462H63.7368C63.0686 132.462 62.5729 132.603 62.2496 132.883C61.9263 133.141 61.7647 133.54 61.7647 134.079V141.773C61.7647 142.312 61.9263 142.711 62.2496 142.969C62.5729 143.207 63.0686 143.325 63.7368 143.325H70.2349C70.6445 143.325 70.9354 143.422 71.1078 143.616C71.3018 143.788 71.3988 144.079 71.3988 144.489V148.336C71.3988 148.746 71.3018 149.047 71.1078 149.241C70.9354 149.414 70.6445 149.5 70.2349 149.5ZM80.2548 149.5H75.2437C74.8342 149.5 74.5325 149.414 74.3385 149.241C74.1661 149.047 74.0799 148.746 74.0799 148.336V127.387C74.0799 126.977 74.1661 126.686 74.3385 126.514C74.5325 126.32 74.8342 126.223 75.2437 126.223H80.2548C80.6643 126.223 80.9552 126.32 81.1277 126.514C81.3216 126.686 81.4186 126.977 81.4186 127.387V134.822H82.7118L86.0417 127.29C86.1926 126.902 86.3973 126.632 86.656 126.482C86.9146 126.309 87.2487 126.223 87.6582 126.223H92.6369C93.0033 126.223 93.2512 126.32 93.3805 126.514C93.5098 126.686 93.499 126.945 93.3482 127.29L90.0506 134.822C91.2575 134.887 92.2166 135.318 92.9279 136.116C93.6607 136.892 94.0271 137.926 94.0271 139.219V148.336C94.0271 148.746 93.9301 149.047 93.7361 149.241C93.5637 149.414 93.2727 149.5 92.8632 149.5H87.8845C87.475 149.5 87.1733 149.414 86.9793 149.241C86.8069 149.047 86.7206 148.746 86.7206 148.336V142.032C86.7206 141.687 86.6344 141.418 86.462 141.224C86.2896 141.03 86.0309 140.933 85.6861 140.933H81.4186V148.336C81.4186 148.746 81.3216 149.047 81.1277 149.241C80.9552 149.414 80.6643 149.5 80.2548 149.5Z" fill="white"/>
<ellipse cx="91.7391" cy="8.03407" rx="3.3075" ry="3.3075" fill="white"/>
<path d="M91.3865 7.46108V8.06012H91.7375C91.8186 8.06012 91.8732 8.03984 91.9013 7.99928C91.9293 7.9556 91.9434 7.90256 91.9434 7.84016V7.68104C91.9434 7.61864 91.9293 7.56716 91.9013 7.5266C91.8732 7.48292 91.8186 7.46108 91.7375 7.46108H91.3865ZM91.218 9.98828H90.4973C90.438 9.98828 90.3943 9.9758 90.3662 9.95084C90.3413 9.92276 90.3288 9.87908 90.3288 9.8198V6.78716C90.3288 6.72788 90.3413 6.68576 90.3662 6.6608C90.3943 6.63272 90.438 6.61868 90.4973 6.61868H92.0557C92.4051 6.61868 92.6454 6.692 92.7764 6.83864C92.9106 6.98216 92.9777 7.16936 92.9777 7.40024V7.61552C92.9777 7.74656 92.9574 7.85888 92.9168 7.95248C92.8794 8.04296 92.8123 8.10848 92.7156 8.14904C92.8841 8.16776 93.0198 8.2364 93.1227 8.35496C93.2288 8.47352 93.2819 8.63108 93.2819 8.82764V9.8198C93.2819 9.87908 93.2678 9.92276 93.2397 9.95084C93.2148 9.9758 93.1727 9.98828 93.1134 9.98828H92.388C92.3287 9.98828 92.285 9.9758 92.2569 9.95084C92.232 9.92276 92.2195 9.87908 92.2195 9.8198V9.10376C92.2195 9.03512 92.2055 8.9852 92.1774 8.954C92.1524 8.91968 92.1072 8.90252 92.0417 8.90252H91.3865V9.8198C91.3865 9.87908 91.3724 9.92276 91.3443 9.95084C91.3194 9.9758 91.2773 9.98828 91.218 9.98828Z" fill="#1B1B1B"/>
<path d="M28.3252 54.4217C24.8822 54.7336 22.3118 58.312 22.3118 58.312C22.3118 58.312 21.2597 59.6539 20.2612 60.832C19.9777 61.1659 19.8737 61.6699 20.1604 63.2701C20.6077 65.7712 22.4095 65.6798 22.4095 65.6798C22.4095 65.6798 22.2677 65.9003 22.8505 68.1242C23.5561 70.7986 24.7216 70.4962 26.4194 70.5088C26.5675 71.3404 26.7754 71.879 27.0431 72.6539C27.4274 73.7722 29.0686 73.5265 30.7948 73.4981C34.8236 73.4288 36.3986 70.4174 36.2915 69.0724C36.2758 68.8802 36.8743 67.4974 37.0727 66.7477C38.1374 62.7283 31.7902 54.1036 28.3252 54.4186V54.4217Z" fill="#FFA115"/>
<path d="M27.6968 65.1003C25.9454 64.9018 23.4254 64.9932 21.8346 64.8136C21.3747 64.7632 20.2061 62.9488 20.0801 62.8008C20.1021 62.9488 20.1273 63.1063 20.1588 63.2764C20.5494 65.4657 21.9795 65.6704 22.3292 65.6862C22.3512 65.6862 22.3733 65.6799 22.3985 65.6799C24.1971 65.5728 26.4998 65.3113 27.6968 65.1034V65.1003Z" fill="#FFD868"/>
<path d="M30.9868 69.9952C29.5315 69.9952 26.2964 69.9196 24.5765 69.7275C24.2521 69.6897 23.5559 69.1479 22.9102 68.332C23.6189 70.7796 24.7687 70.5024 26.4193 70.515C29.0495 70.4016 31.0025 69.9952 30.9868 69.9952Z" fill="#FFD868"/>
<path d="M45.3479 47.0234C45.3479 47.0234 39.0132 52.3091 36.9941 52.3091C34.6064 52.3091 31.5729 52.0004 27.6732 54.0889C24.183 55.9569 23.3892 56.7979 23.5814 57.5665C23.846 58.6186 28.0922 57.0783 28.0922 57.0783C28.0922 57.0783 33.6204 58.0768 34.0583 60.2976C34.0583 60.2976 38.2793 64.8399 38.651 67.9111C38.651 67.9111 49.361 61.6993 52.6055 51.8996L45.3447 47.0266L45.3479 47.0234Z" fill="#FFD868"/>
<path d="M52.6064 51.8984C44.5707 55.9021 42.7154 65.0276 35.8106 70.8016C35.8074 70.8047 35.8043 70.8047 35.8043 70.8047C36.0342 70.2692 35.9523 69.6235 35.8389 69.0218C35.5995 67.765 35.861 66.8546 34.6955 67.1696C35.0766 66.7759 34.6136 65.5222 34.5285 64.8638C34.4151 63.985 34.0497 63.0683 33.4071 62.9927C32.6511 62.9014 32.0589 63.062 32.0589 63.062C33.0134 62.1517 32.8244 61.5406 32.6795 60.7625C32.4023 59.2411 32.2448 59.071 30.9816 58.8914C29.8098 58.7245 29.0444 57.5905 28.6191 57.4897C29.2554 57.5212 30.6194 58.0063 32.3771 58.0157C32.4779 58.0157 32.5755 58.0126 32.6763 58.0126C33.1551 58 33.6591 57.9496 34.1852 57.8488C35.5334 57.5905 35.2184 58.0031 36.2264 56.4943C39.1244 52.163 47.5223 49.4414 47.5223 49.4414L52.6032 51.9016L52.6064 51.8984Z" fill="#FF8515"/>
<path d="M32.7905 62.1523C32.7905 62.1523 31.6849 64.2975 26.752 65.2457C26.752 65.2457 31.0958 65.3464 33.0173 62.965L32.7937 62.1523H32.7905Z" fill="#FF8515"/>
<path d="M34.4601 67.3332C34.4601 67.3332 33.6978 69.6075 29.25 70.269C29.25 70.269 33.9687 70.4013 35.4902 67.0938L34.4633 67.3332H34.4601Z" fill="#FF8515"/>
<path d="M33.1236 58.0269L33.0008 58.5057L32.5535 60.1217C32.4936 59.5043 31.9046 59.1326 31.4793 58.9656C30.5658 58.5971 29.3121 59.0507 27.1071 60.0303C26.0456 60.5028 25.1699 60.506 24.4706 60.2981C22.9932 59.8508 23.1948 58.5372 23.1948 58.5372C23.1948 58.5372 23.3586 57.5639 24.5934 56.9339C25.2518 56.5968 25.9637 56.3322 26.5905 56.307C27.0158 56.2881 27.4032 56.3826 27.7119 56.6346C28.4774 57.2615 29.7185 57.6048 30.8178 57.7938C31.3943 57.8946 31.9329 57.9513 32.3424 57.9828C32.4684 57.9923 32.5818 57.9986 32.6795 58.008C32.9567 58.0206 33.1236 58.0238 33.1236 58.0238V58.0269Z" fill="#FF8515"/>
<path d="M52.6099 51.9008C45.1034 55.6399 42.9898 63.8488 37.115 69.6227C36.7024 70.0291 36.2677 70.4228 35.8141 70.804C35.8109 70.804 35.8078 70.804 35.8078 70.804C36.0377 70.2685 35.9558 69.6227 35.8424 69.0211C35.6062 67.7642 35.7983 66.8665 34.636 67.1815C35.1022 66.7688 34.6202 65.5246 34.5352 64.8662C34.4218 63.9874 34.0532 63.0707 33.4138 62.992C32.6578 62.9038 32.0656 63.0613 32.0656 63.0613C33.02 62.1541 32.831 61.543 32.6893 60.7618C32.6452 60.5161 32.6011 60.305 32.557 60.1223C32.557 60.1223 32.557 60.1129 32.557 60.1097C32.5255 59.9837 32.494 59.8703 32.4593 59.7727C32.2861 59.2876 32.0467 59.1017 31.5269 58.9852C31.3757 58.9505 31.1993 58.9222 30.9914 58.8907C30.9127 58.8781 30.8339 58.8623 30.7583 58.8403C29.7157 58.5725 29.0258 57.5803 28.6289 57.4858C29.1896 57.5141 30.3173 57.8953 31.7821 57.9898C31.9774 58.0024 32.179 58.0118 32.3869 58.0118C32.4877 58.0118 32.5853 58.0087 32.6861 58.0087C32.9854 58.0024 33.2909 57.9772 33.6091 57.9362C33.8012 57.9142 33.9965 57.8827 34.195 57.8449C35.5432 57.5866 35.225 57.9992 36.2362 56.4904C39.1342 52.156 47.5321 49.4375 47.5321 49.4375L52.613 51.8977L52.6099 51.9008Z" fill="#FF8515"/>
<path d="M33.1263 58.0243L33.0035 58.5031L32.6318 59.8482L32.5562 60.1191C32.5562 60.1191 32.5562 60.1128 32.5562 60.1096C32.5436 59.9868 32.5089 59.8734 32.4585 59.7726C32.2664 59.3725 31.8569 59.1205 31.5261 58.9851C31.5104 58.9756 31.4978 58.9725 31.4852 58.9662C31.2647 58.878 31.0253 58.837 30.7575 58.8402C29.9133 58.8465 28.7856 59.2875 27.113 60.0309C26.4798 60.3144 25.9128 60.4278 25.412 60.4309C25.0686 60.4309 24.7599 60.3837 24.4764 60.2986C22.9991 59.8513 23.2007 58.5378 23.2007 58.5378C23.2007 58.5378 23.3645 57.5644 24.5993 56.9344C25.2576 56.5974 25.9695 56.3328 26.5964 56.3076C26.8452 56.295 27.0846 56.3233 27.2988 56.4021C27.45 56.4556 27.5918 56.5312 27.7178 56.6352C28.4832 57.262 29.7243 57.6054 30.8237 57.7944C31.1513 57.8511 31.4663 57.8952 31.7529 57.9267C31.9703 57.9519 32.1719 57.9708 32.3483 57.9834C32.4743 57.9928 32.5877 57.9991 32.6853 58.0086C32.9625 58.0212 33.1295 58.0243 33.1295 58.0243H33.1263Z" fill="#FF8515"/>
<path d="M35.1034 51.9486L30.2745 54.7018L19.4889 60.8537C19.4889 60.8537 19.4857 60.8569 19.4826 60.8569C19.2904 60.964 19.0762 61.0049 18.862 60.9797L17.6934 58.5322L34.6341 48.8711C34.716 48.9498 34.779 49.0412 34.8262 49.1388L35.5255 50.6004C35.5255 50.6004 35.5287 50.6099 35.5318 50.613C35.535 50.6162 35.535 50.6225 35.5381 50.6256C35.7492 51.1076 35.5665 51.6809 35.1034 51.9392H35.1003L35.1034 51.9486Z" fill="#191D2E"/>
<path d="M34.6314 48.8775L17.6907 58.5385L15.9551 57.288C16.0086 57.0076 16.1756 56.7493 16.437 56.595C16.4433 56.5887 16.4496 56.5855 16.4591 56.5792L18.0341 55.6846L18.4719 55.4326C18.7775 56.113 18.9476 56.4879 18.9476 56.4879L21.896 54.7428L26.9832 51.7377L28.218 51.0037L30.3852 49.7248L31.5665 49.0224C31.5665 49.0224 31.4405 48.7168 31.2074 48.1624L32.0358 47.6899C32.3886 47.4883 32.8328 47.5135 33.1604 47.7561L34.5054 48.7578C34.5527 48.7924 34.5936 48.8271 34.6283 48.8712L34.6314 48.8775Z" fill="#343A49"/>
<path d="M18.8595 60.984C18.7114 60.9651 18.5665 60.921 18.4342 60.8391C18.4311 60.836 18.4279 60.836 18.4248 60.8328L17.2404 60.08C17.0703 59.9729 16.9348 59.8185 16.8498 59.6358L16.0402 57.9191C16.0402 57.9191 16.0371 57.9128 16.0371 57.9096C15.9457 57.708 15.9205 57.4907 15.9583 57.2891L17.694 58.5396L18.8626 60.984H18.8595Z" fill="#292E3F"/>
<path d="M37.9567 71.6226C37.9599 71.7549 37.9158 71.8998 37.8402 72.051C37.5346 72.6306 36.6558 73.311 35.5123 73.7866C34.3815 74.256 33.2947 74.3977 32.6584 74.2087C32.5324 74.1741 32.4222 74.1205 32.334 74.0544H32.3308C32.3025 74.0323 32.2741 74.0071 32.2521 73.9851C32.2426 73.9977 32.23 74.0166 32.2237 74.0292L31.956 73.4968L31.9087 73.4055C33.9342 73.0653 35.1879 71.9124 35.8116 70.8036C35.8084 70.8036 35.8053 70.8036 35.8053 70.8036C36.0352 70.2681 35.9533 69.6223 35.8399 69.0207C35.6037 67.7638 35.6257 67.0236 34.4634 67.3386C34.6083 67.1464 34.8036 66.803 34.791 66.5479C34.7626 65.984 34.5925 65.3194 34.5358 64.8689C34.4224 63.9901 34.0539 63.0734 33.4144 62.9947C32.6584 62.9065 32.0662 63.064 32.0662 63.064C33.0207 62.1568 32.8317 61.5457 32.6899 60.7645C32.6458 60.5188 32.6017 60.3077 32.5576 60.125C32.5576 60.125 32.5576 60.1156 32.5576 60.1124C32.5261 59.9864 32.4946 59.873 32.46 59.7754C32.2678 59.3753 31.8583 59.1233 31.5276 58.9879C31.3764 58.9532 31.2 58.9249 30.9921 58.8934C30.9133 58.8808 30.8346 58.865 30.759 58.843C29.9148 58.8493 28.7871 59.2903 27.1144 60.0337C26.4813 60.3172 25.9143 60.4306 25.4134 60.4337L24.2637 58.1374L24.6007 57.9452L26.6482 56.7766L27.3003 56.4049L27.4672 56.3104L30.0408 54.8425L30.277 54.707L30.4377 55.0598L31.2724 56.8742L31.6945 57.7972L31.7386 57.8948L31.7544 57.9295L31.7827 57.9925L32.0662 58.6067L32.6364 59.851L36.5298 68.3371L37.0936 69.5625L37.1188 69.6223L37.1283 69.6381L37.4401 70.3185L37.9504 71.4336L37.9284 71.4462C37.9504 71.5029 37.963 71.5596 37.963 71.6226H37.9567Z" fill="#191D2E"/>
<path d="M33.3032 79.0425C32.6449 78.6645 32.1251 78.107 31.829 77.4014C31.6211 76.9037 31.5487 76.3745 31.5959 75.8516C31.5959 75.9398 31.6148 76.0217 31.6463 76.1036C31.8259 76.5383 32.4307 76.7493 33.2686 76.743C32.815 77.6471 32.774 78.5133 33.3032 79.0425Z" fill="#0F1119"/>
<path d="M37.9788 71.622C38.0229 72.3276 37.8875 72.8694 37.5851 73.2946C37.3362 73.6632 36.9645 73.9467 36.4826 74.1798C35.1155 74.8413 33.9752 75.5469 33.3767 76.5328C33.342 76.599 33.3011 76.6683 33.2664 76.7376C32.4317 76.7407 31.8269 76.5328 31.6442 76.095C31.6127 76.0131 31.5938 75.9312 31.5938 75.843V75.8367C31.6001 75.7453 31.6127 75.6477 31.6284 75.5563C31.7135 75.0271 31.9182 74.5042 32.2238 74.0191C32.2301 74.0065 32.2427 73.9876 32.2521 73.9719C32.2742 73.9971 32.3025 74.0223 32.3309 74.0443H32.334C32.4222 74.1105 32.5325 74.164 32.6585 74.1987C33.2916 74.3877 34.3784 74.2459 35.5124 73.7734C36.6558 73.2978 37.5347 72.6205 37.8371 72.0378C37.9158 71.8866 37.9568 71.7417 37.9536 71.6094C37.9599 71.6094 37.9631 71.6125 37.9725 71.6125L37.9788 71.622Z" fill="#292E3F"/>
<path d="M36.4699 76.0004C35.2918 76.4855 34.1515 76.7375 33.2695 76.7438C33.3042 76.6713 33.3451 76.6052 33.3798 76.539C33.9783 75.5531 35.1186 74.8475 36.4857 74.186C36.9676 73.9529 37.3393 73.6694 37.585 73.3008C37.8874 72.8724 38.0197 72.3306 37.9788 71.625C38.4576 71.7227 38.9017 71.9022 39.2955 72.1447H39.3018C39.4246 72.2203 39.5412 72.2991 39.6546 72.3904C39.7522 72.4692 39.853 72.5542 39.9381 72.6456C39.9412 72.6487 39.9444 72.6519 39.9475 72.655C40.3161 73.5496 38.7568 75.0459 36.4636 75.9972H36.4668L36.4699 76.0004Z" fill="#343A49"/>
<path d="M39.5105 78.0435H39.5074C39.0254 78.5129 38.4332 78.9035 37.7528 79.187C37.0252 79.4894 36.2755 79.628 35.5667 79.6248H35.5604C34.7351 79.6185 33.9571 79.4169 33.3113 79.0452C33.3113 79.0452 33.3113 79.0452 33.305 79.0421C32.7727 78.5097 32.8168 77.6435 33.2704 76.7426C34.1524 76.7363 35.2927 76.4843 36.4708 75.9992C38.764 75.0479 40.3232 73.5548 39.9547 72.6602C40.2665 72.9657 40.5091 73.3217 40.6792 73.7312C41.2777 75.1707 40.7642 76.8434 39.5137 78.0435H39.5105Z" fill="#191D2E"/>
<path d="M30.3793 49.7289L28.2121 51.0079L26.9773 51.7418C26.8671 51.4835 26.7316 51.1716 26.5804 50.8125C23.2383 42.9848 10.2949 12.6439 10.0965 12.2502L4.38867 8.97104L4.69422 5.33594L13.7694 10.4358C13.971 10.8453 27.2136 42.2351 30.0076 48.8532C30.1683 49.2281 30.2911 49.5274 30.3793 49.7321V49.7289Z" fill="#A3A7AD"/>
<path d="M31.5665 49.0258L30.3852 49.7283C30.297 49.5235 30.1742 49.2243 30.0135 48.8494C27.2195 42.2313 13.9769 10.8415 13.7753 10.432L4.69699 5.32895L3.91579 14.6908C4.12369 15.1034 18.6924 47.5989 21.4455 53.7351C21.6188 54.1162 21.7889 54.5005 21.896 54.7399L18.9476 56.485C18.9476 56.485 18.7775 56.1102 18.4719 55.4298C15.5991 49.0321 0.611441 15.6169 0.400391 15.1916L2.01004 0.402344L14.2446 7.4048C14.4525 7.82375 28.7504 42.2502 31.2074 48.1659C31.4373 48.7203 31.5665 49.0258 31.5665 49.0258Z" fill="#EFEFEF"/>
<path d="M26.9803 51.7395L21.8931 54.7446C21.786 54.5052 21.6159 54.1209 21.4426 53.7398C18.6895 47.6004 4.12392 15.1081 3.91602 14.6955L4.39482 8.96875L10.1026 12.2479C10.3011 12.6448 23.2476 42.9856 26.5866 50.8103C26.7378 51.1725 26.8732 51.4812 26.9835 51.7395H26.9803Z" fill="#E0E0E0"/>
<path d="M36.7434 55.6805C35.6 57.2807 34.97 59.177 34.3085 60.7646C33.732 62.1506 28.6259 61.0953 29.0637 59.4353C29.9489 56.0774 31.1238 54.6567 31.1238 54.6567C31.1238 54.6567 37.89 54.0771 36.7466 55.6805H36.7434Z" fill="#FFD868"/>
<path d="M81.9471 90.2299C81.9251 90.2992 81.8936 90.3685 81.8432 90.4315C81.8243 90.4535 81.8085 90.4693 81.7865 90.4882C81.7581 90.5134 81.7298 90.5354 81.6983 90.5543L80.8887 91.0646L71.7947 96.7693C68.8022 95.6038 59.2734 90.3496 59.2734 90.3496L66.783 85.6372L71.4419 83.1172L74.3682 84.9568L79.3767 88.1099H79.3799L81.7014 89.5715C81.8243 89.6503 81.903 89.7605 81.9408 89.8834V90.2267H81.944L81.9471 90.2299Z" fill="#E74D13"/>
<path d="M71.7975 96.772L67.9766 99.1692C67.5986 99.4054 67.1072 99.1471 67.0883 98.703V96.4948C67.0757 96.1704 66.7953 95.9184 66.4677 95.9404L62.1176 96.2176C61.8089 96.2365 61.5411 96.0129 61.5065 95.7136V95.5782C61.5065 95.5467 61.5065 95.5152 61.5002 95.4868L61.5065 93.5748C61.5159 93.244 61.2545 92.9731 60.9269 92.9731H57.1154C56.8224 92.9731 56.6208 92.7778 56.5547 92.5416V92.2266C56.5925 92.1037 56.6744 91.9872 56.8067 91.9053L59.2763 90.3555C59.2763 90.3555 68.805 95.6128 71.7975 96.7783V96.772Z" fill="#F7762E"/>
<path d="M67.0873 96.4929V98.4963C67.0747 98.1719 66.7944 97.9198 66.4668 97.9419L62.4001 98.2191C61.7449 98.2191 61.4961 97.8726 61.4961 97.3497L61.5024 95.7148C61.537 96.0109 61.8079 96.2346 62.1135 96.2188L66.4636 95.9416C66.7881 95.9196 67.0684 96.1716 67.0842 96.496L67.0873 96.4929Z" fill="#E74D13"/>
<path d="M61.5057 93.5723L61.4994 95.4843C61.4648 95.1977 61.2222 94.974 60.9261 94.974H57.1146C56.8154 94.974 56.6043 94.7661 56.5508 94.5204V92.5391C56.6169 92.7753 56.8185 92.9706 57.1146 92.9706H60.9261C61.2537 92.9706 61.5183 93.2447 61.5057 93.5723Z" fill="#E74D13"/>
<path d="M81.9673 90.2305V92.1551C81.9452 92.3095 81.857 92.4638 81.7027 92.5583L73.6922 97.5857L69.1153 100.459C68.3813 100.918 67.0898 100.625 67.0898 99.8506V98.7008C67.1087 99.1481 67.6001 99.4064 67.9781 99.167L71.7959 96.7699L80.89 91.0652L81.6995 90.5549C81.731 90.5329 81.7594 90.5108 81.7877 90.4888C81.8098 90.4699 81.8255 90.4541 81.8444 90.4321C81.9011 90.3754 81.9452 90.3061 81.9641 90.2305H81.9673Z" fill="#D63E0F"/>
<path d="M77.8426 83.7656V87.511C77.8426 88.9222 75.8927 90.0656 73.4893 90.0656C71.0858 90.0656 69.1328 88.9222 69.1328 87.511V84.9563L77.8457 83.7688L77.8426 83.7656Z" fill="#D84C21"/>
<path d="M51.1921 87.3385L46.9239 90.0191C46.5459 90.2554 46.0545 89.9971 46.0356 89.5529V87.3448C46.023 87.0203 45.7426 86.7683 45.415 86.7872L41.0649 87.0644C40.7562 87.0833 40.4884 86.8597 40.4538 86.5604V86.425C40.4538 86.3935 40.4538 86.362 40.4475 86.3336L40.4538 84.4216C40.4632 84.0908 40.2018 83.8199 39.8742 83.8199H36.0627C35.7697 83.8199 35.5681 83.6246 35.502 83.3884V83.0734C35.5398 82.9505 35.6217 82.834 35.754 82.7521L43.7014 77.7656C43.7014 77.7656 48.102 83.7664 51.1953 87.3416L51.1921 87.3385Z" fill="#F7762E"/>
<path d="M60.899 81.0783C60.8801 81.1476 60.8454 81.2169 60.795 81.2799C60.7761 81.302 60.7604 81.3177 60.7383 81.3366C60.71 81.3618 60.6816 81.3839 60.6501 81.4028L59.8406 81.9131L51.197 87.3374C48.1037 83.7621 43.7031 77.7614 43.7031 77.7614L45.7349 76.4888L50.3937 73.9688L53.3201 75.8084L58.3286 78.9615L60.6501 80.4231C60.773 80.5019 60.8517 80.6121 60.8895 80.735V81.0783H60.8958H60.899Z" fill="#E74D13"/>
<path d="M46.0366 87.3406V89.3439C46.024 89.0195 45.7436 88.7675 45.416 88.7896L41.3494 89.0668C40.6973 89.0668 40.4453 88.7203 40.4453 88.1974L40.4516 86.5625C40.4863 86.8586 40.7572 87.0823 41.0627 87.0665L45.4129 86.7893C45.7373 86.7673 46.0177 87.0192 46.0334 87.3468L46.0366 87.3406Z" fill="#E74D13"/>
<path d="M40.455 84.4199L40.4487 86.332C40.414 86.0453 40.1715 85.8217 39.8753 85.8217H36.0639C35.7615 85.8217 35.5536 85.6138 35.5 85.3681V83.3867C35.5662 83.623 35.7678 83.8183 36.0639 83.8183H39.8753C40.203 83.8183 40.4676 84.0923 40.455 84.4199Z" fill="#E74D13"/>
<path d="M60.9185 81.0774V83.002C60.8964 83.1564 60.8082 83.3107 60.6539 83.4052L52.3536 88.6153L48.0665 91.3054C47.3325 91.7653 46.041 91.4724 46.041 90.6975V89.5477C46.0599 89.995 46.5513 90.2533 46.9293 90.0139L51.1976 87.3333L59.8412 81.909L60.6507 81.3987C60.6822 81.3766 60.7106 81.3546 60.7389 81.3325C60.761 81.3136 60.7767 81.2979 60.7956 81.2758C60.8523 81.2191 60.8964 81.1498 60.9153 81.0742L60.9185 81.0774Z" fill="#D63E0F"/>
<path d="M73.3133 6.98698C69.842 5.32693 65.9297 4.39453 61.7875 4.39453C54.5236 4.39453 47.9558 7.26419 43.234 11.8947C43.2308 11.8978 43.2277 11.901 43.2245 11.9073C38.6854 16.3519 35.8567 22.4346 35.7559 29.1504C36.389 32.1146 37.5451 34.8677 39.1106 37.2963C39.3973 37.7373 39.6934 38.1657 40.0052 38.5878C41.3282 40.3707 42.8906 41.952 44.6389 43.2687C44.831 43.4136 45.02 43.5522 45.2153 43.6908C45.2374 43.7034 45.2563 43.7223 45.2783 43.7381C45.5146 43.905 45.754 44.0657 45.9965 44.2232C46.3241 44.4311 46.658 44.6327 46.9982 44.8248C47.1715 44.9288 47.3479 45.0233 47.5306 45.1178C49.0174 45.9147 50.5987 46.5416 52.2556 46.9668C53.2006 47.2094 54.1708 47.3921 55.1536 47.5055C55.2292 47.5118 55.2985 47.5244 55.3741 47.5275C56.0923 47.6063 56.8231 47.6441 57.557 47.6441C59.0848 47.6441 60.581 47.4803 62.0206 47.1653C63.2774 46.8975 64.4996 46.5132 65.6651 46.025C66.7519 45.5777 67.7914 45.0453 68.7868 44.4279C71.6029 42.6828 74.0315 40.3046 75.89 37.4727C75.953 37.3751 76.0223 37.2743 76.079 37.1766C76.1798 37.0286 76.2743 36.8774 76.3625 36.723C76.7374 36.1119 77.0839 35.4756 77.402 34.8267C77.9218 33.7683 78.3659 32.6627 78.7345 31.5192C79.4999 29.1158 79.9157 26.5422 79.9157 23.8647C79.9157 17.2654 77.3894 11.293 73.307 6.98698H73.3133ZM50.1136 9.14159C52.3469 8.24699 54.5614 8.53049 55.0622 9.77474C55.5599 11.0221 54.155 12.7546 51.9217 13.6524C49.6883 14.547 47.4707 14.2698 46.973 13.0224C46.4753 11.775 47.8802 10.0425 50.1136 9.14159Z" fill="#FFC54D"/>
<path d="M51.9238 13.654C49.6905 14.5486 47.4729 14.2714 46.9752 13.024C46.4775 11.7766 47.8824 10.0441 50.1157 9.14315C52.3491 8.24855 54.5604 8.53205 55.0644 9.77631C55.5652 11.0237 54.1572 12.7562 51.9238 13.654Z" fill="#FFD868"/>
<path d="M45.9981 44.2259C45.5067 44.6259 45.0342 45.0449 44.5775 45.4764C44.0546 45.9678 43.5506 46.4781 43.0718 47.001C42.8985 46.8309 42.7253 46.6577 42.5583 46.4781C42.4323 46.3458 42.3063 46.2167 42.1866 46.0812C38.1798 41.6649 35.748 35.8689 35.748 29.5311C35.748 29.4083 35.748 29.2791 35.7512 29.1562C36.3843 32.1204 37.5372 34.8735 39.1059 37.3022C40.6022 39.6237 42.4764 41.6492 44.6342 43.2746C44.8263 43.4195 45.0153 43.5612 45.2106 43.6967C45.2327 43.7093 45.2516 43.7282 45.2736 43.7439C45.5099 43.9109 45.7493 44.0747 45.9918 44.229L45.9981 44.2259Z" fill="#FFA115"/>
<path d="M82.2187 48.6026C81.5509 52.181 78.9679 55.2712 75.2855 57.3029C75.0651 57.4258 74.8446 57.5423 74.6178 57.6557C74.3122 57.8069 73.9972 57.9518 73.6791 58.0904H73.6759C72.9262 58.4149 72.1418 58.7015 71.3291 58.9441C70.8503 59.0858 70.3621 59.2087 69.8644 59.3221C68.1288 59.7032 66.2797 59.8954 64.3582 59.8544C63.1171 59.8261 61.9075 59.7064 60.7389 59.5048C59.4915 59.2843 58.3007 58.9693 57.1699 58.5661C57.1415 58.5566 57.1132 58.5472 57.088 58.5377C54.4767 57.5959 52.2181 56.1973 50.4887 54.4837C50.0477 54.0458 49.6382 53.5859 49.2666 53.1071C48.961 52.7102 48.6838 52.3039 48.4318 51.8818C47.9971 51.1573 47.6411 50.395 47.386 49.6106C47.3608 49.5445 47.3356 49.472 47.3167 49.4027C47.1371 48.8011 47.0048 48.1837 46.9355 47.56C47.6569 48.127 48.4129 48.6562 49.1941 49.1413C49.3264 49.2263 49.4587 49.3082 49.5941 49.3901C49.6949 49.5413 49.8052 49.6988 49.9154 49.8469C50.0131 49.9823 50.1139 50.1146 50.221 50.2469C50.2493 50.2847 50.2777 50.3225 50.3123 50.3603C50.3879 50.458 50.4635 50.5556 50.5454 50.6501C50.6053 50.7194 50.6651 50.795 50.7281 50.8643C50.8101 50.9588 50.8919 51.0565 50.977 51.1478C50.9959 51.1667 51.0116 51.1856 51.0305 51.2045C51.1534 51.3431 51.2857 51.4817 51.418 51.614C51.5188 51.718 51.6164 51.8156 51.7204 51.9164C51.7897 51.9889 51.8621 52.0582 51.9377 52.1212C52.0543 52.2377 52.174 52.348 52.3 52.4551C52.4323 52.5748 52.5646 52.6882 52.7032 52.8016C52.7819 52.8677 52.8544 52.9339 52.9363 52.9937C53.0686 53.1008 53.1977 53.2016 53.33 53.3024C53.519 53.4442 53.7049 53.5828 53.9002 53.7182C54.0923 53.8537 54.2908 53.9828 54.4893 54.112C54.8862 54.3671 55.2956 54.6065 55.7177 54.8302C55.8784 54.9152 56.0391 55.0003 56.206 55.079C56.2816 55.1168 56.3572 55.1546 56.4328 55.1893C56.625 55.2806 56.814 55.3688 57.0093 55.4507C57.2298 55.5452 57.4502 55.6397 57.677 55.7216C57.844 55.7846 58.0141 55.8476 58.1842 55.9075C58.1874 55.9075 58.1936 55.9138 58.2031 55.9138C58.3354 55.9642 58.4645 56.0051 58.5968 56.0461C58.7165 56.0902 58.8362 56.1248 58.9591 56.1595C59.1985 56.2351 59.4442 56.3012 59.6836 56.3611C59.7592 56.3831 59.8317 56.3989 59.9073 56.4178C59.9829 56.4398 60.0553 56.4524 60.1309 56.4713C60.2506 56.4997 60.3703 56.5249 60.4932 56.5501C60.5247 56.5564 60.553 56.5627 60.5814 56.569C60.7578 56.6068 60.9404 56.6414 61.1168 56.6698C61.2775 56.6981 61.4381 56.7265 61.5988 56.7485C61.6208 56.7517 61.6366 56.7548 61.6555 56.7548H61.6618C61.8886 56.7895 62.1186 56.8178 62.3485 56.8399C62.4714 56.8525 62.6005 56.8682 62.7265 56.8745C62.9785 56.8966 63.2337 56.9123 63.4888 56.9249H63.5266C63.7691 56.9344 64.0148 56.9407 64.2605 56.9407C64.4621 56.9407 64.6637 56.9375 64.8622 56.9312C64.9158 56.9312 64.9693 56.9281 65.0228 56.9249C65.3851 56.9155 65.7411 56.8871 66.0939 56.8493C66.1537 56.8493 66.2135 56.8399 66.2734 56.8304C66.3931 56.821 66.5096 56.8052 66.623 56.7895H66.6388C66.6766 56.7863 66.7144 56.78 66.7522 56.7769C66.8971 56.7548 67.042 56.7328 67.1837 56.7107C67.2467 56.7044 67.3161 56.6918 67.3791 56.6792C67.4799 56.6666 67.5775 56.6446 67.6752 56.6257C67.776 56.6131 67.8736 56.591 67.9681 56.569C68.0122 56.5595 68.0531 56.5501 68.0941 56.5438C68.2201 56.5186 68.3493 56.4902 68.4721 56.4587C68.6202 56.4272 68.7682 56.3894 68.9194 56.3485C69.0675 56.3107 69.2124 56.2697 69.3573 56.2288C69.6534 56.1437 69.9463 56.0524 70.2361 55.9484C70.3243 55.9201 70.4125 55.8886 70.5007 55.8571C70.6361 55.8098 70.7748 55.7594 70.9039 55.7059C70.9575 55.687 71.0079 55.6681 71.0551 55.646C71.4079 55.5074 71.7576 55.3562 72.0946 55.1924C72.1608 55.1609 72.2301 55.1294 72.2962 55.0916C72.4222 55.0286 72.5514 54.9656 72.6742 54.8995C72.8065 54.8333 72.9356 54.7609 73.0648 54.6916C73.1152 54.6632 73.1593 54.638 73.2097 54.6097C73.3514 54.5278 73.4932 54.4459 73.6318 54.3608C73.7515 54.2915 73.868 54.2191 73.9814 54.1403C74.0318 54.1151 74.076 54.0836 74.1264 54.049C74.1768 54.0206 74.2271 53.986 74.2712 53.9545C74.2901 53.9482 74.3091 53.9324 74.328 53.9198C74.4099 53.8663 74.4949 53.8096 74.5768 53.7497C74.5894 53.7434 74.602 53.7371 74.6146 53.7214C74.6776 53.6836 74.7406 53.6363 74.8068 53.5859C74.9139 53.5103 75.0209 53.4316 75.128 53.3497C75.2099 53.2867 75.2918 53.2268 75.3737 53.1607C75.61 52.978 75.8368 52.789 76.0636 52.5905C76.0888 52.5685 76.1171 52.5464 76.1423 52.5244C76.2621 52.4173 76.3818 52.3102 76.5046 52.1968C76.5424 52.1621 76.5865 52.1243 76.6243 52.0834C76.6495 52.0613 76.6747 52.0424 76.6936 52.0172C76.8417 51.8755 76.9834 51.7337 77.1252 51.5857C77.3016 51.4061 77.4717 51.2203 77.6355 51.0344C77.7835 50.8706 77.9252 50.7005 78.0607 50.5304C78.1174 50.4674 78.171 50.3981 78.2214 50.332C78.2844 50.2564 78.3411 50.1808 78.3978 50.1052C78.4419 50.0516 78.4828 49.9949 78.5237 49.9382C78.5773 49.8658 78.6277 49.7996 78.6718 49.7335C78.7285 49.6547 78.7852 49.5791 78.8419 49.4972C79.2829 48.8578 79.6798 48.1837 80.0263 47.4844H80.0294C80.7665 47.8309 81.4974 48.2089 82.2219 48.6215L82.2187 48.6026Z" fill="#FFA115"/>
<path d="M87.8233 29.532C87.8233 32.6536 87.2311 35.6461 86.1538 38.4024C85.8419 39.2088 85.486 39.9994 85.0859 40.7617C85.0324 40.872 84.9757 40.9791 84.9158 41.0862C84.1598 42.4974 83.2652 43.833 82.2541 45.0678C81.5674 45.9152 80.824 46.7153 80.027 47.465C80.027 47.465 80.027 47.465 80.0239 47.4681C80.0239 47.4681 80.0239 47.4713 80.0207 47.4713C79.8538 47.6036 79.6868 47.7327 79.523 47.8587C79.2868 48.0383 79.0442 48.2115 78.8017 48.3816C78.6347 48.4982 78.4678 48.6147 78.2977 48.7281C77.8693 49.0148 77.4314 49.292 76.9841 49.5503C76.8487 49.6322 76.7164 49.7109 76.5778 49.7834C76.3384 49.922 76.0927 50.0511 75.847 50.1803C75.6422 50.2905 75.4312 50.3976 75.2233 50.4953C75.0217 50.5961 74.8232 50.6906 74.6185 50.7819C74.4232 50.8701 74.2279 50.9583 74.0326 51.0434C73.8467 51.1253 73.664 51.1977 73.4782 51.2733C73.3868 51.3111 73.2955 51.3489 73.1978 51.3836C73.0781 51.434 72.9584 51.4781 72.8356 51.5222C72.634 51.5978 72.4324 51.6702 72.2276 51.7427C72.0229 51.812 71.8181 51.8813 71.6102 51.9474C71.4055 52.0104 71.1944 52.0734 70.9865 52.1364C70.6936 52.2246 70.3943 52.3065 70.0982 52.3821C69.8336 52.4483 69.5627 52.5144 69.295 52.5743C69.2257 52.5932 69.1501 52.6058 69.0745 52.6247C68.9485 52.6499 68.8162 52.6782 68.6839 52.7034C68.6177 52.716 68.5484 52.7318 68.4791 52.7412C68.2397 52.7885 67.994 52.8294 67.7483 52.8672C67.6979 52.8767 67.6475 52.8861 67.6003 52.8924C67.3703 52.9271 67.1372 52.9586 66.9041 52.9932C66.7403 53.0153 66.5797 53.0342 66.4159 53.0499C66.2521 53.072 66.0914 53.0846 65.9276 53.1003C65.5496 53.135 65.1653 53.1633 64.781 53.1822C64.5857 53.1917 64.3904 53.2011 64.1951 53.2043C64.088 53.2106 63.9872 53.2106 63.8801 53.2106C63.7258 53.2169 63.5714 53.2169 63.4171 53.2169C63.1777 53.2169 62.9351 53.2137 62.6989 53.2074C62.6233 53.2074 62.554 53.2043 62.4815 53.2011C62.3177 53.198 62.1602 53.1917 61.9996 53.1791C61.9901 53.1822 61.987 53.1822 61.9744 53.1791H61.946C61.8515 53.1728 61.757 53.1696 61.6625 53.1602C61.2656 53.135 60.8719 53.1035 60.4844 53.0562C60.3364 53.0436 60.1883 53.0247 60.0371 53.0027C60.0151 53.0027 59.9993 53.0027 59.9804 52.9964C59.8985 52.9901 59.8229 52.9775 59.7442 52.9649C59.7253 52.9649 59.7095 52.9649 59.6906 52.9586C59.5205 52.9365 59.3504 52.9113 59.1803 52.883C59.0512 52.8641 58.9252 52.8452 58.7992 52.8231C58.6952 52.8042 58.5944 52.7885 58.4905 52.7664C58.3582 52.7444 58.2322 52.7192 58.0999 52.6908C58.0054 52.6719 57.9077 52.6562 57.8101 52.631C57.8069 52.6341 57.8038 52.631 57.7943 52.6278C57.5707 52.5806 57.347 52.5333 57.1265 52.4798C56.9029 52.4262 56.6855 52.3695 56.465 52.3128C56.2697 52.2624 56.0807 52.2089 55.8886 52.1522C55.5988 52.0671 55.3153 51.9789 55.0318 51.8876C54.827 51.8214 54.6223 51.7521 54.4207 51.6797C54.2285 51.6135 54.0427 51.5442 53.8537 51.4718C53.671 51.3993 53.4851 51.33 53.3056 51.2544C53.2772 51.245 53.2457 51.2324 53.2174 51.2166C53.2111 51.2198 53.2079 51.2166 53.1985 51.2103C53.0063 51.1316 52.8173 51.0497 52.6252 50.9678H52.622C52.5338 50.9331 52.4456 50.8922 52.3606 50.8512C52.2724 50.8134 52.1842 50.7725 52.096 50.7315C52.0865 50.7315 52.0771 50.7252 52.0708 50.7221C51.9007 50.6433 51.7369 50.5677 51.5731 50.4858C51.3463 50.3756 51.1226 50.2622 50.899 50.1456C50.6753 50.0291 50.458 49.9094 50.2406 49.7834C50.0201 49.6605 49.8059 49.5345 49.5917 49.4054C48.6656 48.851 47.7805 48.2367 46.9331 47.5752C46.1047 46.9263 45.3203 46.227 44.5801 45.4868C45.0368 45.0552 45.5062 44.6362 46.0007 44.2362C46.3283 44.4441 46.6622 44.6457 47.0024 44.8379C47.1757 44.9418 47.3521 45.0363 47.5316 45.1308C49.0184 45.9278 50.5997 46.5546 52.2566 46.9799C53.2016 47.2256 54.1718 47.4051 55.1546 47.5185C55.9453 47.6099 56.7485 47.6571 57.5581 47.6571C60.4183 47.6571 63.1556 47.0838 65.6693 46.038C66.7561 45.5907 67.7956 45.0584 68.791 44.441C71.6071 42.6959 74.0357 40.3176 75.8942 37.4857C75.9572 37.3881 76.0265 37.2873 76.0832 37.1896C76.1872 37.0416 76.2785 36.8904 76.3667 36.736C76.7416 36.1249 77.0881 35.4886 77.4062 34.8397C77.926 33.7813 78.3701 32.6757 78.7387 31.5322C79.5041 29.1288 79.9199 26.5552 79.9199 23.8777C79.9199 17.2785 77.3936 11.3061 73.3112 7C81.9139 11.1013 87.8233 19.6536 87.8233 29.5414H87.8201L87.8233 29.532Z" fill="#FFA115"/>
<path d="M93.0135 49.8745C92.9631 51.2951 92.6985 55.787 91.2243 55.7398C89.9738 54.3758 88.5878 53.0812 87.0758 51.8779C86.4143 51.3518 85.7402 50.851 85.0566 50.3816C86.408 49.6603 87.9546 49.2539 89.5958 49.2539C90.7991 49.2539 91.952 49.4776 93.0167 49.8776H93.0135V49.8745Z" fill="#FFC54D"/>
<path d="M95.6126 61.4292C95.6126 61.5048 95.6126 61.5773 95.6094 61.6497C94.4093 59.5928 92.9445 57.602 91.2246 55.7403C92.6957 55.7876 92.9634 51.2925 93.0138 49.875C93.017 49.875 93.0201 49.8782 93.0233 49.8782C94.6928 53.1825 95.6094 57.0476 95.6094 61.4292H95.6126Z" fill="#FFA115"/>
<path d="M80.0196 47.468C77.5091 52.5899 72.2454 56.0927 66.6258 56.7763C65.5989 56.9086 64.55 56.9558 63.5136 56.9149C63.5136 56.9149 63.5105 56.9117 63.5073 56.9149C58.0389 56.7259 52.6713 53.9444 49.5938 49.3895C50.7467 50.0919 51.972 50.6999 53.2194 51.2039C53.2477 51.2228 53.2824 51.2354 53.3108 51.2417C54.7661 51.837 56.2812 52.3001 57.8184 52.6183C65.5013 54.272 73.874 52.3883 80.0228 47.4648L80.0196 47.468Z" fill="#FF8515"/>
<path d="M95.6058 61.6463C94.4056 59.5893 92.9409 57.6017 91.221 55.74C89.9704 54.3761 88.5844 53.0814 87.0724 51.8781C86.4109 51.3521 85.7368 50.8512 85.0532 50.3819C84.1208 49.7361 83.1727 49.1471 82.212 48.6084C81.5946 51.9033 79.3581 54.7824 76.1293 56.8047C75.1717 57.3308 72.4721 58.7073 69.1521 59.4759C67.6243 59.7626 66.0147 59.9012 64.3546 59.8634C63.1135 59.835 61.9039 59.7153 60.7352 59.5137C59.491 59.2932 58.2972 58.9782 57.1663 58.575C57.138 58.5656 57.1096 58.5561 57.0844 58.5467C54.473 57.6048 52.2145 56.2062 50.4852 54.4926C50.041 54.0548 49.6346 53.5949 49.2629 53.1161C48.9574 52.7192 48.6802 52.3128 48.4282 51.8907C47.9935 51.1662 47.6376 50.4039 47.3856 49.6196C47.3604 49.5534 47.3351 49.481 47.3131 49.4117C47.1335 48.81 47.0013 48.1958 46.932 47.5689C46.1035 46.92 45.3191 46.2207 44.5789 45.4805C44.056 45.9719 43.552 46.4822 43.0732 47.0051C43.0071 47.0744 42.9409 47.15 42.8747 47.2193C42.7708 47.3358 42.6669 47.4555 42.5661 47.5784C42.4148 47.7548 42.2668 47.9312 42.1156 48.1139C41.9738 48.2871 41.8353 48.4635 41.6967 48.6399C41.5738 48.8006 41.4478 48.9612 41.3281 49.125C41.2367 49.2479 41.1486 49.377 41.0603 49.503C40.5847 50.1456 39.8791 51.3269 39.498 52.0293L39.4916 52.0356C39.0286 52.905 38.6191 53.8059 38.2821 54.7257C38.2789 54.7415 38.2757 54.7604 38.2694 54.7761C38.2726 54.7604 38.2757 54.7415 38.2789 54.7257C38.26 54.7698 38.2474 54.8139 38.2285 54.858C38.2285 54.8612 38.2253 54.8643 38.2253 54.8643C37.4284 57.0536 37 59.3594 37 61.7471C37 63.5394 37.2174 65.2845 37.63 66.9635C39.8634 76.0702 47.8203 83.3593 58.1113 85.9045C60.6754 86.5376 63.3844 86.8778 66.1848 86.8778C80.0731 86.8778 91.8667 78.2941 94.8655 67.0328C94.9033 66.891 94.9411 66.7493 94.9757 66.6075C95.1207 66.0279 95.2372 65.4357 95.3349 64.8404C95.505 63.7914 95.5963 62.7267 95.6026 61.6463H95.5995H95.6058Z" fill="#FFA115"/>
<path d="M75.7406 57.0465C75.7091 58.6184 76.6131 67.1801 71.7968 72.7525C67.0875 78.1988 57.836 80.2936 48.3198 76.2206C44.0516 74.3936 39.1439 68.0117 38.076 61.9574C38.0445 61.929 37.7988 60.4139 37.7988 58.842C37.7988 55.6637 38.391 54.1076 39.4935 52.0349L39.4998 52.0286C40.8071 49.6157 42.3852 47.5335 44.5776 45.4766C45.3179 46.2168 46.1022 46.9161 46.9307 47.565C47.6961 54.3281 54.5348 58.8074 62.1515 59.6925C65.1944 60.0485 70.6124 59.8658 75.7374 57.0434L75.7406 57.0465Z" fill="#FFC54D"/>
<path d="M64.6811 43.2621C62.873 42.9093 61.4082 41.1515 61.4082 39.3466V36.4297C61.4082 34.6216 62.873 33.4592 64.6811 33.8309C66.4892 34.2026 67.9571 35.9635 67.9571 37.7558V40.6507C67.9571 42.4462 66.4923 43.6148 64.6811 43.2589V43.2621Z" fill="#191D2E"/>
<path d="M43.6491 35.3087C41.9985 34.9559 40.666 33.3305 40.666 31.6799V28.1866C40.666 26.536 42.0016 25.5028 43.6491 25.8776C45.2997 26.2493 46.6321 27.881 46.6321 29.5159V32.984C46.6321 34.6189 45.2965 35.6615 43.6491 35.3056V35.3087Z" fill="#191D2E"/>
<path d="M48.1928 30.2174L43.0583 23.1897C42.8032 22.84 42.3118 22.7613 41.959 23.0196L41.8928 23.0668C41.5432 23.322 41.4644 23.8134 41.7227 24.1662L46.8604 31.1939C47.1155 31.5435 47.6069 31.6223 47.9597 31.364L48.0259 31.3167C48.3755 31.0616 48.4543 30.5702 48.196 30.2174H48.1928Z" fill="#191D2E"/>
<path d="M60.0183 37.236L68.5863 32.6338C68.9864 32.4196 69.1376 31.9188 68.9234 31.5156C68.7092 31.1124 68.2083 30.9612 67.8051 31.1754L59.2371 35.7775C58.8371 35.9917 58.6859 36.4926 58.9001 36.8958C59.1143 37.299 59.6151 37.4502 60.0183 37.236Z" fill="#191D2E"/>
<path d="M73.815 58.7016C73.815 58.7016 74.1962 62.9573 71.1281 63.0203C71.1281 63.0203 70.2713 61.0358 61.3599 63.2093C61.3599 63.2093 55.4442 63.5211 54.1118 65.1119C53.7275 65.5718 53.6015 67.0145 53.6235 67.676C53.7779 71.9096 54.5465 72.3695 54.5465 72.3695C54.5465 72.3695 55.0977 77.441 56.1876 78.764C56.4459 79.079 57.9831 78.6065 58.4556 78.5088C58.4556 78.5088 55.1828 71.1378 61.4198 68.7218C67.6599 66.3057 76.0988 68.936 73.815 58.6953V58.7016Z" fill="#FFA115"/>
<path d="M62.1052 64.2102C62.1052 64.2102 61.2799 64.396 60.9618 64.459C59.4372 64.7614 57.7267 64.9095 56.6494 65.5899L55.0996 70.4409C55.0996 70.4409 55.8808 72.9325 56.2305 73.8334L57.4968 77.3268C57.4968 77.3268 57.9031 78.0671 58.5898 78.842C58.5898 78.842 61.1004 81.5037 66.8838 79.3176C72.664 77.1315 70.1503 66.5821 68.3233 65.4891C66.4963 64.396 62.1084 64.207 62.1084 64.207L62.1052 64.2102Z" fill="#FF8515"/>
<path d="M82.7877 60.5391C82.7877 60.5391 87.3615 68.0896 82.164 75.4323C78.1635 81.0834 71.7438 81.978 64.7539 80.9353C64.7539 80.9353 80.7118 72.5437 82.7877 60.5391Z" fill="#FF8515"/>
<path d="M73.6186 58.0948C73.6186 58.0948 75.6 62.53 70.6324 65.9068C70.6324 65.9068 70.3867 63.8183 69.5803 63.5569C68.6448 63.2545 66.9375 63.4277 64.849 63.6955C63.5985 63.8561 62.2629 63.9223 62.014 64.2625C61.0911 65.5162 61.0281 67.7968 61.7022 67.9574C62.5716 68.1653 66.2571 67.5826 66.2571 67.5826C66.2571 67.5826 62.7889 69.0568 62.1463 69.0284C61.8124 69.0158 60.2973 68.6914 58.9144 68.1307L60.4264 67.8818C60.4264 67.8818 60.0358 65.9729 60.9682 64.4515C60.9682 64.4515 56.0479 64.9555 55.2982 65.743C54.7533 66.3163 54.8005 66.8329 54.9706 68.8646C55.0903 70.2979 55.0305 70.5971 55.4148 71.2145C56.0542 72.2446 57.1063 72.6446 58.1584 73.136C59.5035 73.7629 60.8485 74.1377 61.5699 74.4748C61.5699 74.4748 59.6578 74.6354 56.2369 73.8227C56.2369 73.8227 56.2747 74.5378 56.7441 75.7505C57.2449 77.0389 57.4087 77.2373 57.6702 77.4326C58.1364 77.776 58.7758 77.8012 59.6011 77.9461C60.4264 78.091 61.3903 78.1382 62.7165 78.2642C62.7165 78.2642 60.5461 78.7336 58.5963 78.8312C58.5963 78.8312 58.7191 79.1935 59.031 79.6439C59.4657 80.2739 59.5066 80.4661 60.7509 80.6047C62.5086 80.8031 65.2081 81.2315 69.4795 80.4976C82.9426 78.1855 87.4597 64.9145 79.3894 54.0312C79.3894 54.0312 78.3688 54.8755 76.6836 56.1922C74.7463 57.7073 73.6249 58.0853 73.6249 58.0853L73.6186 58.0948Z" fill="#FFC54D"/>
<path d="M60.4225 67.8913C60.4225 67.8913 60.0319 65.9824 60.9643 64.4609C60.9643 64.4609 56.044 64.9649 55.2943 65.7524C54.7494 66.3257 54.7966 66.8423 54.9667 68.8741C54.9762 69.0001 54.9856 69.1166 54.9951 69.2237L61.8652 68.9969C61.2825 68.8993 60.054 68.5969 58.9137 68.1338L60.4257 67.885L60.4225 67.8913Z" fill="#FFC54D"/>
<path d="M69.5813 63.5581C68.6458 63.2557 66.9385 63.4289 64.85 63.6967C63.5995 63.8573 62.2639 63.9235 62.015 64.2637C61.0921 65.5174 61.0291 67.798 61.7032 67.9586C61.8229 67.987 61.9993 67.9996 62.2103 68.0027L70.268 64.4054C70.1074 64.0054 69.8837 63.6526 69.5845 63.5549L69.5813 63.5581Z" fill="#FFC54D"/>
<path d="M56.7345 74.0533C58.4292 74.4817 60.0357 75.1967 61.7272 75.6188C61.6012 75.2408 61.4626 74.8691 61.324 74.4974C60.7161 74.5132 58.9552 74.4817 56.2305 73.8359C56.2305 73.8359 56.2368 73.9367 56.2651 74.1257C56.388 74.0438 56.5455 74.006 56.7313 74.0533H56.7345Z" fill="#FFC54D"/>
<path d="M79.539 53.8672C79.539 53.8672 76.2945 56.5006 76.2221 56.5541C76.704 57.7417 76.997 62.3785 75.066 66.6594C73.8942 69.2581 73.4627 69.3337 70.0166 70.0992C68.7534 70.3795 64.7498 71.2584 62.2676 71.6017C63.0519 72.4207 63.9087 74.7265 63.9434 77.9773C63.9528 78.9444 63.8394 79.9335 63.7166 80.91C65.3262 81.0297 67.3485 80.8974 69.4748 80.5131C74.1998 79.6594 78.1782 77.7663 80.925 73.6681C84.3333 68.584 84.8279 61.4209 79.539 53.8735V53.8672Z" fill="#FFA115"/>
<path d="M62.3222 43.9842V46.9988C62.3222 47.2917 62.1269 47.5437 61.8466 47.6193L53.7259 50.3945L50.4373 51.5127L48.5567 52.1553C47.3629 52.5617 46.0556 52.4672 44.9311 51.8939L36.2119 47.4524L35.3929 47.0366C35.1661 46.92 35.0401 46.7153 35.018 46.4916C35.0117 46.4664 35.0117 46.4412 35.0117 46.416V43.4141L51.4736 48.1548H51.4768L58.8982 45.5907L62.0891 43.7102L62.3222 43.9874V43.9842Z" fill="#E74D13"/>
<path d="M61.9708 43.4456C62.4968 43.7102 62.4149 44.4883 61.8448 44.6363L48.5203 49.1723C48.41 49.1944 48.2935 49.207 48.1769 49.207C47.9218 49.207 47.6855 49.1566 47.465 49.0652L47.2823 48.9739L37.4575 43.9654L37.2118 43.8394C36.6794 43.5244 36.3203 42.9416 36.3203 42.2707V42.2392C36.4085 42.1573 36.503 42.088 36.6007 42.0313L36.7235 41.9651L36.7834 41.9368L44.7497 37.0133L45.7892 36.3707L46.0034 36.2573H46.0129C46.2145 36.1722 46.4287 36.125 46.6586 36.125C46.8886 36.125 47.0996 36.1691 47.2949 36.251L47.506 36.3581L61.9645 43.4456H61.9708Z" fill="#F7762E"/>
<path d="M53.7249 47.3983L48.5557 49.1592C47.3619 49.5655 46.0546 49.471 44.9301 48.9009L35.3919 44.0436C34.9068 43.7979 34.8816 43.1175 35.3415 42.8308L40.8256 39.4414L53.7249 47.4015V47.3983Z" fill="#F7762E"/>
<path d="M49.1952 48.9459L48.5557 49.1633C47.3619 49.5696 46.0546 49.4751 44.9301 48.905L35.3919 44.0445C34.9068 43.7988 34.8816 43.1184 35.3415 42.8318L35.7636 42.5703C35.71 42.8696 35.8423 43.194 36.151 43.3515L46.1995 48.4703C47.1288 48.9459 48.1777 49.1066 49.1952 48.9459Z" fill="#F99746"/>
<path d="M35.018 45.6342H35.0117V45.5586C35.0117 45.5838 35.0117 45.609 35.018 45.6342Z" fill="#F7762E"/>
<path d="M56.0602 40.5514L41.9293 46.297L37.2988 43.9471L51.414 38.2109L56.0602 40.5514Z" fill="#F99746"/>
<path d="M45.4942 40.7539C45.9037 40.7539 46.2344 40.4232 46.2344 40.0137C46.2344 39.6042 45.9037 39.2734 45.4942 39.2734C45.0847 39.2734 44.7539 39.6042 44.7539 40.0137C44.7539 40.4232 45.0847 40.7539 45.4942 40.7539Z" fill="#D63E0F"/>
<path d="M50.1406 43.4922C50.5501 43.4922 50.8809 43.1615 50.8809 42.752C50.8809 42.3425 50.5501 42.0117 50.1406 42.0117C49.7311 42.0117 49.4004 42.3425 49.4004 42.752C49.4004 43.1615 49.7311 43.4922 50.1406 43.4922Z" fill="#D63E0F"/>
</svg>
