<svg width="327" height="112" viewBox="0 0 327 112" fill="none" xmlns="http://www.w3.org/2000/svg">
<g clip-path="url(#clip0_8157_130812)">
<path d="M0 9.76731C0 4.63671 4.15917 0.477539 9.28977 0.477539H317.71C322.841 0.477539 327 4.63671 327 9.76731V111.955H0V9.76731Z" fill="#181818"/>
<path d="M103.745 94.037C103.745 94.037 109.158 76.1579 101.88 64.8183C101.88 64.8183 110.472 68.7164 114.407 74.8476C114.407 74.8476 120.144 64.1013 104.508 58.2245C104.508 58.2245 109.704 50.8755 112.087 49.5315C112.087 49.5315 103.201 46.5276 99.0657 54.6788C99.0657 54.6788 96.1015 48.7029 87.9914 48.2123L95.5214 56.1932C95.5214 56.1932 81.7785 57.7695 82.5753 69.5394L94.8957 63.8191C94.8957 63.8191 90.8972 68.0139 91.3568 72.1184L97.5659 66.6766C97.5659 66.6766 103.038 78.711 97.1939 92.8718L103.745 94.037Z" fill="#2C2C2C"/>
<path d="M21.8937 97.1686C21.8937 97.1686 20.0682 80.861 25.7578 71.8151C25.7578 71.8151 18.8528 74.7828 15.7765 79.6738C15.7765 79.6738 10.9008 70.8067 23.4917 66.3952C23.4917 66.3952 19.1231 60.3017 17.16 59.1538C17.16 59.1538 24.3217 56.9197 27.8443 63.6405C27.8443 63.6405 30.1349 58.8531 36.7162 58.6434L30.7548 64.9538C30.7548 64.9538 41.9547 66.5552 41.5403 76.1019L31.4144 71.1658C31.4144 71.1658 34.7471 74.6681 34.4548 77.9931L27.1969 72.833C27.1969 72.833 25.3496 83.7435 26.286 96.233L21.8937 97.1686Z" fill="#2C2C2C"/>
<path d="M48.5238 98.1919C48.5238 98.1919 54.3258 73.8954 60.5758 62.3411C60.5758 62.3411 48.6733 66.9213 43.0579 71.6653C43.0579 71.6653 40.495 58.8016 57.3234 53.9984L48.5573 42.2465C48.5573 42.2465 59.637 41.6447 63.2639 52.2806C63.2639 52.2806 68.2517 43.8419 77.8962 48.7362L67.5131 57.7086C67.5131 57.7086 83.3899 61.0184 79.6824 75.9347L64.0528 64.1056C64.0528 64.1056 57.7574 84.1348 56.9335 95.4158L48.5238 98.1919Z" fill="#2C2C2C"/>
<path d="M-6.70996 157.165C-6.70996 157.165 17.3164 167.553 76.9245 160.085C144.09 151.671 270.693 95.8711 376.844 92.9941V55.9634C376.844 55.9634 258.418 61.9046 158.175 90.9365C57.9318 119.968 -6.70996 107.299 -6.70996 107.299V122.378C-6.70996 122.378 39.9798 130.967 109.295 117.038C178.61 103.109 230.51 87.2432 275.765 83.4792C275.765 83.4792 187.734 108.863 139.644 121.191C91.5551 133.518 57.0004 154.344 -6.70996 132.094V157.165Z" fill="#2C2C2C"/>
<path d="M364.956 33.6821C364.956 33.6821 256.908 51.6774 207.242 61.9095C157.576 72.1416 54.3599 85.5225 -6.70996 75.7224V81.2973C-6.70996 81.2973 54.147 90.3619 140.073 77.4217C219.255 65.497 329.648 41.6831 369.63 35.5406L364.956 33.6821Z" fill="#2C2C2C"/>
</g>
<defs>
<clipPath id="clip0_8157_130812">
<path d="M0 9.76731C0 4.63671 4.15917 0.477539 9.28977 0.477539H317.71C322.841 0.477539 327 4.63671 327 9.76731V111.955H0V9.76731Z" fill="white"/>
</clipPath>
</defs>
</svg>
