<svg width="327" height="113" viewBox="0 0 327 113" fill="none" xmlns="http://www.w3.org/2000/svg">
<g clip-path="url(#clip0_8157_131048)">
<path d="M0 10.2439C0 5.11327 4.15917 0.954102 9.28977 0.954102H317.71C322.841 0.954102 327 5.11327 327 10.2439V112.431H0V10.2439Z" fill="#181818"/>
<path d="M524.421 -20.2351L283.708 68.4374L307.869 7.22458L64.542 91.2422L202.942 -20.2351H524.421Z" fill="#2C2C2C"/>
<path d="M-95.1461 122.782L72.0237 61.2012L55.2446 103.712L224.23 45.3638L128.114 122.782H-95.1461Z" fill="#141414"/>
</g>
<defs>
<clipPath id="clip0_8157_131048">
<path d="M0 10.2439C0 5.11327 4.15917 0.954102 9.28977 0.954102H317.71C322.841 0.954102 327 5.11327 327 10.2439V112.431H0V10.2439Z" fill="white"/>
</clipPath>
</defs>
</svg>
