<svg width="327" height="112" viewBox="0 0 327 112" fill="none" xmlns="http://www.w3.org/2000/svg">
<g clip-path="url(#clip0_8157_130916)">
<path d="M0 9.28977C0 4.15917 4.15917 0 9.28977 0H317.71C322.841 0 327 4.15917 327 9.28977V111.477H0V9.28977Z" fill="#181818"/>
<path d="M300.759 71.0158C300.759 71.0158 353.686 94.7738 349.346 112.286C341.56 143.702 336.829 156.145 313.592 162.18C290.356 168.214 244.206 156.024 233.945 147.562C233.945 147.562 222.766 160.19 208.925 170.193C195.083 180.196 181.153 190.451 176.779 190.451C172.405 190.451 130.439 172.188 120.015 166.994C109.591 161.801 99.7257 159.898 102.93 156.693C106.135 153.489 128.157 137.579 128.157 137.579L-2.84033 83.7536L93.5362 -0.949707L300.759 71.0158Z" fill="#2C2C2C"/>
<path d="M208.307 67.7373V95.1675L213.17 97.3491V69.8769L208.307 67.7373Z" fill="#323232"/>
<path d="M213.17 97.3496L216.424 94.6751V71.3089L213.17 69.8774V97.3496Z" fill="#212121"/>
<path d="M283.968 97.3481V124.778L288.831 126.96V99.4877L283.968 97.3481Z" fill="#323232"/>
<path d="M288.831 126.96L292.084 124.286V100.92L288.831 99.4883V126.96Z" fill="#212121"/>
<path d="M313.865 76.5127V103.943L318.728 106.124V78.6523L313.865 76.5127Z" fill="#323232"/>
<path d="M318.729 106.125L321.982 103.45V80.0842L318.729 78.6528V106.125Z" fill="#212121"/>
<path d="M213.17 76.9261L216.424 74.8658V71.3079L213.17 69.8765V76.9261Z" fill="#151515"/>
<path d="M208.307 74.5141L213.17 76.9261V71.7L208.307 69.8765V74.5141Z" fill="#1C1C1C"/>
<path d="M288.831 109.818L292.084 107.757V104.199L288.831 102.768V109.818Z" fill="#151515"/>
<path d="M283.968 107.406L288.831 109.818V104.592L283.968 102.768V107.406Z" fill="#1C1C1C"/>
<path d="M318.728 87.3197L321.981 85.2594V80.0835L318.728 80.27V87.3197Z" fill="#151515"/>
<path d="M313.865 84.9076L318.728 87.3197V82.0936L313.865 80.27V84.9076Z" fill="#1C1C1C"/>
<path d="M204.65 68.8697V67.327L239.639 44.5703L323.226 78.8791V80.4218L289.327 106.125L204.65 68.8697Z" fill="#212121"/>
<path d="M204.65 67.3272L239.639 43.0278L323.226 78.8793L289.327 104.583L204.65 67.3272Z" fill="#363636"/>
<path d="M204.65 67.3276L229.242 50.249L289.327 104.583L204.65 67.3276Z" fill="#3E3E3E"/>
<path d="M263.506 64.6621L255.852 70.2412C255.254 70.6768 255.357 71.5969 256.036 71.89L271.866 78.7258C273.163 79.2859 274.664 79.0788 275.761 78.1881L282.161 72.9915L263.506 64.6621Z" fill="#222222"/>
<path d="M263.506 63.8354L255.852 69.4145C255.254 69.8501 255.357 70.7702 256.036 71.0634L271.866 77.8992C273.163 78.4593 274.664 78.2521 275.761 77.3615L282.161 72.1649L263.506 63.8354Z" fill="#2C2C2C"/>
<path d="M255.852 69.4152C255.254 69.8507 255.357 70.7709 256.036 71.064L271.866 77.8998C272.857 78.3277 273.965 78.3046 274.923 77.8744L260.323 66.1558L255.852 69.4152Z" fill="#414141"/>
<path d="M247.814 57.7392L296.448 80.0837L297.273 79.671V41.2671L247.814 19.689L246.988 20.1017L247.814 57.7392Z" fill="#2C2C2C"/>
<path d="M266.257 65.8887V68.5099L271.685 70.7783V67.4886L266.257 65.8887Z" fill="#111111"/>
<path d="M271.685 70.7778L273.203 69.6579V68.333H271.685V70.7778Z" fill="#1A1A1A"/>
<path d="M246.988 58.1517L296.448 80.0836V41.6797L246.988 20.1016V58.1517Z" fill="#202020"/>
<path d="M249.052 56.8099V23.2534L294.385 43.0311V76.9119L249.052 56.8099Z" fill="#373737"/>
<path d="M249.052 56.8099V23.2534L282.16 37.698L249.052 56.8099Z" fill="#414141"/>
</g>
<defs>
<clipPath id="clip0_8157_130916">
<path d="M0 9.28977C0 4.15917 4.15917 0 9.28977 0H317.71C322.841 0 327 4.15917 327 9.28977V111.477H0V9.28977Z" fill="white"/>
</clipPath>
</defs>
</svg>
