<svg width="64" height="64" viewBox="0 0 64 64" fill="none" xmlns="http://www.w3.org/2000/svg">
<g id="Frame">
<g id="Clip path group">
<mask id="mask0_4973_46483" style="mask-type:luminance" maskUnits="userSpaceOnUse" x="-1" y="0" width="65" height="64">
<g id="b">
<path id="Vector" d="M31.9998 64C49.6729 64 63.9998 49.6731 63.9998 32C63.9998 14.3269 49.6729 0 31.9998 0C14.3267 0 -0.000183105 14.3269 -0.000183105 32C-0.000183105 49.6731 14.3267 64 31.9998 64Z" fill="white"/>
</g>
</mask>
<g mask="url(#mask0_4973_46483)">
<g id="Group">
<g id="Group_2">
<path id="Vector_2" d="M1.96992 51.4842C-1.14776 51.7671 -3.47781 55.0094 -3.47781 55.0094C-3.47781 55.0094 -4.43179 56.2245 -5.33618 57.293C-5.59256 57.5959 -5.68742 58.0518 -5.42867 59.5025C-5.02433 61.7691 -3.39013 61.6857 -3.39013 61.6857C-3.39013 61.6857 -3.51943 61.8862 -2.98928 63.899C-2.35146 66.3206 -1.29484 66.0475 0.244161 66.06C0.376877 66.8133 0.56795 67.3004 0.808522 68.0026C1.15583 69.0162 2.64378 68.7939 4.2069 68.7671C7.85664 68.7045 9.28295 65.9769 9.18578 64.7577C9.17194 64.5839 9.7131 63.3323 9.89343 62.6519C10.8584 59.0111 5.10955 51.1993 1.96992 51.4842Z" fill="#FFA015"/>
<path id="Vector_3" d="M1.40087 61.1537C-0.186019 60.9745 -2.46818 61.0566 -3.90886 60.8939C-4.32448 60.847 -5.38274 59.2052 -5.49902 59.0703C-5.47918 59.204 -5.45631 59.3459 -5.42856 59.5014C-5.07485 61.4842 -3.78005 61.6686 -3.4613 61.6837C-3.44015 61.6814 -3.42022 61.6783 -3.39766 61.677C-1.76795 61.5806 0.318376 61.3445 1.40087 61.1537Z" fill="#FFC44D"/>
<path id="Vector_4" d="M17.3891 44.7773C17.3891 44.7773 11.891 47.9371 9.71275 48.7432C7.6838 49.4942 3.85389 50.1149 1.37874 51.1766C-1.91611 52.5899 -2.50277 53.6305 -2.3275 54.3264C-2.08753 55.2794 1.75925 53.8836 1.75925 53.8836C1.75925 53.8836 6.76782 54.7868 7.16469 56.8004C7.16469 56.8004 10.9882 60.9158 11.3241 63.6961C11.3241 63.6961 21.0263 58.0681 23.9654 49.1906L17.3891 44.7773Z" fill="#FFD768"/>
<path id="Vector_5" d="M23.9663 49.1938C16.6874 52.8205 15.0056 61.0872 8.75164 66.3174C8.74877 66.3202 8.74591 66.3202 8.74591 66.3202C8.95315 65.8346 8.88133 65.25 8.77816 64.7055C8.56247 63.5671 8.79713 62.7428 7.74377 63.0285C8.08978 62.6723 7.67059 61.5374 7.5931 60.9411C7.48965 60.145 7.15815 59.3145 6.57722 59.2448C5.89159 59.1626 5.35661 59.3073 5.35661 59.3073C6.22048 58.4834 6.04947 57.9295 5.92005 57.2233C5.66762 55.8458 5.52504 55.6896 4.38089 55.527C3.3184 55.3759 2.62528 54.3471 2.24005 54.2558C2.81581 54.2848 4.05285 54.7232 5.64423 54.7323C5.73554 54.7323 5.82399 54.7295 5.9153 54.7295C6.34905 54.718 6.80558 54.6724 7.28209 54.5811C8.50338 54.3471 8.21682 54.7211 9.13215 53.3527C11.7574 49.4279 19.3643 46.9648 19.3643 46.9648L23.9663 49.1938Z" fill="#2E3240"/>
<path id="Vector_6" d="M6.01758 58.4844C6.01758 58.4844 5.0174 60.4268 0.546265 61.2873C0.546265 61.2873 4.48011 61.3772 6.22122 59.2218L6.01758 58.4844Z" fill="#FF8415"/>
<path id="Vector_7" d="M7.52924 63.1788C7.52924 63.1788 6.83788 65.2381 2.80878 65.8385C2.80878 65.8385 7.08186 65.9585 8.46023 62.9609L7.52924 63.1788Z" fill="#FF8415"/>
<path id="Vector_8" d="M23.9663 49.1935C17.1665 52.5805 15.2519 60.0166 9.93016 65.247C9.55635 65.6151 9.16257 65.9718 8.75169 66.317C8.74883 66.3199 8.74597 66.3199 8.74597 66.3199C8.95429 65.8348 8.8801 65.2498 8.77734 64.7048C8.56334 63.5663 8.73828 62.7531 7.68536 63.0384C8.10692 62.6634 7.67021 61.5375 7.59315 60.9411C7.49042 60.145 7.15657 59.3147 6.57733 59.2433C5.89249 59.1634 5.35604 59.3061 5.35604 59.3061C6.22064 58.4843 6.04944 57.9307 5.92103 57.2231C5.88107 57.0005 5.84111 56.8093 5.80118 56.6438V56.6409C5.80118 56.6381 5.80118 56.6352 5.79834 56.6324C5.76981 56.5182 5.74127 56.4155 5.70987 56.327V56.3242C5.55292 55.8876 5.33606 55.7193 4.86525 55.6137C4.72828 55.5823 4.56847 55.5566 4.38015 55.5281C4.30882 55.5167 4.23749 55.5024 4.16899 55.4824C3.2245 55.2399 2.5996 54.341 2.24005 54.2554C2.74796 54.2811 3.76951 54.6264 5.09636 54.712C5.27326 54.7234 5.45591 54.732 5.64423 54.732C5.73554 54.732 5.82399 54.7291 5.9153 54.7291C6.18638 54.7234 6.46318 54.7006 6.75137 54.6635C6.92543 54.6435 7.10233 54.615 7.28209 54.5807C8.50338 54.3468 8.21519 54.7206 9.13114 53.3537C11.7563 49.4274 19.3636 46.9648 19.3636 46.9648L23.9663 49.1935Z" fill="#FF8415"/>
<path id="Vector_9" d="M42.7108 8.89413C39.5652 7.39021 36.0217 6.54688 32.27 6.54688C25.6899 6.54688 19.7416 9.14746 15.464 13.3417C15.4609 13.3449 15.4577 13.3481 15.4546 13.3546C11.3436 17.3821 8.78151 22.8911 8.68848 28.9741C9.2623 31.658 10.3078 34.1528 11.7283 36.3526C11.9882 36.7535 12.2576 37.1413 12.5395 37.5231C13.7388 39.139 15.153 40.5692 16.7372 41.7622C16.9101 41.8938 17.0833 42.0187 17.2597 42.1437C17.2791 42.1566 17.2982 42.1725 17.3176 42.1854C17.5325 42.336 17.7473 42.4836 17.9685 42.6248C18.2667 42.814 18.568 42.9966 18.8759 43.1698C19.0331 43.2629 19.1935 43.3496 19.357 43.4361C20.7038 44.1574 22.1371 44.7252 23.6377 45.1099C24.494 45.331 25.3726 45.4948 26.264 45.5973C26.3314 45.6038 26.3956 45.6132 26.4629 45.6167C27.1138 45.6871 27.7744 45.7222 28.4412 45.7222C29.8266 45.7222 31.1797 45.575 32.4848 45.2894C33.6234 45.0457 34.7297 44.6995 35.7877 44.257C36.7722 43.8529 37.7149 43.3687 38.6161 42.8109C41.1685 41.2297 43.3682 39.0751 45.0517 36.5096C45.1094 36.42 45.1704 36.3301 45.2218 36.2402C45.3145 36.1055 45.3981 35.9677 45.478 35.8299C45.8182 35.2752 46.1323 34.7012 46.4208 34.1111C46.8922 33.1523 47.2931 32.1519 47.6267 31.1161C48.3192 28.9388 48.6976 26.6076 48.6976 24.1834C48.6976 18.2062 46.408 12.7966 42.7108 8.89413ZM21.6977 10.847C23.7211 10.0357 25.7253 10.2922 26.1807 11.421C26.6327 12.5497 25.3598 14.1209 23.3364 14.9323C21.313 15.7435 19.3056 15.4902 18.8533 14.3615C18.4014 13.2327 19.6743 11.6615 21.6977 10.847Z" fill="#FFC44D"/>
<path id="Vector_10" d="M23.3377 14.9299C21.3143 15.7412 19.3069 15.4879 18.8546 14.3592C18.4027 13.2304 19.6756 11.6592 21.699 10.8447C23.7223 10.0334 25.7266 10.2899 26.1817 11.4187C26.634 12.5474 25.3611 14.1187 23.3377 14.9299Z" fill="#FFD768"/>
<path id="Vector_11" d="M17.9701 42.6233C17.5244 42.9857 17.0981 43.3641 16.6843 43.7553C16.2098 44.201 15.7544 44.6627 15.3215 45.1373C15.1643 44.9834 15.0073 44.8262 14.8564 44.6627C14.7411 44.544 14.629 44.4253 14.5199 44.3035C10.8898 40.3018 8.68689 35.0526 8.68689 29.3125C8.68689 29.2003 8.68689 29.0849 8.69002 28.9727C9.26414 31.6566 10.3093 34.1514 11.7301 36.3512C13.0863 38.4548 14.7827 40.289 16.7388 41.7608C16.912 41.8923 17.0852 42.0204 17.2615 42.1423C17.2807 42.1551 17.3001 42.1711 17.3192 42.1839C17.5341 42.3346 17.7489 42.4821 17.9701 42.6233Z" fill="#FF8415"/>
<path id="Vector_12" d="M50.7789 46.596C50.1728 49.8378 47.835 52.637 44.497 54.4778C44.2981 54.5899 44.0961 54.6958 43.8909 54.7985C43.6153 54.9363 43.3296 55.0679 43.0411 55.1929H43.038C42.358 55.488 41.6495 55.7476 40.9119 55.9656C40.479 56.094 40.0364 56.2062 39.5845 56.3089C38.0131 56.655 36.3361 56.8282 34.5981 56.7897C33.4727 56.764 32.3789 56.655 31.3209 56.4724C30.192 56.2735 29.1114 55.9882 28.0885 55.6226C28.0628 55.6129 28.0374 55.6067 28.0149 55.597C25.6482 54.744 23.6026 53.4774 22.0377 51.9254C21.6368 51.5276 21.2682 51.1107 20.9315 50.6779C20.6555 50.3189 20.4024 49.95 20.1747 49.5684C19.7801 48.911 19.4596 48.2216 19.2285 47.5097C19.2062 47.4489 19.1837 47.3847 19.1646 47.3205C19.0011 46.7755 18.8824 46.2173 18.8182 45.6498C19.4722 46.1628 20.1553 46.6439 20.8641 47.0834C20.9825 47.1601 21.1046 47.234 21.2265 47.3076C21.3192 47.4457 21.4188 47.5867 21.5181 47.7214C21.608 47.8432 21.6979 47.9651 21.794 48.0838C21.8197 48.1189 21.8451 48.1511 21.8774 48.1862C21.9447 48.2761 22.0152 48.3628 22.0891 48.4493C22.1436 48.5135 22.1981 48.5808 22.2557 48.6448C22.3294 48.7315 22.4033 48.8179 22.4803 48.9013C22.4963 48.9175 22.5123 48.9367 22.5283 48.9526C22.6404 49.0779 22.7591 49.2029 22.8778 49.3247C22.9677 49.4177 23.0573 49.5073 23.1503 49.5972C23.2145 49.6614 23.2787 49.7256 23.3461 49.7833C23.4519 49.8892 23.5609 49.9885 23.6731 50.0846C23.7918 50.1936 23.9136 50.2964 24.0386 50.3991C24.1091 50.4598 24.1764 50.5175 24.2503 50.572C24.369 50.6681 24.4874 50.7612 24.6061 50.851C24.7762 50.9794 24.946 51.1044 25.1223 51.2263C25.2955 51.3481 25.4753 51.4668 25.6548 51.5821C26.014 51.8129 26.3858 52.0312 26.7673 52.2329C26.9117 52.31 27.0592 52.387 27.2099 52.4575C27.2773 52.4929 27.3477 52.5249 27.4151 52.5571C27.5883 52.6404 27.7615 52.7206 27.9378 52.7943C28.1367 52.881 28.3387 52.9643 28.5439 53.0411C28.6946 53.099 28.8486 53.1566 29.0025 53.208C29.0056 53.208 29.0122 53.2143 29.0184 53.2143C29.1371 53.2593 29.2558 53.2976 29.3745 53.333C29.4835 53.3715 29.5925 53.4035 29.7015 53.4357C29.9195 53.5031 30.1407 53.5638 30.359 53.6183C30.4263 53.6377 30.4937 53.6537 30.561 53.6697C30.6284 53.6888 30.6957 53.7016 30.7631 53.7179C30.8721 53.7433 30.9811 53.7658 31.0901 53.7884C31.1189 53.7947 31.1445 53.8012 31.1702 53.8044C31.3306 53.8397 31.4941 53.8686 31.6545 53.8942C31.7986 53.9199 31.9461 53.9453 32.0905 53.9647C32.1096 53.9679 32.1259 53.971 32.1418 53.971H32.1481C32.3535 54.0032 32.5618 54.0289 32.7702 54.0481C32.8826 54.0609 32.9979 54.0737 33.1134 54.08C33.3412 54.0994 33.572 54.1154 33.8028 54.1251H33.8382C34.0593 54.1345 34.2805 54.1379 34.5019 54.1379C34.6845 54.1379 34.8674 54.1345 35.0469 54.1282C35.0951 54.1282 35.1431 54.1251 35.1913 54.122C35.5183 54.1123 35.8422 54.0866 36.1629 54.0546C36.2174 54.0546 36.2719 54.0449 36.3264 54.0383C36.4354 54.0289 36.5413 54.0161 36.644 53.9998H36.6569C36.692 53.9967 36.7242 53.9904 36.7593 53.9872C36.8908 53.9678 37.0224 53.9487 37.1505 53.9262C37.2082 53.9199 37.2692 53.9102 37.3269 53.8974C37.4168 53.8845 37.5066 53.8651 37.5962 53.8492C37.6861 53.8363 37.776 53.8172 37.8624 53.7981C37.901 53.7884 37.9395 53.7818 37.9777 53.7755C38.0933 53.753 38.2089 53.7273 38.321 53.6985C38.4557 53.6697 38.5903 53.6343 38.725 53.5992C38.8597 53.5638 38.9913 53.5287 39.1225 53.4902C39.3919 53.4131 39.655 53.3298 39.9178 53.2368C39.998 53.2111 40.0782 53.1823 40.1583 53.1535C40.2802 53.1118 40.4055 53.0636 40.5239 53.0157C40.5721 52.9994 40.6169 52.9803 40.6617 52.9609C40.9824 52.8359 41.2969 52.6981 41.6044 52.5506C41.6655 52.5217 41.7263 52.4929 41.7873 52.4607C41.9026 52.403 42.0182 52.3454 42.1303 52.2877C42.249 52.2267 42.3677 52.1625 42.4833 52.0985C42.5281 52.0729 42.5698 52.0503 42.6146 52.0246C42.743 51.951 42.8711 51.8771 42.9964 51.8001C43.1054 51.7362 43.2109 51.672 43.3137 51.6015C43.3585 51.5789 43.4004 51.5501 43.4452 51.5179C43.49 51.4925 43.5351 51.4602 43.5768 51.4314C43.5927 51.4252 43.6119 51.4123 43.6278 51.3995C43.7017 51.3513 43.7788 51.2999 43.8524 51.2454C43.8652 51.2391 43.8749 51.2326 43.8878 51.2197C43.9454 51.1846 44.0031 51.143 44.061 51.0979C44.1572 51.0305 44.2565 50.9569 44.3526 50.883C44.4265 50.8254 44.5001 50.7709 44.5741 50.7132C44.7889 50.5463 44.9941 50.3765 45.1993 50.197C45.2218 50.1776 45.2472 50.1585 45.2698 50.136C45.3788 50.0398 45.4878 49.9405 45.5968 49.8378C45.6321 49.8058 45.6707 49.7736 45.7061 49.735C45.7283 49.7159 45.7509 49.6965 45.77 49.6743C45.9047 49.5458 46.0331 49.4177 46.1612 49.283C46.3216 49.1195 46.4756 48.9526 46.6232 48.7828C46.7579 48.6353 46.886 48.4812 47.0078 48.3274C47.0592 48.2697 47.1071 48.2087 47.1522 48.1479C47.2099 48.0806 47.2612 48.0098 47.3126 47.9425C47.3511 47.8945 47.3893 47.8432 47.4278 47.7918C47.4761 47.7276 47.5209 47.6668 47.5625 47.6058C47.6139 47.5353 47.6653 47.4648 47.7163 47.3912C48.1172 46.8105 48.4765 46.2013 48.7906 45.5664H48.7938C49.4609 45.8808 50.1246 46.2239 50.7789 46.596Z" fill="#FFA015"/>
<path id="Vector_13" d="M55.8591 29.3183C55.8591 32.1466 55.3238 34.8562 54.3456 37.3541C54.0634 38.0851 53.7395 38.8002 53.3772 39.4899C53.3292 39.5892 53.2779 39.6854 53.2233 39.7847C52.5371 41.0641 51.729 42.2732 50.8119 43.3923C50.1898 44.1587 49.5164 44.8832 48.7951 45.5632C48.7951 45.5632 48.7939 45.5643 48.7916 45.5663C48.7916 45.5663 48.7916 45.5695 48.7885 45.5695C48.6378 45.6882 48.4872 45.8069 48.3365 45.919C48.1217 46.0825 47.9034 46.2397 47.6822 46.3935C47.5316 46.4994 47.3809 46.6053 47.2268 46.708C46.839 46.9676 46.4412 47.2179 46.0372 47.4519C45.9153 47.5255 45.7935 47.5962 45.6685 47.6636C45.4505 47.7886 45.2291 47.9073 45.008 48.0225C44.8219 48.1221 44.6327 48.2183 44.4435 48.3079C44.2606 48.3978 44.0812 48.4843 43.8951 48.5679C43.7187 48.648 43.5424 48.7282 43.3629 48.805C43.196 48.8789 43.0294 48.9462 42.8596 49.0136C42.776 49.0487 42.6926 49.0809 42.6062 49.1129C42.4972 49.1577 42.3882 49.1993 42.2789 49.2379C42.0963 49.3052 41.9134 49.3725 41.7276 49.4368C41.5416 49.5009 41.3555 49.5617 41.1695 49.6228C40.9834 49.6804 40.7943 49.7381 40.6051 49.7926C40.3391 49.8728 40.0698 49.9467 39.8004 50.014C39.5599 50.0748 39.3162 50.1327 39.0725 50.1872C39.0083 50.2032 38.9409 50.216 38.8736 50.232C38.758 50.2546 38.6396 50.2802 38.5209 50.3025C38.4598 50.3153 38.3991 50.3282 38.3349 50.3379C38.1169 50.3796 37.8957 50.4181 37.6743 50.4532C37.6295 50.4629 37.5844 50.4694 37.5396 50.4757C37.3313 50.5076 37.1196 50.5368 36.9078 50.5656C36.7603 50.5847 36.6128 50.6041 36.4653 50.6169C36.318 50.6361 36.1705 50.6489 36.023 50.6618C35.6797 50.6937 35.3336 50.7194 34.9841 50.7354C34.8077 50.7451 34.6311 50.7516 34.4548 50.7548C34.3586 50.761 34.2656 50.7611 34.1694 50.7611C34.0284 50.7676 33.8906 50.7676 33.7494 50.7676C33.5314 50.7676 33.3134 50.7642 33.0985 50.7579C33.0311 50.7579 32.9669 50.7548 32.9027 50.7516C32.7552 50.7482 32.6111 50.7419 32.4667 50.7322C32.457 50.7354 32.4539 50.7354 32.4442 50.7322H32.4185C32.332 50.726 32.2487 50.7225 32.162 50.7163C31.803 50.6937 31.4469 50.6649 31.0942 50.6232C30.9595 50.6104 30.8249 50.5944 30.6901 50.575C30.671 50.575 30.655 50.575 30.6388 50.5688C30.5652 50.5625 30.4947 50.5528 30.4242 50.5399C30.408 50.5399 30.392 50.5399 30.376 50.5334C30.2222 50.5143 30.0681 50.4917 29.9143 50.466C29.7988 50.45 29.6835 50.4309 29.5679 50.4115C29.4749 50.3956 29.3819 50.3796 29.2889 50.3605C29.1704 50.341 29.0549 50.3185 28.9362 50.2931C28.8497 50.2768 28.763 50.2609 28.6734 50.2386C28.67 50.2417 28.6668 50.2383 28.6606 50.2352C28.4585 50.1935 28.2565 50.1487 28.0545 50.1005C27.8525 50.0526 27.6536 50.0012 27.4547 49.9498C27.2783 49.905 27.1054 49.8568 26.9322 49.8055C26.6691 49.7287 26.4126 49.6485 26.1561 49.5652C25.97 49.5041 25.7843 49.4434 25.6014 49.376C25.4282 49.3149 25.2584 49.2542 25.0883 49.1868C24.9216 49.1226 24.7547 49.0584 24.5912 48.9911C24.5656 48.9813 24.5368 48.9719 24.511 48.9557C24.5048 48.9591 24.5013 48.9557 24.4951 48.9494C24.3219 48.8789 24.1487 48.805 23.9757 48.7283H23.9723C23.8921 48.696 23.812 48.6609 23.7352 48.6224C23.655 48.587 23.5748 48.5516 23.4946 48.5134C23.4849 48.5134 23.4787 48.5068 23.4721 48.5037C23.3183 48.4332 23.1708 48.3624 23.0201 48.2888C22.8147 48.1895 22.6126 48.0868 22.4106 47.9809C22.2089 47.8751 22.01 47.7661 21.8142 47.6539C21.6156 47.5418 21.4199 47.4293 21.2276 47.3106C20.3872 46.8073 19.5857 46.2526 18.8193 45.6531C18.0691 45.0661 17.3572 44.4312 16.6869 43.761C17.1006 43.3697 17.527 42.9914 17.9727 42.629C18.2709 42.8182 18.5725 43.0011 18.8804 43.1743C19.0373 43.2673 19.1977 43.3538 19.3612 43.4403C20.708 44.1619 22.1413 44.7294 23.6422 45.1144C24.4983 45.3355 25.3768 45.499 26.2683 45.6017C26.9833 45.6851 27.7113 45.7267 28.4457 45.7267C31.0367 45.7267 33.5155 45.2071 35.7922 44.2612C36.7767 43.8571 37.7192 43.3729 38.6203 42.815C41.1727 41.2342 43.3727 39.0793 45.056 36.514C45.1139 36.4241 45.1747 36.3345 45.226 36.2447C45.3191 36.11 45.4024 35.9722 45.4826 35.8343C45.8224 35.2794 46.1369 34.7055 46.4253 34.1154C46.8967 33.1567 47.2976 32.1562 47.6309 31.1205C48.3237 28.9431 48.7021 26.6119 48.7021 24.1877C48.7021 18.2105 46.4125 12.8009 42.7153 8.89844C50.5075 12.6149 55.8626 20.3622 55.8626 29.3183H55.8591Z" fill="#FFA015"/>
<path id="Vector_14" d="M60.5593 47.7438C60.5145 49.0299 60.274 53.0989 58.94 53.0572C57.808 51.8228 56.5511 50.6492 55.182 49.5589C54.5822 49.0813 53.973 48.629 53.3541 48.2024C54.5791 47.5484 55.9804 47.1797 57.465 47.1797C58.5553 47.1797 59.6005 47.3817 60.5628 47.7438L60.5593 47.7438Z" fill="#FFC44D"/>
<path id="Vector_15" d="M62.9148 58.2087C62.9148 58.276 62.9148 58.3433 62.9116 58.4076C61.8245 56.5445 60.497 54.7423 58.9385 53.0556C60.2725 53.0973 60.513 49.0279 60.5581 47.7422C60.5612 47.7422 60.5644 47.7453 60.5675 47.7453C62.0813 50.7372 62.9116 54.2389 62.9116 58.2087H62.9148Z" fill="#FFA015"/>
<path id="Vector_16" d="M48.7885 45.5664C46.5152 50.2064 41.7467 53.3778 36.6548 53.9998C35.7248 54.1185 34.7755 54.1636 33.8361 54.1251C33.8361 54.1251 33.8327 54.1219 33.8296 54.1251C28.8754 53.955 24.014 51.4345 21.2244 47.3076C22.2697 47.9425 23.3791 48.4941 24.5079 48.9526C24.5336 48.9686 24.5655 48.9814 24.5912 48.988C25.9092 49.5267 27.2817 49.9468 28.6734 50.2352C35.6318 51.7327 43.2186 50.0269 48.7885 45.5664Z" fill="#FF8415"/>
<path id="Vector_17" d="M62.9056 58.4088C61.8185 56.5458 60.491 54.7438 58.9325 53.0572C57.8008 51.8225 56.5436 50.6489 55.1745 49.5586C54.5747 49.0809 53.9654 48.6286 53.3466 48.2023C52.5034 47.6185 51.6439 47.0832 50.7716 46.5958C50.2136 49.5805 48.1855 52.1882 45.2626 54.0197C44.396 54.496 41.9499 55.7432 38.9408 56.4385C37.557 56.6972 36.0989 56.8229 34.5948 56.7898C33.4694 56.7641 32.376 56.6551 31.3176 56.4722C30.1891 56.2733 29.1082 55.988 28.0855 55.6225C28.0598 55.6128 28.0341 55.6065 28.0116 55.5968C25.6452 54.7439 23.5993 53.4772 22.0344 51.9252C21.6335 51.5275 21.2648 51.1106 20.9281 50.6777C20.6525 50.3188 20.3991 49.9498 20.1714 49.5683C19.7771 48.9109 19.4563 48.2215 19.2255 47.5095C19.203 47.4487 19.1804 47.3846 19.1613 47.3203C18.9978 46.7753 18.8791 46.2175 18.8149 45.6499C18.0647 45.063 17.3528 44.4281 16.6825 43.7578C16.208 44.2035 15.7525 44.6655 15.3197 45.14C15.2589 45.2042 15.201 45.2716 15.1402 45.3355C15.0472 45.4414 14.951 45.5504 14.8611 45.6594C14.7233 45.8197 14.5886 45.9801 14.4539 46.1436C14.3255 46.3008 14.2005 46.4612 14.0756 46.6215C13.9634 46.7656 13.851 46.9132 13.742 47.0607C13.6587 47.1731 13.5785 47.2884 13.4983 47.404C13.0686 47.9868 12.4291 49.0566 12.0842 49.6933L12.0779 49.6998C11.6579 50.4885 11.2889 51.3032 10.9813 52.137C10.9778 52.1518 10.9745 52.1671 10.971 52.182C10.9746 52.167 10.9769 52.1517 10.9805 52.1367C10.9645 52.1752 10.9516 52.2169 10.9357 52.2554C10.9334 52.2597 10.9325 52.2619 10.9325 52.2619C10.2109 54.2437 9.82281 56.3344 9.82281 58.4956C9.82281 60.1181 10.0185 61.6989 10.3938 63.2221C12.4172 71.4728 19.6256 78.0755 28.9472 80.3808C31.2688 80.9549 33.7253 81.2628 36.2618 81.2628C48.8412 81.2628 59.5257 73.4865 62.2419 63.2863C62.277 63.1582 62.3093 63.0298 62.3412 62.9017C62.4727 62.3758 62.5786 61.8402 62.6651 61.3015C62.8189 60.3524 62.9025 59.3871 62.9087 58.4089L62.9056 58.4088Z" fill="#FFA015"/>
<path id="Vector_18" d="M44.9133 54.2387C44.8858 55.6636 45.7042 63.4173 41.3402 68.4662C37.0755 73.4004 28.6941 75.2978 20.0734 71.6075C16.2066 69.9523 11.7602 64.1728 10.7934 58.688C10.7648 58.6617 10.5432 57.29 10.5432 55.8662C10.5432 52.9868 11.0794 51.5772 12.0792 49.6999L12.0854 49.6933C13.2706 47.5063 14.7005 45.6207 16.6838 43.7578C17.3541 44.4281 18.066 45.063 18.8162 45.65C19.5093 51.7767 25.705 55.8337 32.6052 56.637C35.363 56.9581 40.2694 56.7948 44.9133 54.2387Z" fill="#FFC44D"/>
<g id="Group_3">
<path id="Vector_19" d="M43.0416 55.1877C43.0416 55.1877 44.8374 59.2059 40.3354 62.265C40.3354 62.265 40.114 60.3734 39.3821 60.1366C38.5357 59.8628 36.9873 60.0208 35.0949 60.2629C33.9616 60.4079 27.1189 61.4073 26.4392 62.1218C25.945 62.6414 25.9898 63.1084 26.1418 64.9509C26.249 66.2503 26.1967 66.5204 26.544 67.0798C27.1234 68.0129 28.077 68.3749 29.0301 68.8198C30.2483 69.3886 31.4683 69.7261 32.1211 70.0327C32.1211 70.0327 30.3895 70.1792 27.2909 69.4429C27.2909 69.4429 27.3241 70.0904 27.7507 71.19C28.2039 72.3576 28.3515 72.5373 28.5891 72.7124C29.0102 73.0226 29.5908 73.0471 30.3372 73.1767C31.0836 73.3063 31.958 73.351 33.1581 73.4662C33.1581 73.4662 31.1911 73.8912 29.426 73.9801C29.426 73.9801 29.5372 74.3084 29.8202 74.7161C30.2152 75.2854 30.2501 75.4597 31.377 75.5875C32.9681 75.7679 35.4151 76.1551 39.2853 75.4903C51.4805 73.3953 55.5724 61.374 48.2628 51.5156C48.2628 51.5156 47.3387 52.2793 45.813 53.4735C44.0587 54.8465 43.0416 55.1877 43.0416 55.1877Z" fill="#FFC44D"/>
<path id="Vector_20" d="M48.403 51.3594C48.403 51.3594 45.4627 53.7443 45.3969 53.7929C45.833 54.8677 46.0976 59.0697 44.3505 62.9461C43.2901 65.299 42.8981 65.369 39.777 66.0615C38.6326 66.3153 35.0074 67.1103 32.7588 67.4228C33.4698 68.1637 34.2462 70.2534 34.2772 73.1971C34.2864 74.072 34.1826 74.969 34.0704 75.8532C35.5298 75.961 37.3601 75.8412 39.2855 75.4933C43.5659 74.7198 47.1684 73.0037 49.6574 69.2913C52.7447 64.6867 53.1916 58.1963 48.403 51.3594Z" fill="#FFA015"/>
</g>
<path id="Vector_21" d="M9.59479 52.6199C8.55815 54.0702 7.98836 55.7866 7.38813 57.2264C6.86495 58.4814 2.24014 57.5258 2.63586 56.0231C3.4369 52.9813 4.50211 51.6939 4.50211 51.6939C4.50211 51.6939 10.6314 51.1696 9.59479 52.6199Z" fill="#FFD768"/>
<g id="Group_4">
<path id="Vector_22" d="M32.8247 40.9731C31.1868 40.6535 29.8599 39.0613 29.8599 37.4263V34.784C29.8599 33.1461 31.1868 32.0932 32.8247 32.4299C34.4625 32.7666 35.7923 34.3617 35.7923 35.9853V38.6076C35.7923 40.2341 34.4654 41.2927 32.8247 40.9703V40.9731Z" fill="#4D1E38"/>
<path id="Vector_23" d="M13.7731 33.7612C12.2779 33.4416 11.0709 31.9692 11.0709 30.4741V27.3096C11.0709 25.8144 12.2807 24.8785 13.7731 25.218C15.2683 25.5547 16.4753 27.0328 16.4753 28.5138V31.6554C16.4753 33.1363 15.2654 34.0808 13.7731 33.7584V33.7612Z" fill="#4D1E38"/>
<path id="Vector_24" d="M17.8886 29.1504L13.2375 22.7843C13.0063 22.4676 12.5612 22.3963 12.2416 22.6302L12.1817 22.673C11.865 22.9042 11.7937 23.3493 12.0276 23.6689L16.6816 30.035C16.9128 30.3517 17.3579 30.423 17.6775 30.1891L17.7374 30.1463C18.0541 29.9151 18.1254 29.47 17.8915 29.1504L17.8886 29.1504Z" fill="#4D1E38"/>
<path id="Vector_25" d="M28.597 35.5079L36.3584 31.339C36.7208 31.1449 36.8577 30.6913 36.6637 30.326C36.4697 29.9607 36.016 29.8237 35.6507 30.0178L27.8893 34.1867C27.527 34.3808 27.39 34.8345 27.584 35.1997C27.7781 35.565 28.2317 35.7019 28.597 35.5079Z" fill="#4D1E38"/>
</g>
<g id="Group_5">
<path id="Vector_26" d="M30.6887 41.6142V44.3449C30.6887 44.6103 30.5118 44.8386 30.2578 44.9071L22.9016 47.421L19.9226 48.4339L18.2191 49.016C17.1376 49.3841 15.9534 49.2985 14.9348 48.7792L7.03637 44.7558L6.29449 44.3792C6.08905 44.2736 5.9749 44.0881 5.95492 43.8855C5.94922 43.8627 5.94922 43.8398 5.94922 43.817V41.0977L20.8614 45.3921H20.8642L27.587 43.0694L30.4775 41.3659L30.6887 41.617V41.6142Z" fill="#E64D13"/>
<path id="Vector_27" d="M22.9022 44.7117L18.2197 46.3068C17.1382 46.6749 15.954 46.5893 14.9354 46.0728L6.2951 41.6728C5.85566 41.4502 5.83285 40.8339 6.24945 40.5742L11.2173 37.5039L22.9022 44.7146V44.7117Z" fill="#F6762E"/>
<path id="Vector_28" d="M30.3693 41.1275C30.8459 41.3672 30.7717 42.072 30.2552 42.2061L18.185 46.3151C18.0852 46.3351 17.9796 46.3465 17.874 46.3465C17.6429 46.3465 17.4289 46.3008 17.2291 46.2181L17.0636 46.1353L8.16371 41.5983L7.94113 41.4842C7.45889 41.1989 7.13361 40.671 7.13361 40.0632V40.0347C7.2135 39.9605 7.29911 39.8977 7.38756 39.8463L7.49885 39.7864L7.55307 39.7607L14.7695 35.3008L15.7111 34.7187L15.9051 34.6159H15.9137C16.0963 34.5389 16.2904 34.4961 16.4987 34.4961C16.707 34.4961 16.8981 34.5361 17.0751 34.6102L17.2663 34.7072L30.3636 41.1275L30.3693 41.1275Z" fill="#F6762E"/>
<path id="Vector_29" d="M18.7989 46.1074L18.2197 46.3043C17.1382 46.6724 15.954 46.5868 14.9354 46.0703L6.2951 41.6674C5.85566 41.4449 5.83285 40.8285 6.24945 40.5689L6.63181 40.332C6.58329 40.6031 6.70314 40.897 6.98277 41.0397L16.0853 45.6765C16.9271 46.1074 17.8773 46.253 18.7989 46.1074Z" fill="#F89646"/>
<path id="Vector_30" d="M25.0163 38.5079L12.2156 43.7126L8.02106 41.584L20.7428 36.4141L25.0163 38.5079Z" fill="#F89646"/>
<path id="Vector_31" d="M15.4448 38.6927C15.8157 38.6927 16.1153 38.3931 16.1153 38.0221C16.1153 37.6512 15.8157 37.3516 15.4448 37.3516C15.0738 37.3516 14.7742 37.6512 14.7742 38.0221C14.7742 38.3931 15.0738 38.6927 15.4448 38.6927Z" fill="#D74C21"/>
<path id="Vector_32" d="M19.6573 41.1731C20.0282 41.1731 20.3278 40.8735 20.3278 40.5026C20.3278 40.1316 20.0282 39.832 19.6573 39.832C19.2863 39.832 18.9867 40.1316 18.9867 40.5026C18.9867 40.8735 19.2863 41.1731 19.6573 41.1731Z" fill="#D74C21"/>
</g>
</g>
</g>
</g>
</g>
</g>
</svg>
