<svg width="328" height="160" viewBox="0 0 328 160" fill="none" xmlns="http://www.w3.org/2000/svg">
<rect width="328" height="160" rx="15" fill="#151515"/>
<g opacity="0.8">
<path d="M239.456 81.9272C238.478 94.875 222.03 105.383 202.466 105.84C186.326 106.217 172.591 98.9717 167.526 89.3312L167.023 88.2825H167.015C166.991 88.2337 166.971 88.1774 166.947 88.1261L166.913 88.0552H166.915C166.243 86.5128 165.791 84.9093 165.578 83.2594C165.874 86.9455 167.152 91.3722 168.433 93.7774C173.578 103.445 185.607 110.091 202.468 110.091C219.329 110.091 233.656 101.191 237.655 90.634C239.241 86.4444 239.488 81.8319 239.456 81.9272Z" fill="#FF00F7"/>
</g>
<path opacity="0.7" d="M218.409 58.8457L214.288 66.3523C210.92 64.8197 206.852 63.9226 202.467 63.9226C190.871 63.9226 181.472 70.1923 181.472 77.9287C181.472 79.1338 181.7 80.3022 182.13 81.4168L167.014 88.2976C166.611 87.4079 166.281 86.4962 166.029 85.5673C165.64 84.1325 165.438 82.6561 165.438 81.1479C165.438 67.506 182.015 56.4453 202.467 56.4453C207.739 56.4453 212.758 57.1811 217.297 58.5059C217.671 58.6159 218.042 58.7283 218.409 58.8457Z" fill="#FF24EE"/>
<path opacity="0.6" d="M166.028 85.5651C165.977 85.3794 165.931 85.1936 165.887 85.0078C165.933 85.1936 165.975 85.3794 166.028 85.5651Z" fill="#FFDEF1"/>
<path opacity="0.2" d="M217.297 58.5059C217.131 58.787 216.962 59.0632 216.793 59.3419C212.543 58.0879 207.945 57.5819 203.195 57.6528C178.708 58.0146 165.958 69.6106 165.438 81.1479C165.438 67.506 182.015 56.4453 202.467 56.4453C207.739 56.4453 212.758 57.1811 217.297 58.5059Z" fill="#FFDEF1"/>
<g opacity="0.7">
<path opacity="0.7" d="M214.082 64.4141C210.717 62.8815 206.647 61.9844 202.264 61.9844C190.668 61.9844 181.27 68.2541 181.27 75.9905C181.27 76.6529 181.34 77.3056 181.475 77.9435C181.475 77.9387 181.475 77.9338 181.475 77.9264C181.475 70.1901 190.876 63.9203 202.469 63.9203C206.852 63.9203 210.922 64.8174 214.288 66.35L214.082 64.4141Z" fill="#D921CA"/>
</g>
<path d="M179.953 42.5498L186.678 40.125L183.59 44.4246L179.953 42.5498Z" fill="#202740"/>
<path d="M209.98 35.4023C207.286 34.1142 204.25 33.3906 201.036 33.3906C195.399 33.3906 190.303 35.6174 186.639 39.2106C186.636 39.2131 186.634 39.2155 186.631 39.2204C183.109 42.6694 180.914 47.3894 180.836 52.6008C181.327 54.9009 182.224 57.0373 183.439 58.9219C183.662 59.2641 183.891 59.5965 184.133 59.9241C185.16 61.3076 186.372 62.5346 187.729 63.5564C187.878 63.6688 188.025 63.7764 188.176 63.8839C188.193 63.8937 188.208 63.9083 188.225 63.9206C188.409 64.0501 188.594 64.1748 188.783 64.297C189.037 64.4583 189.296 64.6148 189.56 64.7639C189.694 64.8445 189.831 64.9179 189.973 64.9912C191.127 65.6096 192.354 66.096 193.639 66.426C194.373 66.6142 195.126 66.756 195.888 66.844C195.947 66.8489 196.001 66.8587 196.059 66.8611C196.617 66.9222 197.184 66.9516 197.753 66.9516C198.939 66.9516 200.1 66.8245 201.217 66.58C202.192 66.3723 203.141 66.074 204.045 65.6952C204.888 65.3481 205.695 64.935 206.467 64.4559C208.653 63.1017 210.537 61.2562 211.979 59.0588C212.028 58.983 212.082 58.9048 212.126 58.829C212.204 58.7141 212.278 58.5968 212.346 58.477C212.637 58.0028 212.906 57.509 213.153 57.0055C213.556 56.1842 213.901 55.3262 214.187 54.4389C214.781 52.5739 215.103 50.5769 215.103 48.4992C215.103 43.3782 213.143 38.7438 209.975 35.4023H209.98ZM191.98 37.0743C193.713 36.3801 195.431 36.6001 195.82 37.5656C196.206 38.5335 195.116 39.8779 193.383 40.5746C191.65 41.2688 189.929 41.0537 189.543 40.0857C189.157 39.1177 190.247 37.7733 191.98 37.0743Z" fill="#FFC54D"/>
<path d="M193.385 40.5734C191.652 41.2676 189.931 41.0525 189.545 40.0845C189.158 39.1166 190.249 37.7722 191.982 37.0731C193.715 36.3789 195.431 36.5989 195.822 37.5644C196.21 38.5324 195.118 39.8767 193.385 40.5734Z" fill="#FFD868"/>
<path d="M188.786 64.2953C188.405 64.6058 188.038 64.9309 187.684 65.2657C187.278 65.6471 186.887 66.043 186.515 66.4488C186.381 66.3168 186.246 66.1824 186.117 66.043C186.019 65.9404 185.921 65.8402 185.828 65.7351C182.719 62.3081 180.832 57.8105 180.832 52.8924C180.832 52.7971 180.832 52.6969 180.834 52.6016C181.326 54.9017 182.22 57.0381 183.438 58.9227C184.599 60.7241 186.053 62.2959 187.728 63.5571C187.877 63.6696 188.023 63.7796 188.175 63.8847C188.192 63.8945 188.207 63.9091 188.224 63.9214C188.407 64.0509 188.593 64.178 188.781 64.2978L188.786 64.2953Z" fill="#FFA115"/>
<path d="M216.891 67.6959C216.373 70.4726 214.368 72.8706 211.511 74.4472C211.34 74.5425 211.169 74.6329 210.993 74.7209C210.756 74.8383 210.511 74.9507 210.264 75.0583H210.262C209.68 75.31 209.071 75.5325 208.441 75.7207C208.069 75.8307 207.69 75.926 207.304 76.014C205.957 76.3098 204.522 76.4589 203.031 76.4271C202.068 76.4051 201.13 76.3122 200.223 76.1558C199.255 75.9847 198.331 75.7402 197.453 75.4273C197.431 75.42 197.409 75.4127 197.39 75.4054C195.363 74.6745 193.611 73.5892 192.269 72.2595C191.927 71.9197 191.609 71.5628 191.321 71.1913C191.083 70.8833 190.868 70.568 190.673 70.2404C190.335 69.6782 190.059 69.0867 189.861 68.4781C189.842 68.4267 189.822 68.3705 189.807 68.3167C189.668 67.8499 189.565 67.3708 189.512 66.8868C190.071 67.3268 190.658 67.7374 191.264 68.1139C191.367 68.1798 191.47 68.2434 191.575 68.307C191.653 68.4243 191.739 68.5465 191.824 68.6614C191.9 68.7665 191.978 68.8692 192.061 68.9718C192.083 69.0012 192.105 69.0305 192.132 69.0598C192.191 69.1356 192.249 69.2114 192.313 69.2847C192.359 69.3385 192.406 69.3971 192.455 69.4509C192.518 69.5242 192.582 69.6 192.648 69.6709C192.662 69.6856 192.675 69.7002 192.689 69.7149C192.785 69.8225 192.887 69.93 192.99 70.0327C193.068 70.1133 193.144 70.1891 193.225 70.2673C193.278 70.3235 193.335 70.3773 193.393 70.4262C193.484 70.5167 193.577 70.6022 193.674 70.6853C193.777 70.7782 193.88 70.8662 193.987 70.9542C194.048 71.0055 194.105 71.0568 194.168 71.1033C194.271 71.1864 194.371 71.2646 194.474 71.3428C194.62 71.4528 194.765 71.5604 194.916 71.6655C195.065 71.7706 195.219 71.8708 195.373 71.971C195.681 72.169 195.999 72.3548 196.327 72.5283C196.451 72.5943 196.576 72.6603 196.705 72.7215C196.764 72.7508 196.823 72.7801 196.881 72.807C197.031 72.8779 197.177 72.9463 197.329 73.0099C197.5 73.0832 197.671 73.1565 197.847 73.2201C197.976 73.269 198.108 73.3179 198.24 73.3643C198.243 73.3643 198.248 73.3692 198.255 73.3692C198.358 73.4083 198.458 73.4401 198.561 73.4719C198.654 73.5061 198.746 73.533 198.842 73.5599C199.028 73.6185 199.218 73.6699 199.404 73.7163C199.463 73.7334 199.519 73.7456 199.578 73.7603C199.636 73.7774 199.692 73.7872 199.751 73.8019C199.844 73.8239 199.937 73.8434 200.032 73.863C200.057 73.8679 200.079 73.8727 200.101 73.8776C200.238 73.907 200.379 73.9339 200.516 73.9558C200.641 73.9778 200.766 73.9998 200.89 74.017C200.907 74.0194 200.919 74.0218 200.934 74.0218H200.939C201.115 74.0487 201.293 74.0707 201.472 74.0878C201.567 74.0976 201.667 74.1098 201.765 74.1147C201.961 74.1318 202.159 74.1441 202.357 74.1538H202.386C202.574 74.1612 202.765 74.1661 202.956 74.1661C203.112 74.1661 203.269 74.1636 203.423 74.1587C203.464 74.1587 203.506 74.1563 203.547 74.1538C203.828 74.1465 204.104 74.1245 204.378 74.0952C204.425 74.0952 204.471 74.0878 204.518 74.0805C204.61 74.0732 204.701 74.061 204.789 74.0487H204.801C204.83 74.0463 204.86 74.0414 204.889 74.039C205.002 74.0218 205.114 74.0047 205.224 73.9876C205.273 73.9827 205.327 73.973 205.376 73.9632C205.454 73.9534 205.53 73.9363 205.605 73.9216C205.684 73.9119 205.759 73.8947 205.833 73.8776C205.867 73.8703 205.899 73.863 205.93 73.8581C206.028 73.8385 206.128 73.8165 206.224 73.7921C206.339 73.7676 206.454 73.7383 206.571 73.7065C206.686 73.6772 206.798 73.6454 206.911 73.6136C207.14 73.5476 207.368 73.4768 207.593 73.3961C207.661 73.3741 207.729 73.3496 207.798 73.3252C207.903 73.2885 208.011 73.2494 208.111 73.2079C208.152 73.1932 208.191 73.1785 208.228 73.1614C208.502 73.0539 208.773 72.9366 209.035 72.8095C209.086 72.785 209.14 72.7606 209.191 72.7312C209.289 72.6823 209.389 72.6335 209.485 72.5821C209.587 72.5308 209.687 72.4746 209.788 72.4208C209.827 72.3988 209.861 72.3792 209.9 72.3572C210.01 72.2937 210.12 72.2301 210.228 72.1641C210.32 72.1104 210.411 72.0541 210.499 71.993C210.538 71.9735 210.572 71.949 210.611 71.9222C210.65 71.9002 210.69 71.8733 210.724 71.8488C210.738 71.8439 210.753 71.8317 210.768 71.8219C210.831 71.7804 210.897 71.7364 210.961 71.6899C210.971 71.6851 210.98 71.6802 210.99 71.6679C211.039 71.6386 211.088 71.6019 211.139 71.5628C211.222 71.5042 211.306 71.4431 211.389 71.3795C211.452 71.3306 211.516 71.2842 211.579 71.2328C211.763 71.0911 211.939 70.9444 212.115 70.7904C212.134 70.7733 212.156 70.7562 212.176 70.7391C212.269 70.656 212.362 70.5729 212.457 70.4849C212.486 70.458 212.52 70.4287 212.55 70.3969C212.569 70.3798 212.589 70.3651 212.603 70.3455C212.718 70.2355 212.828 70.1256 212.938 70.0107C213.075 69.8713 213.207 69.7271 213.334 69.5829C213.449 69.4558 213.559 69.3238 213.664 69.1918C213.708 69.1429 213.75 69.0891 213.789 69.0378C213.838 68.9792 213.882 68.9205 213.926 68.8618C213.96 68.8203 213.992 68.7763 214.024 68.7323C214.065 68.6761 214.104 68.6247 214.139 68.5734C214.183 68.5123 214.227 68.4536 214.271 68.3901C214.613 67.8939 214.921 67.3708 215.19 66.8281H215.192C215.764 67.097 216.331 67.3903 216.893 67.7105L216.891 67.6959Z" fill="#FFA115"/>
<path d="M221.246 52.8941H221.244C221.244 55.1796 220.833 57.3771 220.082 59.4156C220.082 59.4156 220.082 59.4173 220.08 59.4205C220.036 59.5403 219.992 59.6601 219.946 59.7774C219.875 59.9607 219.801 60.1441 219.723 60.3249C219.54 60.7625 219.337 61.1902 219.117 61.6082C219.075 61.6938 219.031 61.7744 218.985 61.86C218.396 62.9575 217.704 63.9915 216.92 64.9497C216.389 65.6023 215.817 66.2207 215.204 66.7976L215.191 66.8098C215.191 66.8098 215.191 66.8098 215.189 66.8098C215.189 66.8098 215.189 66.8123 215.186 66.8123C215.057 66.9149 214.927 67.0176 214.798 67.1129C214.614 67.2522 214.429 67.3867 214.238 67.5187C214.108 67.6091 213.979 67.6996 213.847 67.7876C213.517 68.01 213.175 68.2251 212.83 68.4255C212.725 68.4891 212.62 68.5502 212.512 68.6064C212.327 68.714 212.136 68.8166 211.948 68.9144C211.789 69 211.625 69.0831 211.464 69.1588C211.307 69.2371 211.153 69.3104 210.994 69.3813C210.843 69.4497 210.691 69.5182 210.537 69.5841C210.396 69.6477 210.251 69.7064 210.107 69.7626C210.036 69.7944 209.963 69.8213 209.89 69.8481C209.797 69.8872 209.704 69.9239 209.608 69.9557C209.452 70.0144 209.296 70.0706 209.137 70.1268C208.978 70.1806 208.819 70.2343 208.66 70.2857C208.499 70.3346 208.337 70.3835 208.176 70.4299C207.949 70.5008 207.717 70.5619 207.487 70.6206C207.281 70.6719 207.071 70.7232 206.863 70.7697C206.807 70.7819 206.751 70.7941 206.692 70.8063C206.595 70.8259 206.492 70.8479 206.389 70.8674C206.338 70.8797 206.287 70.8894 206.23 70.8992C206.045 70.9334 205.854 70.9677 205.666 70.997C205.627 71.0043 205.587 71.0117 205.551 71.0165C205.372 71.0434 205.189 71.0679 205.008 71.0923C204.881 71.1094 204.756 71.1265 204.629 71.1363C204.502 71.1534 204.378 71.1656 204.25 71.1754C203.957 71.2023 203.659 71.2243 203.361 71.239C203.209 71.2463 203.058 71.2536 202.906 71.2561C202.825 71.261 202.745 71.261 202.662 71.261C202.542 71.2659 202.424 71.2659 202.302 71.2659C202.116 71.2659 201.928 71.2634 201.745 71.2585C201.689 71.2585 201.633 71.2561 201.579 71.2536C201.452 71.2488 201.327 71.2439 201.205 71.2365C201.195 71.239 201.193 71.239 201.185 71.2365H201.163C201.09 71.2316 201.017 71.2268 200.943 71.2219C200.635 71.2023 200.33 71.1779 200.029 71.1436C199.914 71.1314 199.797 71.1168 199.682 71.1021C199.665 71.1021 199.653 71.1021 199.638 71.0948C199.574 71.0899 199.516 71.0825 199.455 71.0703C199.44 71.0703 199.428 71.0703 199.413 71.0654C199.281 71.0483 199.149 71.0288 199.017 71.0068C198.919 70.9945 198.819 70.9774 198.721 70.9603C198.641 70.9481 198.562 70.9334 198.482 70.9163C198.382 70.9017 198.281 70.8821 198.179 70.8601C198.105 70.8454 198.032 70.8332 197.954 70.8137C197.951 70.8161 197.949 70.8137 197.944 70.8137C197.77 70.777 197.597 70.7379 197.423 70.6963C197.252 70.6572 197.081 70.6132 196.91 70.5692C196.758 70.5301 196.612 70.4886 196.463 70.4446C196.238 70.3786 196.018 70.3101 195.798 70.2392C195.639 70.1855 195.48 70.1341 195.324 70.0755C195.175 70.0241 195.03 69.9728 194.884 69.9141C194.742 69.8604 194.598 69.8041 194.458 69.7479C194.436 69.7381 194.412 69.7308 194.39 69.7161C194.383 69.7186 194.38 69.7161 194.375 69.7113C194.226 69.6501 194.079 69.5866 193.93 69.5206H193.928C193.859 69.4937 193.791 69.4644 193.725 69.4302C193.657 69.4008 193.588 69.3715 193.517 69.3373C193.51 69.3373 193.505 69.3324 193.5 69.3299C193.368 69.2688 193.241 69.2077 193.112 69.1442C192.936 69.0611 192.762 68.9731 192.591 68.8826C192.417 68.7897 192.246 68.6968 192.08 68.6015C191.909 68.5062 191.74 68.4084 191.576 68.3082C190.855 67.8755 190.171 67.4013 189.513 66.888C188.871 66.3845 188.262 65.8418 187.688 65.2674C188.042 64.9326 188.406 64.6075 188.787 64.297C189.044 64.4583 189.301 64.6148 189.565 64.7639C189.699 64.8446 189.839 64.9179 189.978 64.9912C191.132 65.6096 192.359 66.0961 193.644 66.426C194.378 66.6143 195.131 66.756 195.893 66.844C196.507 66.9149 197.13 66.9516 197.761 66.9516C199.98 66.9516 202.102 66.5043 204.052 65.6952C204.896 65.3481 205.702 64.935 206.475 64.4559C208.662 63.1017 210.547 61.2562 211.989 59.0588C212.038 58.9806 212.089 58.9048 212.133 58.829C212.214 58.7117 212.285 58.5943 212.353 58.477C212.644 58.0004 212.913 57.5091 213.163 57.0031C213.566 56.1818 213.908 55.3263 214.194 54.439C214.788 52.5739 215.111 50.5769 215.111 48.4992C215.111 43.3783 213.15 38.7462 209.982 35.4023C216.658 38.5849 221.246 45.2213 221.246 52.8941Z" fill="#FFA115"/>
<path d="M225.268 68.6768C225.229 69.7793 225.024 73.2649 223.88 73.2282C222.909 72.1698 221.834 71.1652 220.661 70.2315C220.147 69.8233 219.624 69.4346 219.094 69.0704C220.142 68.5106 221.343 68.1953 222.616 68.1953C223.55 68.1953 224.444 68.3689 225.271 68.6793H225.268V68.6768Z" fill="#FFC54D"/>
<path d="M227.288 77.6456C227.288 77.7042 227.288 77.7605 227.285 77.8167C226.354 76.2205 225.217 74.6757 223.883 73.2311C225.024 73.2677 225.232 69.7796 225.271 68.6797C225.274 68.6797 225.276 68.6821 225.279 68.6821C226.574 71.2463 227.285 74.2455 227.285 77.6456H227.288Z" fill="#FFA115"/>
<path d="M215.184 66.8149C213.236 70.7895 209.168 73.5255 204.808 74.0559C204.011 74.1586 203.191 74.1897 202.387 74.158C202.387 74.158 202.387 74.158 202.367 74.158C198.123 74.0113 193.962 71.8405 191.574 68.306C192.469 68.8511 193.42 69.3228 194.388 69.7139C194.41 69.7286 194.437 69.7384 194.459 69.7433C195.588 70.2053 196.764 70.5646 197.956 70.8115C203.918 72.0947 210.166 70.4839 215.187 66.8125L215.184 66.8149Z" fill="#FF8515"/>
<path d="M188.352 69.0703C188.352 69.0703 181.997 71.5929 180.929 71.8178C179.958 72.0206 176.609 72.4411 173.918 72.8713C171.09 73.3259 168.223 74.1399 167.348 75.0174C167.081 75.2839 166.913 76.242 166.891 76.5891C166.81 77.782 166.795 78.1902 166.903 78.6033C167.052 79.1753 168.013 79.7448 168.013 79.7448C168.013 79.7448 167.458 79.7228 167.167 80.0112C166.756 80.4219 166.808 83.0642 167.387 83.3038C168.355 83.7071 169.782 84.1691 169.782 84.1691C169.782 84.1691 170.242 88.1876 172.246 86.5865C174.236 84.9977 175.27 85.203 178.66 84.3524C182.051 83.5018 188.367 76.286 190.591 71.9791L188.352 69.0703Z" fill="#FFD868"/>
<path d="M175.041 78.2651C174.796 77.0429 175.777 77.1847 174.065 77.1847C174.86 77.9791 174.945 80.2402 173.74 80.6092C173.462 80.6948 172.78 80.0104 172.408 79.9199C170.093 79.3602 169.04 78.9764 167.637 78.358C167.182 78.1576 166.923 77.8202 166.85 77.2972C166.813 77.9693 166.825 78.2847 166.906 78.6024C167.055 79.1744 168.016 79.7439 168.016 79.7439C168.016 79.7439 170.333 80.4968 172.134 80.971C174.239 81.5259 175.398 80.7608 175.041 78.2627V78.2651Z" fill="#FFA115"/>
<path d="M166.922 81.9219C166.973 82.5892 167.127 83.1978 167.389 83.3078C168.357 83.7111 169.784 84.1731 169.784 84.1731C169.784 84.1731 169.816 84.4493 169.899 84.8282C170.816 84.7842 171.747 84.6229 172.595 84.6229C172.427 83.8602 171.987 83.6378 170.982 83.3592C169.706 83.0023 168.188 82.5085 166.922 81.9243V81.9219Z" fill="#FFA115"/>
<path d="M189.054 69.9844C188.148 70.8741 187.187 71.7101 186.141 72.4409C184.317 73.7145 182.259 74.2131 180.277 74.7289C180.34 75.2128 180.394 75.8948 180.411 76.2517C180.416 76.3128 180.592 78.9136 180.592 80.0233C180.592 80.544 178.338 80.808 178.216 80.5733C177.942 80.0429 177.632 78.8647 177.373 77.4494C177.27 76.8921 177.136 76.1441 177.099 75.5795C177.089 75.4182 177.158 74.6873 176.933 74.7411C176.138 74.9293 174.701 75.3179 173.902 75.5013C172.521 75.819 171.181 75.995 170.231 76.0586C170.052 76.0708 170.624 76.743 170.824 76.8041C171.582 77.0339 171.841 77.0265 172.523 77.2979C174.405 78.041 174.232 78.3098 173.902 79.2509C173.645 79.9793 173.579 80.2506 172.614 79.9818C172.545 79.9622 172.474 79.9427 172.406 79.9231C172.294 80.4364 172.313 80.4706 172.132 80.9742C172.614 81.2504 172.379 81.8981 172.184 82.4946C171.917 83.3061 171.45 83.4307 170.981 83.3574C170.959 83.3867 170.939 83.4185 170.917 83.4479C170.592 83.8585 170.209 84.1127 169.793 84.2618C169.864 84.9291 170.575 88.1997 172.426 86.7233C174.415 85.1345 175.271 85.2053 178.661 84.3547C182.051 83.5041 188.368 76.2884 190.592 71.9814L189.054 69.9844Z" fill="#FFA115"/>
<path d="M188.77 69.6133C188.528 70.1706 188.235 70.7035 187.897 71.2094C186.986 72.5758 185.798 73.754 184.558 74.8222C183.925 75.3673 183.285 75.9344 182.578 76.3841C181.911 76.8094 181.117 76.9121 180.369 77.1541C180.467 78.2003 180.496 78.7796 180.589 79.6278C180.713 80.7571 180.907 81.2973 179.763 81.4659C178.619 81.6346 177.59 81.8693 177.365 81.1408C176.961 79.8307 176.516 78.5449 176.296 76.4599C175.285 76.8901 173.507 77.0783 172.427 77.313C173.031 77.5843 173.529 77.7823 173.823 77.951C175.021 78.6354 175.111 78.8163 174.781 79.772C174.145 81.6199 173.842 81.6786 172.782 81.3828C172.97 81.8815 173.014 82.0061 173.014 82.363C173.014 82.913 172.593 84.734 171.826 84.624C170.982 84.5018 170.594 84.3674 169.782 84.1743C169.526 84.4969 169.007 84.7683 168.233 85.2302C167.46 85.6898 166.918 86.1175 166.365 86.67C165.913 87.1222 166.864 89.3979 167.309 89.3734C168.492 89.305 170.22 88.139 172.452 86.9682C174.788 85.7436 175.27 85.2082 178.66 84.3576C182.05 83.507 188.367 76.2912 190.591 71.9843L188.768 69.6182L188.77 69.6133Z" fill="#FF8515"/>
<path d="M180.372 77.1538C180.372 77.1538 180.318 76.2616 180.281 74.7266C180.281 74.7266 180.597 76.6185 180.905 77.5205L180.374 77.1538H180.372Z" fill="#FF8515"/>
<path d="M172.931 77.4461C172.931 77.4461 172.257 77.2848 170.824 76.8008C170.824 76.8008 173.283 77.0745 174.405 77.1063L172.929 77.4485L172.931 77.4461Z" fill="#FF8515"/>
<path d="M176.266 76.7337L176.657 75.2891C176.657 75.2891 175.531 76.2864 174.406 77.1101L176.269 76.7337H176.266Z" fill="#FF8515"/>
<path d="M169.471 84.4609C169.471 84.4609 168.434 85.0818 167.718 85.5609C167.442 85.7467 166.821 86.1109 166.621 86.6609C166.501 86.9908 166.831 87.9539 167.188 88.1152C167.589 88.2986 170.463 86.3504 171.475 85.5193C170.346 85.3971 169.468 84.4609 169.468 84.4609H169.471Z" fill="#FFA115"/>
<path d="M227.28 77.8178C226.349 76.2217 225.212 74.6793 223.877 73.2347C222.907 72.1763 221.831 71.1717 220.658 70.2379C220.145 69.8297 219.622 69.4411 219.091 69.0768C218.368 68.5758 217.632 68.1187 216.887 67.7007C216.407 70.2575 214.672 72.4916 212.166 74.0609C211.423 74.4691 209.329 75.5373 206.752 76.1337C205.567 76.3561 204.318 76.4637 203.029 76.4343C202.066 76.4123 201.128 76.3195 200.221 76.163C199.255 75.9919 198.329 75.7475 197.451 75.4346C197.429 75.4273 197.407 75.4199 197.388 75.4126C195.362 74.6817 193.609 73.5965 192.267 72.2667C191.922 71.927 191.607 71.5701 191.319 71.1985C191.082 70.8906 190.866 70.5752 190.671 70.2477C190.334 69.6855 190.057 69.094 189.862 68.4853C189.842 68.434 189.823 68.3778 189.806 68.324C189.666 67.8571 189.564 67.3805 189.51 66.894C188.867 66.3905 188.258 65.8479 187.684 65.2734C187.278 65.6548 186.887 66.0507 186.515 66.4565C186.464 66.5103 186.413 66.5689 186.361 66.6227C186.281 66.7132 186.2 66.806 186.122 66.9014C186.005 67.0383 185.89 67.1751 185.772 67.3169C185.662 67.4514 185.555 67.5882 185.447 67.7251C185.352 67.8498 185.254 67.9744 185.161 68.1016C185.09 68.1969 185.022 68.2971 184.954 68.3949C184.584 68.8935 184.037 69.8102 183.741 70.3552L183.736 70.3601C183.377 71.0348 183.059 71.7339 182.798 72.4476C182.795 72.4598 182.793 72.4745 182.788 72.4867C182.79 72.4745 182.793 72.4598 182.795 72.4476C182.78 72.4818 182.771 72.5161 182.756 72.5503C182.756 72.5527 182.754 72.5552 182.754 72.5552C182.135 74.254 181.803 76.0432 181.803 77.8961C181.803 79.2869 181.971 80.6411 182.292 81.9439C184.025 89.0105 190.199 94.6668 198.185 96.6418C200.174 97.1331 202.277 97.3971 204.45 97.3971C215.227 97.3971 224.378 90.7362 226.705 81.9977C226.735 81.8877 226.764 81.7777 226.791 81.6677C226.903 81.2179 226.994 80.7584 227.07 80.2964C227.202 79.4825 227.273 78.6563 227.277 77.8178H227.275H227.28Z" fill="#FFA115"/>
<path d="M211.867 74.2437C211.842 75.4635 212.812 80.9584 208.374 84.5613C205.831 86.6244 196.641 89.1372 190.449 86.8492C187.069 85.6002 183.466 82.7525 182.637 78.0545C182.613 78.0325 182.422 76.8567 182.422 75.637C182.422 73.1707 182.881 71.9631 183.737 70.3548L183.742 70.3499C184.756 68.4775 185.981 66.8618 187.682 65.2656C188.257 65.84 188.865 66.3827 189.508 66.8862C190.102 72.1343 195.409 75.6101 201.319 76.297C203.68 76.5732 207.885 76.4314 211.862 74.2413L211.867 74.2437Z" fill="#FFC54D"/>
<path d="M201.624 62.8682C200.221 62.5944 199.084 61.2305 199.084 59.8299V57.5664C199.084 56.1633 200.221 55.2614 201.624 55.5498C203.027 55.8382 204.166 57.2046 204.166 58.5955V60.8418C204.166 62.2351 203.029 63.142 201.624 62.8657V62.8682Z" fill="#191D2E"/>
<path d="M185.903 57.2686C184.622 56.9949 183.588 55.7336 183.588 54.4527V51.7419C183.588 50.4611 184.624 49.6594 185.903 49.9502C187.184 50.2387 188.217 51.5048 188.217 52.7735V55.4647C188.217 56.7333 187.181 57.5424 185.903 57.2662V57.2686Z" fill="#191D2E"/>
<path d="M189.432 53.3208L185.448 47.8675C185.25 47.5961 184.868 47.535 184.595 47.7355L184.543 47.7721C184.272 47.9701 184.211 48.3514 184.411 48.6252L188.398 54.0785C188.596 54.3499 188.977 54.411 189.251 54.2105L189.302 54.1739C189.574 53.9759 189.635 53.5946 189.434 53.3208H189.432Z" fill="#191D2E"/>
<path d="M198.287 57.9385L204.936 54.3674C205.246 54.2011 205.363 53.8125 205.197 53.4996C205.031 53.1867 204.642 53.0694 204.329 53.2356L197.681 56.8068C197.37 56.973 197.253 57.3617 197.419 57.6746C197.585 57.9874 197.974 58.1048 198.287 57.9385Z" fill="#191D2E"/>
<path d="M197.181 77.4435C197.181 77.4435 205.189 78.3235 211.637 74.107L210.74 73.4715C210.74 73.4715 191.122 81.2714 190.252 69.6094L189.548 70.042C189.548 70.042 189.027 74.6056 192.31 75.8302L197.179 77.446L197.181 77.4435Z" fill="#FFA115"/>
<path d="M191.892 67.9497C191.892 67.9497 189.683 71.7017 193.584 74.3392L192.124 74.7474C192.124 74.7474 188.592 73.3468 190.45 67.5781L191.892 67.9472V67.9497Z" fill="#FFB519"/>
<path d="M195.363 75.2868C195.363 75.2868 200.878 76.0593 205.273 74.908C209.668 73.7567 214.735 70.5912 215.187 66.8196L215.559 66.4603C215.559 66.4603 216.553 66.2721 216.155 67.8242C215.756 69.3764 213.979 72.8792 207.756 75.2697C201.885 77.5234 195.569 76.5164 195.569 76.5164L195.363 75.2893V75.2868Z" fill="#FFB519"/>
<path d="M194.52 75.3914C199.05 76.1125 198.148 83.9637 193.144 83.3453C188.138 82.7269 189.888 74.6532 194.52 75.3914Z" fill="#FFA115"/>
<path d="M200.386 64.0049V66.3442C200.386 66.5715 200.234 66.767 200.017 66.8257L193.715 68.9792L191.163 69.8469L189.704 70.3456C188.778 70.6609 187.763 70.5876 186.891 70.1427L180.125 66.6962L179.489 66.3735C179.313 66.2831 179.215 66.1242 179.198 65.9506C179.193 65.9311 179.193 65.9115 179.193 65.892V63.5625L191.968 67.2412H191.97L197.729 65.2515L200.205 63.7923L200.386 64.0074V64.0049Z" fill="#E74D13"/>
<path d="M200.115 63.5869C200.523 63.7922 200.46 64.396 200.018 64.5109L189.678 68.0308C189.592 68.0479 189.502 68.0576 189.411 68.0576C189.213 68.0576 189.03 68.0185 188.859 67.9476L188.717 67.8768L181.093 63.9902L180.903 63.8925C180.49 63.648 180.211 63.1958 180.211 62.6752V62.6507C180.279 62.5872 180.353 62.5334 180.428 62.4894L180.524 62.4381L180.57 62.4161L186.752 58.5956L187.559 58.0969L187.725 58.0089H187.732C187.889 57.9429 188.055 57.9062 188.233 57.9062C188.412 57.9062 188.576 57.9405 188.727 58.004L188.891 58.0871L200.11 63.5869H200.115Z" fill="#F7762E"/>
<path d="M193.714 66.6549L189.703 68.0213C188.777 68.3366 187.762 68.2633 186.89 67.8209L179.488 64.0517C179.112 63.861 179.092 63.333 179.449 63.1106L183.705 60.4805L193.714 66.6573V66.6549Z" fill="#F7762E"/>
<path d="M190.199 67.8536L189.703 68.0223C188.777 68.3376 187.762 68.2643 186.89 67.8218L179.488 64.0502C179.112 63.8595 179.092 63.3316 179.449 63.1091L179.777 62.9062C179.735 63.1385 179.838 63.3902 180.077 63.5125L187.875 67.4845C188.596 67.8536 189.41 67.9783 190.199 67.8536Z" fill="#F99746"/>
<path d="M179.198 65.2852H179.193V65.2266C179.193 65.2461 179.193 65.2657 179.198 65.2852Z" fill="#F7762E"/>
<path d="M195.525 61.3396L184.56 65.7981L180.967 63.9746L191.92 59.5234L195.525 61.3396Z" fill="#F99746"/>
<path d="M187.328 61.4965C187.646 61.4965 187.903 61.2398 187.903 60.9221C187.903 60.6043 187.646 60.3477 187.328 60.3477C187.011 60.3477 186.754 60.6043 186.754 60.9221C186.754 61.2398 187.011 61.4965 187.328 61.4965Z" fill="#D63E0F"/>
<path d="M190.936 63.6254C191.254 63.6254 191.51 63.3688 191.51 63.051C191.51 62.7332 191.254 62.4766 190.936 62.4766C190.618 62.4766 190.361 62.7332 190.361 63.051C190.361 63.3688 190.618 63.6254 190.936 63.6254Z" fill="#D63E0F"/>
<path opacity="0.75" d="M192.521 53.3321L195.494 54.591C195.494 54.591 197.452 49.2525 203.201 50.9709C208.95 52.6893 210.742 53.1586 210.742 53.1586C210.742 53.1586 210.632 60.6383 210.502 63.2171C210.394 65.373 209.202 70.4573 200.06 65.813C190.915 61.1687 182.328 57.6562 181.187 57.0304C180.045 56.4047 181.165 43.9141 181.165 43.9141C181.165 43.9141 186.855 46.1678 188.447 46.7202C191.033 47.6173 192.81 50.0347 192.519 53.3346L192.521 53.3321Z" fill="#235673"/>
<path opacity="0.75" d="M193.791 62.7503C194.59 63.1291 195.409 63.5178 196.243 63.9236L210.713 54.9797C210.733 53.8944 210.743 53.1635 210.743 53.1635C210.743 53.1635 210.369 53.0658 209.415 52.7969L193.791 62.7527V62.7503Z" fill="#3178A1"/>
<path opacity="0.75" d="M186.158 45.8672L180.722 50.9441C180.641 53.2174 180.648 55.4173 180.893 56.4488L190.594 47.9889C189.983 47.4316 189.255 47.0038 188.446 46.7227C187.967 46.5565 187.114 46.2338 186.156 45.8672H186.158Z" fill="#3178A1"/>
<path d="M202.809 50.7208C195.708 48.4524 195.102 54.3409 195.102 54.3409L192.521 53.3362C192.812 50.0388 191.035 46.8196 188.449 45.9225C186.857 45.3701 179.952 42.5469 179.952 42.5469C179.952 42.5469 178.833 55.8393 179.974 56.465C181.113 57.0908 190.915 61.1728 200.059 65.8171C209.204 70.4614 210.396 65.3771 210.502 63.2212C210.629 60.6424 210.741 53.1627 210.741 53.1627C210.741 53.1627 208.524 52.5467 202.809 50.7208ZM207.695 62.7592C207.541 65.8562 205.566 65.8562 204.916 65.8562C203.511 65.8562 201.648 65.272 199.38 64.1207C193.53 61.1508 189.326 59.3542 185.657 57.5845C184.166 56.8659 181.707 55.6975 181.062 55.3748C180.852 54.2455 180.871 49.3739 181.245 44.6319C183.064 45.3457 186.192 46.6656 187.226 47.0225C189.346 47.7582 190.531 49.7113 190.319 52.1214L190.226 53.984L196.31 56.4332L196.478 54.842C196.522 54.7271 196.845 51.1534 200.631 51.8427C201.169 51.9405 201.768 51.9356 202.389 52.1214C205.757 53.1285 206.818 53.5733 207.915 53.8838C207.879 56.0715 207.791 60.8331 207.695 62.7568V62.7592Z" fill="#202740"/>
<path d="M210.74 53.1608C210.74 53.1608 221.74 49.6532 222.182 49.5065C222.625 49.3599 222.784 55.395 221.608 56.7516C220.43 58.1082 219.99 54.3268 219.99 54.3268L210.662 57.6511L210.738 53.1584L210.74 53.1608Z" fill="#202740"/>
<path d="M194.838 74.4801C195.173 74.6732 195.578 74.9518 196.053 75.3087C198.431 77.1102 197.184 82.5489 193.039 82.2702C192.846 82.2458 191.785 81.9744 191.614 81.9231C190.022 81.4538 190.384 73.7687 194.838 74.4801Z" fill="#F36638"/>
<path d="M193.81 74.157C198.339 74.8781 197.437 82.7294 192.433 82.1109C187.427 81.4925 189.177 73.4188 193.81 74.157Z" fill="#F7762E"/>
<path d="M192.913 81.3673C192.764 81.3673 192.61 81.3575 192.453 81.338C190.1 81.0471 190.046 78.9229 190.085 78.2801C190.19 76.569 191.366 74.7969 193.15 74.7969C193.304 74.7969 193.465 74.8091 193.624 74.836C195.382 75.1146 196.049 76.7352 195.932 78.2165C195.807 79.7858 194.827 81.3673 192.913 81.3673Z" fill="#FFB519"/>
<path d="M190.41 78.6457C190.515 76.9347 191.69 75.1625 193.475 75.1625C193.629 75.1625 193.79 75.1748 193.949 75.2017C194.526 75.2945 194.983 75.5316 195.335 75.8592C194.958 75.3434 194.396 74.9621 193.624 74.8399C193.463 74.8154 193.304 74.8008 193.15 74.8008C191.365 74.8008 190.19 76.5729 190.084 78.284C190.058 78.7386 190.08 79.9339 190.928 80.6966C190.4 79.9584 190.385 79.0344 190.41 78.6457Z" fill="#FF9500"/>
<path d="M194.76 77.5543C194.824 77.2977 194.775 77.0703 194.616 76.8748C194.55 76.7941 194.462 76.7281 194.357 76.667L194.484 76.1537L193.905 76.0388L193.797 76.469C193.797 76.469 193.792 76.469 193.787 76.469L193.347 76.3835L193.455 75.9508L192.876 75.8359L192.768 76.2661L192.005 76.1146L191.861 76.6939L192.12 76.7452L191.595 78.8963L191.326 78.8425L191.182 79.4218L191.944 79.5733L191.832 80.0207L192.411 80.1356L192.524 79.6833L192.973 79.7713L192.861 80.226L193.44 80.3409L193.567 79.8349C193.756 79.83 193.922 79.7982 194.061 79.7347C194.31 79.6173 194.472 79.4169 194.54 79.1334C194.587 78.9427 194.584 78.7716 194.53 78.6225C194.477 78.4734 194.384 78.3512 194.249 78.251C194.225 78.2314 194.193 78.2216 194.166 78.2045C194.308 78.1605 194.43 78.0896 194.533 77.987C194.645 77.8745 194.721 77.7328 194.763 77.5592L194.76 77.5543ZM193.558 77.0239C193.734 77.0581 193.861 77.1168 193.939 77.1974C194.017 77.2781 194.039 77.3857 194.007 77.5177C193.976 77.6496 193.905 77.7401 193.795 77.7841C193.685 77.8305 193.543 77.8354 193.367 77.8012L192.648 77.6619L192.839 76.8846L193.558 77.0239ZM193.831 78.906C193.797 79.0454 193.724 79.1358 193.609 79.1847C193.494 79.2311 193.345 79.236 193.162 79.2018L192.313 79.0356L192.514 78.2192L193.362 78.3854C193.545 78.4221 193.68 78.4807 193.763 78.5663C193.846 78.6518 193.868 78.7643 193.834 78.906H193.831Z" fill="#F36638"/>
<path d="M215.109 71.6274C215.109 71.6274 220.621 78.1368 218.409 87.0464C215.987 96.8043 204.728 97.3078 202.939 97.3958C201.626 97.4618 201.176 95.6994 201.176 95.6994C201.176 95.6994 200.423 95.9438 199.832 95.8485C199.297 95.763 198.771 95.3181 198.458 94.2964C197.891 92.4362 197.456 91.8178 197.456 91.8178C197.456 91.8178 197.084 91.1016 196.693 89.3685C196.693 89.3685 210.462 91.7102 213.567 85.7925C216.671 79.8747 215.107 71.625 215.107 71.625L215.109 71.6274Z" fill="#FF8515"/>
<path opacity="0.6" d="M220.083 59.4165C220.039 59.5387 219.993 59.6585 219.946 59.7783C219.704 60.4065 219.428 61.0176 219.118 61.6091C219.076 61.6946 219.032 61.7753 218.986 61.8609C218.397 62.9584 217.705 63.9923 216.92 64.9505C216.493 65.4761 216.038 65.9796 215.559 66.4562C215.786 66.4513 215.96 66.4856 216.077 66.642C216.258 66.8864 216.241 67.1407 216.241 67.3606C220.668 69.9272 223.464 73.7111 223.464 77.93C223.464 85.6664 214.063 91.9361 202.467 91.9361C193.019 91.9361 185.031 87.7734 182.396 82.0463C181.01 83.2343 179.698 84.0922 178.661 84.3513C175.271 85.202 174.792 85.7373 172.453 86.9619C170.353 88.0619 168.698 89.1594 167.527 89.3427C172.592 98.9857 186.327 106.228 202.467 105.852C222.427 105.385 239.147 94.4563 239.499 81.1492C239.748 71.7629 231.648 63.5939 220.083 59.4141V59.4165Z" fill="#FF56F1"/>
<g style="mix-blend-mode:multiply" opacity="0.7">
<path d="M172.351 88.0429C172.006 90.0326 174.844 90.7781 179.144 89.8566C180.605 89.5437 183.106 88.2874 182.861 87.3096C182.617 87.0652 182.373 86.5763 181.884 86.5763C182.373 86.0874 182.854 86.0948 183.106 85.843C186.369 90.0326 191.661 92.4427 197.283 93.6649C197.528 93.6649 198.007 94.43 198.251 94.9189C198.74 95.6522 199.803 96.0873 200.788 95.6375C201.033 96.8597 202.218 98.0745 203.194 97.9963C211.301 97.3388 216.249 93.4889 218.686 88.0136C223.878 83.5355 224.696 80.1525 223.878 75.4936C222.355 69.5221 217.447 66.4471 216.18 65.7969C215.977 66.0218 215.77 66.2417 215.555 66.4544C215.782 66.4495 215.955 66.4837 216.073 66.6402C216.254 66.8846 216.237 67.1388 216.237 67.3588C220.663 69.9254 223.46 73.7092 223.46 77.9282C223.46 85.6646 214.059 91.9343 202.463 91.9343C193.015 91.9343 185.027 87.7716 182.392 82.0445C181.006 83.2324 179.694 84.0904 178.657 84.3495C175.267 85.2001 174.788 85.7354 172.448 86.9601C170.676 87.8889 169.222 88.8153 168.107 89.1918C167.966 89.4557 168.464 90.2428 169.755 89.6684C170.664 89.2651 171.202 88.8593 172.348 88.038L172.351 88.0429Z" fill="#D921CA"/>
</g>
<path d="M211.299 75.2422C211.299 75.2422 209.954 78.7352 209.06 79.2436C208.165 79.752 203.379 81.1551 202.849 81.3335C200.988 81.9617 200.619 81.7417 200.768 83.2939C200.918 84.846 201.416 86.2907 201.416 86.2907L196.012 88.141L196.161 89.9327C196.161 89.9327 198.967 90.5292 205.298 88.7375C211.629 86.9457 211.299 75.2422 211.299 75.2422Z" fill="#FFA115"/>
<path d="M211.509 74.4453C211.509 74.4453 210.861 78.4565 209.429 79.6909C208.463 80.522 207.18 80.7664 205.657 81.2137C204.432 81.573 203.447 81.8419 202.193 82.2281C201.14 82.5532 201.316 83.1252 201.477 84.0492C201.746 85.6013 201.836 85.99 202.851 85.7798C203.645 85.616 204.958 85.22 203.863 85.7553C203.345 86.0095 200.27 87.1779 199.556 87.4321C197.982 87.9919 196.989 88.1874 196.747 88.7056C196.554 89.1212 196.931 90.6978 197.373 91.1133C197.725 91.4458 198.17 91.3895 198.759 91.2918C200.23 91.0473 201.888 90.556 201.888 90.556C201.888 90.556 200.81 91.084 199.214 91.7611C198.519 92.0569 198.035 92.25 198.62 93.7703C199.135 95.1123 199.375 95.0341 200.629 94.7163C202.157 94.3277 203.393 93.8901 203.393 93.8901C203.393 93.8901 202.78 94.3228 202.176 94.5965C201.125 95.0732 201.47 95.5963 201.883 96.3491C202.176 96.8869 202.176 97.2242 203.056 97.0849C204.046 96.9284 205.5 96.5642 206.547 96.2074C209.521 95.1978 211.35 94.6112 213.039 92.9588C216.512 89.5612 220.827 82.739 215.107 71.6172L211.506 74.4404L211.509 74.4453Z" fill="#FFC54D"/>
<path d="M204.657 85.2734C204.569 85.3174 204.366 85.4763 204.276 85.513C204.251 85.5496 204.129 85.6254 203.862 85.755C203.344 86.0092 200.269 87.1776 199.555 87.4318C197.981 87.9916 196.986 88.1871 196.747 88.7053C196.666 88.8789 196.686 89.2504 196.766 89.6586C196.776 89.7026 196.784 89.7466 196.793 89.7906C197.16 89.8615 204.459 85.953 204.654 85.2734H204.657Z" fill="#FFD868"/>
<path d="M201.783 84.6484C201.583 83.9762 201.754 83.7709 201.881 83.722C203.345 83.1769 208.661 81.7763 208.943 81.6614C209.451 81.4512 209.615 80.7815 209.713 80.4099C209.837 79.9357 209.923 79.4542 210.021 78.9727C209.84 79.2586 209.644 79.508 209.429 79.6913C208.463 80.5224 207.18 80.7668 205.657 81.2141C204.433 81.5734 203.448 81.8423 202.194 82.2285C201.14 82.5536 201.316 83.1256 201.478 84.0496C201.478 84.0496 201.614 84.5458 201.783 84.646V84.6484Z" fill="#FFD868"/>
<path d="M207.588 92.1283C207.541 92.0012 207.118 90.7228 207.07 90.625C204.87 91.9083 201.824 93.4018 198.803 94.2084C199.213 95.0908 199.531 94.9955 200.631 94.7168C202.159 94.3282 203.396 93.8906 203.396 93.8906C203.396 93.8906 207.184 92.2798 207.588 92.1283Z" fill="#FFA115"/>
<path d="M205.704 89.009C205.575 88.723 205.416 88.4517 205.286 88.1657C205.276 88.1413 205.069 88.0337 205.059 88.0117C202.661 89.0457 199.843 89.9623 197.068 90.6394C197.161 90.8447 197.264 91.0158 197.371 91.116C197.723 91.4485 198.168 91.3923 198.757 91.2945C199.733 91.1332 200.786 90.8618 201.387 90.6981C201.615 90.6467 201.734 90.615 201.884 90.5587C203.179 90.0723 204.435 89.5859 205.729 89.0946C205.719 89.0652 205.709 89.0359 205.699 89.009H205.704Z" fill="#FFA115"/>
<path d="M208.194 93.7812C206.402 95.045 203.98 95.5852 201.834 96.2549C201.851 96.2867 201.868 96.316 201.885 96.3503C202.179 96.888 202.179 97.2253 203.059 97.086C204.049 96.9296 205.501 96.5654 206.549 96.2085C207.307 95.9518 207.991 95.7221 208.617 95.4947C208.478 95.0279 208.316 94.253 208.194 93.7837V93.7812Z" fill="#FFA115"/>
<path d="M202.452 84.9259C201.643 84.8916 201.65 84.3148 201.477 84.0508C201.545 84.4443 201.601 84.7621 201.665 85.0163C201.665 85.0187 201.665 85.0212 201.667 85.0261C201.687 85.1067 201.709 85.1825 201.731 85.2485C201.733 85.2583 201.736 85.2681 201.741 85.2754C201.763 85.339 201.787 85.3976 201.811 85.4489C201.816 85.4587 201.821 85.4709 201.826 85.4807C201.851 85.5296 201.88 85.5712 201.909 85.6078C201.917 85.6176 201.924 85.6274 201.931 85.6347C201.961 85.6689 201.995 85.6983 202.029 85.7227C202.039 85.73 202.049 85.7349 202.058 85.7423C202.095 85.7643 202.134 85.7838 202.176 85.796C202.188 85.8009 202.2 85.8034 202.212 85.8058C202.256 85.8156 202.3 85.8254 202.349 85.8278C202.486 85.8376 202.647 85.8205 202.848 85.7789C203.373 85.6714 204.129 85.4587 204.258 85.4856C205.126 85.0212 205.664 84.7034 206.233 84.305C204.85 84.4688 203.931 84.9845 202.449 84.9234L202.452 84.9259Z" fill="#FF8515"/>
<path d="M215.109 71.6196L213.395 72.964C213.647 77.2587 212.117 82.5385 211.1 83.9074C210.499 84.7165 209.335 85.5549 208.49 86.0682C207.199 86.8528 205.527 87.8086 204.623 88.2192C204.593 88.2339 204.579 88.2754 204.557 88.3072C204.696 88.4074 204.833 88.5199 204.95 88.6445C205.319 89.0356 205.566 89.5489 205.613 90.0843C205.652 90.5267 205.784 90.842 205.923 91.2722C206.045 91.6486 206.299 91.8662 206.471 92.1986C206.639 92.5262 206.857 93.0077 207.057 93.4526C207.404 94.2201 207.8 94.9412 207.8 95.7796C210.061 94.9998 211.604 94.3668 213.041 92.9588C216.514 89.5612 220.829 82.739 215.109 71.6172V71.6196Z" fill="#FFA115"/>
<path opacity="0.6" d="M220.475 63.7468C221.296 62.9255 225.359 65.7903 227.021 67.274C228.683 68.7577 231.279 70.0459 231.604 73.2822C231.929 76.521 230.113 78.6353 229.627 81.395C229.14 84.1547 228.412 87.4961 227.461 87.3299C226.51 87.1637 227.329 83.7269 227.982 81.1212C228.634 78.5155 228.908 76.0663 228.06 72.6344C226.292 65.4749 220.018 64.2014 220.475 63.7443V63.7468Z" fill="#FFE6FD"/>
<path opacity="0.6" d="M194.423 98.5215C194.939 98.0058 192.313 97.5047 190.412 96.61C187.62 95.2974 187.921 93.7673 185.907 92.2933C183.976 90.8805 181.722 90.2425 180.634 91.1445C179.547 92.044 178.992 93.6939 182.649 94.1828C186.308 94.6717 184.731 94.8917 188.363 96.7885C191.798 98.5826 194.105 98.8393 194.423 98.5215Z" fill="#FFE6FD"/>
<path opacity="0.75" d="M174.935 78.8063C174.14 77.6256 170.359 76.2104 169.215 67.374C169.215 67.374 169.706 68.7795 173.783 68.122C177.411 67.5378 177.944 66.1445 177.944 66.1445C177.944 66.1445 179.899 71.0992 176.897 78.4078C176.514 79.344 178.388 86.7895 178.388 86.7895C178.388 86.7895 181.547 86.2347 181.847 87.7697C182.143 89.2852 173.967 91.0085 173.783 88.8086C173.722 88.0728 176.834 87.0828 176.834 87.0828C176.834 87.0828 175.727 79.9869 174.935 78.8063Z" fill="#8BDCE6"/>
<path opacity="0.37" d="M177.818 75.7166C179.424 69.9113 177.945 66.1445 177.945 66.1445C177.945 66.1445 177.881 66.5112 177.461 66.7287C178.404 69.9577 178.314 73.4678 177.818 75.7166Z" fill="#389EBA"/>
<path opacity="0.37" d="M173.678 77.5924C173.7 77.6022 173.725 77.6144 173.744 77.6291C173.945 77.7806 174.155 77.9199 174.375 78.0348C173.424 77.2111 170.469 74.2827 170.251 68.0961C169.374 67.8248 169.215 67.375 169.215 67.375C170.039 73.7205 172.219 76.2407 173.678 77.5924Z" fill="#389EBA"/>
<g style="mix-blend-mode:screen" opacity="0.75">
<path d="M181.846 87.7679C181.838 87.7337 181.826 87.7043 181.819 87.6726C181.472 87.6041 181.122 87.5455 180.77 87.499C180.374 87.4452 179.954 87.3719 179.555 87.4037C179.282 87.4257 179.025 87.4428 178.788 87.3572C178.58 87.433 178.328 87.367 178.272 87.0908C177.717 84.4313 176.752 81.8574 176.468 79.1442C176.424 79.1051 176.392 79.0562 176.37 79C176.341 79.0147 176.309 79.0293 176.278 79.0391C176.273 79.0391 176.27 79.0391 176.265 79.0416C176.246 79.044 176.224 79.0464 176.207 79.0489C176.19 79.0489 176.165 79.0562 176.146 79.0562C176.131 79.0562 176.116 79.0562 176.102 79.0513C176.537 80.2833 176.708 81.613 176.952 82.889C177.236 84.3751 177.563 85.8613 177.654 87.3743C177.654 87.389 177.654 87.4012 177.654 87.4159C178.199 88.0808 178.778 88.7187 179.333 89.3787C180.807 88.9705 181.966 88.3521 181.851 87.763L181.846 87.7679Z" fill="#8BDCE6"/>
</g>
<path opacity="0.65" d="M175.075 79.068C175.671 79.42 176.639 79.0289 176.896 78.408C177.737 76.3719 178.184 74.5142 178.401 72.8984C178.189 73.9373 177.922 74.9664 177.592 75.9734C177.253 77.0123 176.539 77.9631 175.329 77.8703C174.182 77.7823 173.202 76.9683 172.41 76.1959C172.376 76.1641 172.344 76.1299 172.312 76.0981C173.625 77.8165 174.706 78.2516 175.077 79.068H175.075Z" fill="#389EBA"/>
<path opacity="0.65" d="M179.644 86.8435C179.629 86.7677 179.615 86.7506 179.578 86.6919C178.925 86.6944 178.39 86.7897 178.39 86.7897C178.39 86.7897 178.38 86.7506 178.363 86.6797C178.109 86.9168 177.764 87.0952 177.425 87.1466C177.224 87.1783 177.014 87.1881 176.818 87.1197C176.804 87.1148 176.791 87.1074 176.779 87.1026C176.628 87.1514 176.183 87.303 175.682 87.5059C175.007 88.9187 179.4 88.1879 179.644 86.8459V86.8435Z" fill="#389EBA"/>
<path d="M177.42 69.3633C177.42 69.3633 174.961 72.5336 171.713 72.8172C171.713 72.8172 173.659 77.0581 175.58 76.5277C177.501 75.9972 177.418 69.3633 177.418 69.3633H177.42Z" fill="#E0C66F"/>
<path opacity="0.75" d="M173.823 68.362C176.234 67.9741 178.079 66.9833 177.945 66.1489C177.811 65.3146 175.747 64.9526 173.336 65.3406C170.925 65.7285 169.08 66.7193 169.214 67.5537C169.348 68.3881 171.411 68.75 173.823 68.362Z" fill="#8BDCE6"/>
<g style="mix-blend-mode:screen" opacity="0.75">
<path d="M177.946 66.1447C177.941 66.1104 177.927 66.0787 177.917 66.0469C177.885 66.7288 176.093 67.7188 173.779 68.0904C171.464 68.4619 169.413 68.083 169.215 67.4475C169.215 67.4817 169.21 67.5159 169.215 67.5502C169.35 68.3837 171.413 68.7454 173.823 68.3592C176.233 67.9706 178.078 66.9806 177.946 66.1471V66.1447Z" fill="#D8FBFF"/>
</g>
<path opacity="0.75" d="M173.724 66.3781C175.577 66.0799 177.197 66.2877 177.647 66.8352C177.87 66.603 177.98 66.3683 177.943 66.1435C177.809 65.3099 175.745 64.9482 173.335 65.3344C170.925 65.723 169.08 66.713 169.212 67.5465C169.263 67.8618 169.591 68.1087 170.106 68.2749C170.055 67.5514 171.649 66.7105 173.722 66.3757L173.724 66.3781Z" fill="#8ED6DE"/>
<g style="mix-blend-mode:screen" opacity="0.75">
<path d="M176.375 77.6894C176.498 77.5868 176.61 77.4768 176.718 77.3594C177.099 73.886 176.903 71.4294 176.544 67.582C175.931 67.9145 174.901 68.2127 173.604 68.4082C174.117 70.2122 175.275 75.5628 175.505 77.9045C175.552 77.9192 175.596 77.9314 175.645 77.9412C175.652 77.9412 175.654 77.9436 175.659 77.9461C175.664 77.9461 175.669 77.9461 175.679 77.9461C175.718 77.9461 175.755 77.9461 175.794 77.9461C175.808 77.9461 175.823 77.9461 175.835 77.9436C175.867 77.9339 175.901 77.9314 175.933 77.9216C175.97 77.9119 176.006 77.8996 176.041 77.8874C176.048 77.885 176.053 77.8825 176.058 77.8825C176.063 77.8801 176.067 77.8776 176.075 77.8727C176.136 77.841 176.197 77.8092 176.256 77.7701C176.285 77.7505 176.314 77.731 176.344 77.709C176.353 77.7016 176.361 77.6968 176.371 77.6894H176.375Z" fill="#8BDCE6"/>
</g>
<path opacity="0.6" d="M224.071 90.5899C224.646 90.5997 224.426 94.1049 222.165 95.0924C219.904 96.0799 217.86 95.8111 218.672 95.0289C219.483 94.2467 222.918 90.5704 224.071 90.5899Z" fill="#FFE6FD"/>
<path opacity="0.2" d="M239.375 78.7371C237.957 70.4875 229.896 63.9244 219.725 60.3263C219.803 60.1454 219.876 59.9621 219.947 59.7788C219.993 59.6614 220.037 59.5416 220.081 59.4219C229.209 62.7609 238.179 69.3435 239.375 78.7371Z" fill="#FFDEF1"/>
<g opacity="0.93">
<path opacity="0.6" d="M202.467 105.359C193.335 105.359 185.924 103.921 179.461 100.648C185.78 104.051 193.773 106.058 202.467 105.855C210.208 105.674 217.463 103.919 223.464 101.062C218.654 103.019 211.303 105.359 202.467 105.359Z" fill="#FF70F3"/>
</g>
<path d="M33.2226 61H19.0786C18.6733 61 18.3746 60.9147 18.1826 60.744C18.012 60.552 17.9266 60.2533 17.9266 59.848V55.976C17.9266 55.5707 18.012 55.2827 18.1826 55.112C18.3746 54.92 18.6733 54.824 19.0786 54.824H22.6626V44.136H19.7186C19.3133 44.136 19.0146 44.0507 18.8226 43.88C18.652 43.688 18.5666 43.3893 18.5666 42.984V39.112C18.5666 38.7067 18.652 38.4187 18.8226 38.248C19.0146 38.056 19.3133 37.96 19.7186 37.96H28.9986C29.404 37.96 29.692 38.056 29.8626 38.248C30.0546 38.4187 30.1506 38.7067 30.1506 39.112V54.824H33.2226C33.628 54.824 33.916 54.92 34.0866 55.112C34.2786 55.2827 34.3746 55.5707 34.3746 55.976V59.848C34.3746 60.2533 34.2786 60.552 34.0866 60.744C33.916 60.9147 33.628 61 33.2226 61Z" fill="white" fill-opacity="0.05"/>
<path d="M16.56 98.4C16.56 97.3013 16.8053 96.32 17.296 95.456C17.7973 94.5813 18.4747 93.904 19.328 93.424C20.192 92.9333 21.1573 92.688 22.224 92.688C23.472 92.688 24.5653 93.008 25.504 93.648C26.4427 94.288 27.0987 95.1733 27.472 96.304H24.896C24.64 95.7707 24.2773 95.3707 23.808 95.104C23.3493 94.8373 22.816 94.704 22.208 94.704C21.5573 94.704 20.976 94.8587 20.464 95.168C19.9627 95.4667 19.568 95.8933 19.28 96.448C19.0027 97.0027 18.864 97.6533 18.864 98.4C18.864 99.136 19.0027 99.7867 19.28 100.352C19.568 100.907 19.9627 101.339 20.464 101.648C20.976 101.947 21.5573 102.096 22.208 102.096C22.816 102.096 23.3493 101.963 23.808 101.696C24.2773 101.419 24.64 101.013 24.896 100.48H27.472C27.0987 101.621 26.4427 102.512 25.504 103.152C24.576 103.781 23.4827 104.096 22.224 104.096C21.1573 104.096 20.192 103.856 19.328 103.376C18.4747 102.885 17.7973 102.208 17.296 101.344C16.8053 100.48 16.56 99.4987 16.56 98.4ZM33.3213 104.144C32.4679 104.144 31.6999 103.957 31.0173 103.584C30.3346 103.2 29.7959 102.661 29.4013 101.968C29.0173 101.275 28.8253 100.475 28.8253 99.568C28.8253 98.6613 29.0226 97.8613 29.4173 97.168C29.8226 96.4747 30.3719 95.9413 31.0653 95.568C31.7586 95.184 32.5319 94.992 33.3853 94.992C34.2386 94.992 35.0119 95.184 35.7053 95.568C36.3986 95.9413 36.9426 96.4747 37.3373 97.168C37.7426 97.8613 37.9453 98.6613 37.9453 99.568C37.9453 100.475 37.7373 101.275 37.3212 101.968C36.9159 102.661 36.3613 103.2 35.6573 103.584C34.9639 103.957 34.1853 104.144 33.3213 104.144ZM33.3213 102.192C33.7266 102.192 34.1053 102.096 34.4573 101.904C34.8199 101.701 35.1079 101.403 35.3213 101.008C35.5346 100.613 35.6413 100.133 35.6413 99.568C35.6413 98.7253 35.4173 98.08 34.9693 97.632C34.5319 97.1733 33.9933 96.944 33.3533 96.944C32.7133 96.944 32.1746 97.1733 31.7373 97.632C31.3106 98.08 31.0973 98.7253 31.0973 99.568C31.0973 100.411 31.3053 101.061 31.7213 101.52C32.1479 101.968 32.6813 102.192 33.3213 102.192ZM41.8284 92.16V104H39.5884V92.16H41.8284ZM46.2815 92.16V104H44.0415V92.16H46.2815ZM56.7346 99.376C56.7346 99.696 56.7133 99.984 56.6706 100.24H50.1906C50.244 100.88 50.468 101.381 50.8626 101.744C51.2573 102.107 51.7426 102.288 52.3186 102.288C53.1506 102.288 53.7426 101.931 54.0946 101.216H56.5106C56.2546 102.069 55.764 102.773 55.0386 103.328C54.3133 103.872 53.4226 104.144 52.3666 104.144C51.5133 104.144 50.7453 103.957 50.0626 103.584C49.3906 103.2 48.8626 102.661 48.4786 101.968C48.1053 101.275 47.9186 100.475 47.9186 99.568C47.9186 98.6507 48.1053 97.8453 48.4786 97.152C48.852 96.4587 49.3746 95.9253 50.0466 95.552C50.7186 95.1787 51.492 94.992 52.3666 94.992C53.2093 94.992 53.9613 95.1733 54.6226 95.536C55.2946 95.8987 55.812 96.416 56.1746 97.088C56.548 97.7493 56.7346 98.512 56.7346 99.376ZM54.4146 98.736C54.404 98.16 54.196 97.7013 53.7906 97.36C53.3853 97.008 52.8893 96.832 52.3026 96.832C51.748 96.832 51.2786 97.0027 50.8946 97.344C50.5213 97.6747 50.292 98.1387 50.2066 98.736H54.4146ZM57.7936 99.568C57.7936 98.6507 57.9803 97.8507 58.3536 97.168C58.727 96.4747 59.2443 95.9413 59.9056 95.568C60.567 95.184 61.3243 94.992 62.1776 94.992C63.2763 94.992 64.183 95.2693 64.8976 95.824C65.623 96.368 66.1083 97.136 66.3536 98.128H63.9376C63.8096 97.744 63.591 97.4453 63.2816 97.232C62.983 97.008 62.6096 96.896 62.1616 96.896C61.5216 96.896 61.015 97.1307 60.6416 97.6C60.2683 98.0587 60.0816 98.7147 60.0816 99.568C60.0816 100.411 60.2683 101.067 60.6416 101.536C61.015 101.995 61.5216 102.224 62.1616 102.224C63.0683 102.224 63.6603 101.819 63.9376 101.008H66.3536C66.1083 101.968 65.623 102.731 64.8976 103.296C64.1723 103.861 63.2656 104.144 62.1776 104.144C61.3243 104.144 60.567 103.957 59.9056 103.584C59.2443 103.2 58.727 102.667 58.3536 101.984C57.9803 101.291 57.7936 100.485 57.7936 99.568ZM70.6026 96.976V101.264C70.6026 101.563 70.672 101.781 70.8106 101.92C70.96 102.048 71.2053 102.112 71.5466 102.112H72.5866V104H71.1786C69.2906 104 68.3466 103.083 68.3466 101.248V96.976H67.2906V95.136H68.3466V92.944H70.6026V95.136H72.5866V96.976H70.6026ZM25.584 114.136L20.096 127.192H17.712L19.632 122.776L16.08 114.136H18.592L20.88 120.328L23.2 114.136H25.584ZM30.7275 123.144C29.8742 123.144 29.1062 122.957 28.4235 122.584C27.7408 122.2 27.2022 121.661 26.8075 120.968C26.4235 120.275 26.2315 119.475 26.2315 118.568C26.2315 117.661 26.4288 116.861 26.8235 116.168C27.2288 115.475 27.7782 114.941 28.4715 114.568C29.1648 114.184 29.9382 113.992 30.7915 113.992C31.6448 113.992 32.4182 114.184 33.1115 114.568C33.8048 114.941 34.3488 115.475 34.7435 116.168C35.1488 116.861 35.3515 117.661 35.3515 118.568C35.3515 119.475 35.1435 120.275 34.7275 120.968C34.3222 121.661 33.7675 122.2 33.0635 122.584C32.3702 122.957 31.5915 123.144 30.7275 123.144ZM30.7275 121.192C31.1328 121.192 31.5115 121.096 31.8635 120.904C32.2262 120.701 32.5142 120.403 32.7275 120.008C32.9408 119.613 33.0475 119.133 33.0475 118.568C33.0475 117.725 32.8235 117.08 32.3755 116.632C31.9382 116.173 31.3995 115.944 30.7595 115.944C30.1195 115.944 29.5808 116.173 29.1435 116.632C28.7168 117.08 28.5035 117.725 28.5035 118.568C28.5035 119.411 28.7115 120.061 29.1275 120.52C29.5542 120.968 30.0875 121.192 30.7275 121.192ZM45.3626 114.136V123H43.1066V121.88C42.8186 122.264 42.44 122.568 41.9706 122.792C41.512 123.005 41.0106 123.112 40.4666 123.112C39.7733 123.112 39.16 122.968 38.6266 122.68C38.0933 122.381 37.672 121.949 37.3626 121.384C37.064 120.808 36.9146 120.125 36.9146 119.336V114.136H39.1546V119.016C39.1546 119.72 39.3306 120.264 39.6826 120.648C40.0346 121.021 40.5146 121.208 41.1226 121.208C41.7413 121.208 42.2266 121.021 42.5786 120.648C42.9306 120.264 43.1066 119.72 43.1066 119.016V114.136H45.3626ZM49.8128 115.512C50.1008 115.043 50.4741 114.675 50.9328 114.408C51.4021 114.141 51.9354 114.008 52.5328 114.008V116.36H51.9408C51.2368 116.36 50.7034 116.525 50.3408 116.856C49.9888 117.187 49.8128 117.763 49.8128 118.584V123H47.5728V114.136H49.8128V115.512ZM60.094 115.512C60.382 115.043 60.7553 114.675 61.214 114.408C61.6833 114.141 62.2167 114.008 62.814 114.008V116.36H62.222C61.518 116.36 60.9847 116.525 60.622 116.856C60.27 117.187 60.094 117.763 60.094 118.584V123H57.854V114.136H60.094V115.512ZM72.5628 118.376C72.5628 118.696 72.5414 118.984 72.4988 119.24H66.0188C66.0721 119.88 66.2961 120.381 66.6908 120.744C67.0854 121.107 67.5708 121.288 68.1468 121.288C68.9788 121.288 69.5708 120.931 69.9228 120.216H72.3388C72.0828 121.069 71.5921 121.773 70.8668 122.328C70.1414 122.872 69.2508 123.144 68.1948 123.144C67.3414 123.144 66.5734 122.957 65.8908 122.584C65.2188 122.2 64.6908 121.661 64.3068 120.968C63.9334 120.275 63.7467 119.475 63.7467 118.568C63.7467 117.651 63.9334 116.845 64.3068 116.152C64.6801 115.459 65.2028 114.925 65.8748 114.552C66.5468 114.179 67.3201 113.992 68.1948 113.992C69.0374 113.992 69.7894 114.173 70.4508 114.536C71.1228 114.899 71.6401 115.416 72.0028 116.088C72.3761 116.749 72.5628 117.512 72.5628 118.376ZM70.2428 117.736C70.2321 117.16 70.0241 116.701 69.6188 116.36C69.2134 116.008 68.7174 115.832 68.1308 115.832C67.5761 115.832 67.1068 116.003 66.7228 116.344C66.3494 116.675 66.1201 117.139 66.0348 117.736H70.2428ZM86.4858 114.136L83.8938 123H81.4778L79.8618 116.808L78.2458 123H75.8138L73.2058 114.136H75.4778L77.0458 120.888L78.7418 114.136H81.1098L82.7738 120.872L84.3418 114.136H86.4858ZM87.1217 118.536C87.1217 117.64 87.2977 116.845 87.6497 116.152C88.0124 115.459 88.4978 114.925 89.1058 114.552C89.7244 114.179 90.4124 113.992 91.1698 113.992C91.8311 113.992 92.4071 114.125 92.8978 114.392C93.3991 114.659 93.7991 114.995 94.0978 115.4V114.136H96.3538V123H94.0978V121.704C93.8098 122.12 93.4098 122.467 92.8978 122.744C92.3964 123.011 91.8151 123.144 91.1538 123.144C90.4071 123.144 89.7244 122.952 89.1058 122.568C88.4978 122.184 88.0124 121.645 87.6497 120.952C87.2977 120.248 87.1217 119.443 87.1217 118.536ZM94.0978 118.568C94.0978 118.024 93.9911 117.56 93.7778 117.176C93.5644 116.781 93.2764 116.483 92.9138 116.28C92.5511 116.067 92.1618 115.96 91.7458 115.96C91.3298 115.96 90.9458 116.061 90.5938 116.264C90.2418 116.467 89.9538 116.765 89.7298 117.16C89.5164 117.544 89.4098 118.003 89.4098 118.536C89.4098 119.069 89.5164 119.539 89.7298 119.944C89.9538 120.339 90.2418 120.643 90.5938 120.856C90.9564 121.069 91.3404 121.176 91.7458 121.176C92.1618 121.176 92.5511 121.075 92.9138 120.872C93.2764 120.659 93.5644 120.36 93.7778 119.976C93.9911 119.581 94.0978 119.112 94.0978 118.568ZM100.782 115.512C101.07 115.043 101.443 114.675 101.902 114.408C102.371 114.141 102.904 114.008 103.502 114.008V116.36H102.91C102.206 116.36 101.672 116.525 101.31 116.856C100.958 117.187 100.782 117.763 100.782 118.584V123H98.5415V114.136H100.782V115.512ZM104.434 118.536C104.434 117.64 104.61 116.845 104.962 116.152C105.325 115.459 105.816 114.925 106.434 114.552C107.053 114.179 107.741 113.992 108.498 113.992C109.074 113.992 109.624 114.12 110.146 114.376C110.669 114.621 111.085 114.952 111.394 115.368V111.16H113.666V123H111.394V121.688C111.117 122.125 110.728 122.477 110.226 122.744C109.725 123.011 109.144 123.144 108.482 123.144C107.736 123.144 107.053 122.952 106.434 122.568C105.816 122.184 105.325 121.645 104.962 120.952C104.61 120.248 104.434 119.443 104.434 118.536ZM111.41 118.568C111.41 118.024 111.304 117.56 111.09 117.176C110.877 116.781 110.589 116.483 110.226 116.28C109.864 116.067 109.474 115.96 109.058 115.96C108.642 115.96 108.258 116.061 107.906 116.264C107.554 116.467 107.266 116.765 107.042 117.16C106.829 117.544 106.722 118.003 106.722 118.536C106.722 119.069 106.829 119.539 107.042 119.944C107.266 120.339 107.554 120.643 107.906 120.856C108.269 121.069 108.653 121.176 109.058 121.176C109.474 121.176 109.864 121.075 110.226 120.872C110.589 120.659 110.877 120.36 111.09 119.976C111.304 119.581 111.41 119.112 111.41 118.568ZM119.246 123.144C118.521 123.144 117.87 123.016 117.294 122.76C116.718 122.493 116.259 122.136 115.918 121.688C115.587 121.24 115.406 120.744 115.374 120.2H117.63C117.673 120.541 117.838 120.824 118.126 121.048C118.425 121.272 118.793 121.384 119.23 121.384C119.657 121.384 119.987 121.299 120.222 121.128C120.467 120.957 120.59 120.739 120.59 120.472C120.59 120.184 120.441 119.971 120.142 119.832C119.854 119.683 119.39 119.523 118.75 119.352C118.089 119.192 117.545 119.027 117.118 118.856C116.702 118.685 116.339 118.424 116.03 118.072C115.731 117.72 115.582 117.245 115.582 116.648C115.582 116.157 115.721 115.709 115.998 115.304C116.286 114.899 116.691 114.579 117.214 114.344C117.747 114.109 118.371 113.992 119.086 113.992C120.142 113.992 120.985 114.259 121.614 114.792C122.243 115.315 122.59 116.024 122.654 116.92H120.51C120.478 116.568 120.329 116.291 120.062 116.088C119.806 115.875 119.459 115.768 119.022 115.768C118.617 115.768 118.302 115.843 118.078 115.992C117.865 116.141 117.758 116.349 117.758 116.616C117.758 116.915 117.907 117.144 118.206 117.304C118.505 117.453 118.969 117.608 119.598 117.768C120.238 117.928 120.766 118.093 121.182 118.264C121.598 118.435 121.955 118.701 122.254 119.064C122.563 119.416 122.723 119.885 122.734 120.472C122.734 120.984 122.59 121.443 122.302 121.848C122.025 122.253 121.619 122.573 121.086 122.808C120.563 123.032 119.95 123.144 119.246 123.144Z" fill="white"/>
</svg>
