<svg width="146" height="38" viewBox="0 0 146 38" fill="none" xmlns="http://www.w3.org/2000/svg">
<rect width="146" height="38" rx="19" fill="#FFC54D"/>
<path d="M34.0506 25H25.9066C25.7039 25 25.5546 24.9573 25.4586 24.872C25.3732 24.776 25.3306 24.6267 25.3306 24.424V14.056C25.3306 13.8533 25.3732 13.7093 25.4586 13.624C25.5546 13.528 25.7039 13.48 25.9066 13.48H28.3866C28.5892 13.48 28.7332 13.528 28.8186 13.624C28.9146 13.7093 28.9626 13.8533 28.9626 14.056V21.976H31.1546V19.384C31.1546 19.1813 31.1972 19.0373 31.2826 18.952C31.3786 18.856 31.5279 18.808 31.7306 18.808H34.0506C34.2532 18.808 34.3972 18.856 34.4826 18.952C34.5786 19.0373 34.6266 19.1813 34.6266 19.384V24.424C34.6266 24.6267 34.5786 24.776 34.4826 24.872C34.3972 24.9573 34.2532 25 34.0506 25ZM44.4556 25H37.0316C36.8289 25 36.6796 24.9573 36.5836 24.872C36.4982 24.776 36.4556 24.6267 36.4556 24.424V14.056C36.4556 13.8533 36.4982 13.7093 36.5836 13.624C36.6796 13.528 36.8289 13.48 37.0316 13.48H44.4556C44.6582 13.48 44.8022 13.528 44.8876 13.624C44.9836 13.7093 45.0316 13.8533 45.0316 14.056V15.928C45.0316 16.1307 44.9836 16.28 44.8876 16.376C44.8022 16.4613 44.6582 16.504 44.4556 16.504H40.0396V17.736H43.1596C43.3622 17.736 43.5062 17.784 43.5916 17.88C43.6876 17.9653 43.7356 18.1093 43.7356 18.312V20.024C43.7356 20.2267 43.6876 20.376 43.5916 20.472C43.5062 20.5573 43.3622 20.6 43.1596 20.6H40.0396V21.976H44.4556C44.6582 21.976 44.8022 22.024 44.8876 22.12C44.9836 22.2053 45.0316 22.3493 45.0316 22.552V24.424C45.0316 24.6267 44.9836 24.776 44.8876 24.872C44.8022 24.9573 44.6582 25 44.4556 25ZM52.3643 25H49.7723C49.5696 25 49.4203 24.9573 49.3243 24.872C49.239 24.776 49.1963 24.6267 49.1963 24.424V16.568H46.8443C46.6416 16.568 46.4923 16.5253 46.3963 16.44C46.311 16.344 46.2683 16.1947 46.2683 15.992V14.056C46.2683 13.8533 46.311 13.7093 46.3963 13.624C46.4923 13.528 46.6416 13.48 46.8443 13.48H55.2923C55.495 13.48 55.639 13.528 55.7243 13.624C55.8203 13.7093 55.8683 13.8533 55.8683 14.056V15.992C55.8683 16.1947 55.8203 16.344 55.7243 16.44C55.639 16.5253 55.495 16.568 55.2923 16.568H52.9403V24.424C52.9403 24.6267 52.8923 24.776 52.7963 24.872C52.711 24.9573 52.567 25 52.3643 25ZM59.2163 19.48H57.9843C57.7816 19.48 57.6323 19.4373 57.5363 19.352C57.451 19.256 57.4083 19.1067 57.4083 18.904V18.264C57.4083 18.0613 57.451 17.9173 57.5363 17.832C57.6323 17.736 57.7816 17.688 57.9843 17.688H59.0883C59.227 17.688 59.3336 17.6507 59.4083 17.576C59.483 17.4907 59.5203 17.3787 59.5203 17.24V17H57.7763C57.5736 17 57.4243 16.9573 57.3283 16.872C57.243 16.776 57.2003 16.6267 57.2003 16.424V14.056C57.2003 13.8533 57.243 13.7093 57.3283 13.624C57.4243 13.528 57.5736 13.48 57.7763 13.48H61.0083C61.211 13.48 61.355 13.528 61.4403 13.624C61.5363 13.7093 61.5843 13.8533 61.5843 14.056V17.064C61.5843 17.8747 61.3656 18.4827 60.9283 18.888C60.5016 19.2827 59.931 19.48 59.2163 19.48ZM68.7527 25H63.6967C63.494 25 63.3447 24.9573 63.2487 24.872C63.1634 24.776 63.1207 24.6267 63.1207 24.424V22.552C63.1207 22.3493 63.1634 22.2053 63.2487 22.12C63.3447 22.024 63.494 21.976 63.6967 21.976H68.0007C68.1394 21.976 68.2407 21.9333 68.3047 21.848C68.3794 21.752 68.4167 21.64 68.4167 21.512C68.4167 21.3307 68.3794 21.1973 68.3047 21.112C68.2407 21.0267 68.1394 20.9787 68.0007 20.968L65.6007 20.632C64.854 20.5253 64.2514 20.28 63.7927 19.896C63.3447 19.512 63.1207 18.872 63.1207 17.976V16.296C63.1207 15.3893 63.414 14.696 64.0007 14.216C64.5874 13.7253 65.398 13.48 66.4327 13.48H70.9127C71.1154 13.48 71.2594 13.528 71.3447 13.624C71.4407 13.7093 71.4887 13.8533 71.4887 14.056V15.96C71.4887 16.1627 71.4407 16.312 71.3447 16.408C71.2594 16.4933 71.1154 16.536 70.9127 16.536H67.1847C67.046 16.536 66.9394 16.584 66.8647 16.68C66.79 16.7653 66.7527 16.8773 66.7527 17.016C66.7527 17.1547 66.79 17.272 66.8647 17.368C66.9394 17.464 67.046 17.5173 67.1847 17.528L69.5687 17.848C70.3154 17.9547 70.918 18.2 71.3767 18.584C71.8354 18.968 72.0647 19.608 72.0647 20.504V22.184C72.0647 23.0907 71.766 23.7893 71.1687 24.28C70.582 24.76 69.7767 25 68.7527 25ZM83.3767 25H77.9847C77.782 25 77.6327 24.9573 77.5367 24.872C77.4514 24.776 77.4087 24.6267 77.4087 24.424V14.056C77.4087 13.8533 77.4514 13.7093 77.5367 13.624C77.6327 13.528 77.782 13.48 77.9847 13.48H83.3767C84.71 13.48 85.6967 13.7467 86.3367 14.28C86.9874 14.8133 87.3127 15.6347 87.3127 16.744V21.736C87.3127 22.8453 86.9874 23.6667 86.3367 24.2C85.6967 24.7333 84.71 25 83.3767 25ZM81.0407 16.536V21.976H82.9447C83.2007 21.976 83.3874 21.912 83.5047 21.784C83.6327 21.656 83.6967 21.4587 83.6967 21.192V17.304C83.6967 17.0373 83.6327 16.8453 83.5047 16.728C83.3874 16.6 83.2007 16.536 82.9447 16.536H81.0407ZM99.1542 21.976C99.1542 22.4667 99.0795 22.9147 98.9302 23.32C98.7915 23.7147 98.5355 24.056 98.1622 24.344C97.7995 24.6213 97.2982 24.84 96.6582 25C96.0182 25.16 95.2022 25.24 94.2102 25.24C93.2182 25.24 92.4022 25.16 91.7622 25C91.1222 24.84 90.6155 24.6213 90.2422 24.344C89.8795 24.056 89.6235 23.7147 89.4742 23.32C89.3355 22.9147 89.2662 22.4667 89.2662 21.976V14.056C89.2662 13.8533 89.3089 13.7093 89.3942 13.624C89.4902 13.528 89.6395 13.48 89.8422 13.48H92.3542C92.5569 13.48 92.7009 13.528 92.7862 13.624C92.8822 13.7093 92.9302 13.8533 92.9302 14.056V21.352C92.9302 21.5653 93.0102 21.7467 93.1702 21.896C93.3302 22.0347 93.6875 22.104 94.2422 22.104C94.8075 22.104 95.1702 22.0347 95.3302 21.896C95.4902 21.7467 95.5702 21.5653 95.5702 21.352V14.056C95.5702 13.8533 95.6129 13.7093 95.6982 13.624C95.7942 13.528 95.9435 13.48 96.1462 13.48H98.5782C98.7809 13.48 98.9249 13.528 99.0102 13.624C99.1062 13.7093 99.1542 13.8533 99.1542 14.056V21.976ZM109.284 25H101.86C101.657 25 101.508 24.9573 101.412 24.872C101.326 24.776 101.284 24.6267 101.284 24.424V14.056C101.284 13.8533 101.326 13.7093 101.412 13.624C101.508 13.528 101.657 13.48 101.86 13.48H109.284C109.486 13.48 109.63 13.528 109.716 13.624C109.812 13.7093 109.86 13.8533 109.86 14.056V15.928C109.86 16.1307 109.812 16.28 109.716 16.376C109.63 16.4613 109.486 16.504 109.284 16.504H104.868V17.736H107.988C108.19 17.736 108.334 17.784 108.42 17.88C108.516 17.9653 108.564 18.1093 108.564 18.312V20.024C108.564 20.2267 108.516 20.376 108.42 20.472C108.334 20.5573 108.19 20.6 107.988 20.6H104.868V21.976H109.284C109.486 21.976 109.63 22.024 109.716 22.12C109.812 22.2053 109.86 22.3493 109.86 22.552V24.424C109.86 24.6267 109.812 24.776 109.716 24.872C109.63 24.9573 109.486 25 109.284 25ZM120.472 25H112.328C112.126 25 111.976 24.9573 111.88 24.872C111.795 24.776 111.752 24.6267 111.752 24.424V14.056C111.752 13.8533 111.795 13.7093 111.88 13.624C111.976 13.528 112.126 13.48 112.328 13.48H114.808C115.011 13.48 115.155 13.528 115.24 13.624C115.336 13.7093 115.384 13.8533 115.384 14.056V21.976H117.576V19.384C117.576 19.1813 117.619 19.0373 117.704 18.952C117.8 18.856 117.95 18.808 118.152 18.808H120.472C120.675 18.808 120.819 18.856 120.904 18.952C121 19.0373 121.048 19.1813 121.048 19.384V24.424C121.048 24.6267 121 24.776 120.904 24.872C120.819 24.9573 120.675 25 120.472 25Z" fill="#070707"/>
</svg>
