<svg xmlns="http://www.w3.org/2000/svg" width="22" height="20" viewBox="0 0 22 20" fill="none">
    <g clip-path="url(#clip0_1201_51102)">
        <path d="M1.87402 11.7891C2.06444 12.2793 2.15996 12.7915 2.36179 13.2764C2.43635 13.4348 2.47411 13.6078 2.59942 13.7384L2.04314 13.9739C2.03277 13.7831 1.94074 13.6234 1.89428 13.4427C1.73775 12.9211 1.56301 12.3897 1.57917 11.8386C1.57918 11.8386 1.87402 11.7891 1.87402 11.7891Z" fill="#070707"/>
        <path d="M7.16774 17.7574C8.32397 18.5234 9.70973 18.8699 11.0863 18.9162C12.0671 18.9814 13.0789 18.9118 14.0332 18.6705C15.5596 18.3013 17.0488 17.6277 18.2511 16.6129C20.0908 15.0775 20.849 12.6202 20.8296 10.2816C20.8296 10.2816 20.83 10.0546 20.83 10.0546C20.8305 10.0544 21.0574 10.0546 21.0581 10.0546L20.831 10.2816C20.8293 9.36205 20.6772 8.44479 20.382 7.57544C19.4914 4.96054 17.356 2.83018 14.8278 1.76169C11.3987 0.496783 7.20492 1.2948 4.58758 3.87953C4.5905 3.87646 4.57555 3.89166 4.59315 3.87353C4.60863 3.85673 4.62192 3.8369 4.6315 3.81653L4.5785 3.88988C3.87205 4.58679 3.28327 5.40324 2.85362 6.29663L2.31445 6.0241C2.80695 5.09181 3.44978 4.2419 4.20439 3.50802L4.15142 3.58134C4.17912 3.52508 4.22453 3.48719 4.26839 3.44716C7.05021 0.779022 11.4101 -0.0394271 15.0065 1.30332C17.6625 2.43095 19.8944 4.67384 20.8218 7.42807C21.1563 8.41744 21.3056 9.46583 21.2847 10.5087C21.2833 10.5087 21.058 10.5087 21.0567 10.5087L21.2837 10.2816C21.2795 11.1021 21.1968 11.9253 21.0144 12.7303C20.6457 14.3391 19.8088 15.8738 18.5296 16.9393C16.9444 18.2602 14.9466 19.0259 12.9098 19.2624C12.3229 19.3436 11.6633 19.3141 11.0695 19.2817C10.044 19.2354 9.01712 19.0324 8.07663 18.611C7.70097 18.44 7.34115 18.2359 6.99951 18.0046L7.16774 17.7574Z" fill="#070707"/>
        <path d="M0.519935 15.1111C0.53966 15.1644 0.539708 15.2232 0.587291 15.2638C0.712081 15.3467 0.899907 15.3955 1.04061 15.4653C1.41398 15.6222 1.9602 15.872 2.33427 16.0454C2.9562 16.3402 3.63055 16.674 4.23782 16.9884C4.61134 17.1889 5.05041 17.2329 5.45185 17.1071C5.45872 17.1043 5.47269 17.101 5.48004 17.1001L5.45291 17.1072C6.78933 16.6823 8.79225 16.0658 10.1474 15.646C10.2955 15.6266 10.3802 15.7385 10.4817 15.8132C10.4918 15.8237 10.5593 15.8826 10.571 15.8954L10.5856 15.9093C10.6611 15.9358 10.7375 15.9609 10.8104 15.9983C10.8131 16.0842 10.8229 16.3973 10.8256 16.4853C10.8336 16.6572 10.7018 16.8281 10.5395 16.8699C9.87439 17.1089 9.15524 17.3787 8.49232 17.6082C7.58102 17.9279 6.66822 18.2541 5.75163 18.5662C5.21994 18.7811 4.6008 18.7808 4.08785 18.513C3.04726 17.9777 1.97309 17.4351 0.953045 16.8636C0.876098 16.8175 0.580135 16.661 0.503387 16.6087C0.374784 16.5265 0.321787 16.3449 0.333651 16.2596C0.353541 15.895 0.377291 15.5094 0.411787 15.1461C0.411846 15.1456 0.418472 15.0709 0.418519 15.0703C0.449566 15.0813 0.500751 15.0842 0.519935 15.1111ZM0.425263 15.1811C0.431406 15.1905 0.443152 15.199 0.453945 15.202L0.529539 15.1456C0.547452 15.3373 0.562352 15.5291 0.575651 15.7208L0.593693 16.0082L0.607758 16.2618L0.608028 16.2667C0.615019 16.3192 0.647856 16.3538 0.695321 16.3695C1.87298 16.8993 3.05048 17.5003 4.2036 18.0831C4.43903 18.2107 4.70472 18.2865 4.97326 18.285C5.18923 18.2899 5.40955 18.2278 5.61117 18.1544C6.52713 17.8395 7.44929 17.5457 8.37011 17.2372C9.03685 17.0146 9.77424 16.7818 10.4468 16.5663C10.5152 16.5534 10.5277 16.4984 10.5248 16.4401L10.5341 16.0771L10.5732 16.1734C10.5544 16.1156 10.5296 16.0542 10.5057 15.9959C10.4223 15.9208 10.2747 15.8051 10.1929 15.7798C8.83808 16.2807 6.88633 17.0162 5.54511 17.4998L5.55442 17.4936C5.55454 17.4933 5.57679 17.4876 5.57699 17.4875C5.32801 17.5725 5.0611 17.6062 4.79771 17.5859C4.53579 17.5671 4.27165 17.4853 4.04534 17.3673C3.62301 17.1564 3.20462 16.9378 2.78644 16.7187C2.20726 16.408 1.49292 16.016 0.932943 15.6773C0.741598 15.5378 0.409574 15.4569 0.412411 15.1723C0.412222 15.1647 0.412446 15.1682 0.414929 15.1728C0.417166 15.1763 0.420932 15.1795 0.425263 15.1811Z" fill="#070707"/>
        <path d="M0.554064 14.8589C1.56029 14.2259 3.01275 13.331 3.99834 12.6953C4.18448 12.7794 4.37194 12.8687 4.55343 12.9628C4.55751 12.9595 4.5509 12.9782 4.54671 12.9918C4.54638 12.995 4.54278 13.005 4.55124 12.9901L4.56121 12.9735C4.56244 12.9722 4.56242 12.9735 4.56309 12.9734L4.57515 12.979L4.62347 13.0013C5.22522 13.2789 6.52088 13.8769 7.13581 14.1606C8.01747 14.579 9.35637 15.175 10.2197 15.6041C10.2197 15.6041 10.4731 15.7565 10.4731 15.7565C10.1878 15.8197 9.89095 15.8976 9.6162 15.9888C9.25083 16.1027 8.2377 16.4268 7.85829 16.5477L5.51757 17.3075C5.28836 17.3793 5.02673 17.4057 4.78281 17.3782C4.34214 17.3485 3.81443 16.994 3.42328 16.8087C2.78325 16.4841 2.0695 16.1422 1.42385 15.8378L0.754919 15.5189L0.588183 15.4383C0.35887 15.3392 0.335143 14.9896 0.554064 14.8589ZM0.635296 14.9898C0.511518 15.0574 0.513578 15.2585 0.647689 15.3211L0.811 15.4085L1.4623 15.762C2.29923 16.2244 3.22606 16.7137 4.08515 17.1414C4.51432 17.3847 5.04595 17.4444 5.51034 17.2803C5.51197 17.2811 7.82539 16.4556 7.82706 16.4558C8.20094 16.3197 9.19778 15.9604 9.56082 15.826C9.75387 15.7572 9.94541 15.6841 10.1331 15.5994L10.1213 15.8145C9.98667 15.7672 9.86161 15.6995 9.73287 15.6397C8.4728 15.0397 6.7691 14.23 5.50542 13.6216C5.36576 13.5546 4.67034 13.2212 4.54554 13.1613L4.49756 13.1383L4.48556 13.1325C4.48522 13.132 4.48419 13.1328 4.48443 13.1311L4.49139 13.113C4.49784 13.0972 4.49224 13.1062 4.4899 13.1084C4.48169 13.1202 4.47106 13.137 4.47114 13.1318C4.30066 13.0594 4.12872 12.9808 3.96264 12.8995L4.05927 12.8947C3.10786 13.4908 1.60751 14.4044 0.635296 14.9898Z" fill="#070707"/>
        <path d="M4.04114 13.875C4.08523 13.4185 4.74229 13.4045 4.77982 13.875C4.78386 14.3964 4.02972 14.3945 4.04114 13.875ZM4.17905 13.875C4.20076 14.0922 4.52334 14.083 4.54669 13.875C4.5752 13.6167 4.155 13.5961 4.17905 13.875Z" fill="#070707"/>
        <path d="M5.77937 14.8984C5.82086 14.4459 6.47298 14.4344 6.50898 14.8984C6.51243 15.4108 5.77105 15.4093 5.77937 14.8984ZM5.91773 14.8984C5.93739 15.1217 6.27281 15.1154 6.29441 14.8984C6.32002 14.6352 5.89618 14.6157 5.91773 14.8984Z" fill="#070707"/>
        <path d="M12.9261 10.7154C12.8493 10.5709 12.6698 10.5167 12.5253 10.5934L9.45452 12.2429C9.31113 12.3197 9.25695 12.4991 9.33371 12.6437C9.41048 12.7882 9.58998 12.8424 9.7345 12.7656L10.2337 12.4975V13.5243C10.2337 14.1712 10.8273 14.8511 11.4067 14.9265C12.0628 15.0118 12.5809 14.6352 12.5809 13.9917V12.9541C12.5809 12.5222 12.3425 12.0961 11.9895 11.8224L11.1299 11.9682L12.2105 11.4357L12.8053 11.1162C12.9487 11.0394 13.0029 10.8599 12.9261 10.7154Z" fill="#070707"/>
        <path d="M5.49718 10.0236C5.49718 10.0236 4.14541 8.14176 3.67415 7.52998C3.46417 7.25738 2.95429 7.55048 3.17714 7.8549L3.60565 8.44103C3.60478 8.44104 3.60395 8.44118 3.60307 8.4412L4.17745 9.2432L3.36962 8.47851C3.03042 8.58055 2.79883 8.88344 2.79883 9.29442V10.5464C2.79883 11.138 3.12171 11.691 3.86798 11.8459C4.28827 11.9331 4.93711 11.5998 4.93711 11.0138C4.93711 11.0138 4.90658 10.3636 4.90183 10.2623C5.26383 10.7636 5.72005 10.3281 5.49718 10.0236Z" fill="#070707"/>
        <path d="M12.0089 9.07624C8.58995 7.98451 8.29788 10.8192 8.29788 10.8192L7.05517 10.3353C7.19545 8.7471 6.33986 7.19769 5.09442 6.7654C4.32826 6.49947 1.00397 5.14062 1.00397 5.14062C1.00397 5.14062 0.465279 11.5405 1.01428 11.8418C1.5633 12.1431 6.28235 14.1088 10.6849 16.3444C15.0875 18.58 15.6617 16.1328 15.7132 15.0942C15.7747 13.8527 15.8282 10.2517 15.8282 10.2517C15.8282 10.2517 14.7608 9.95498 12.0089 9.07624ZM14.3617 14.8731C14.2879 16.3643 13.3366 16.3644 13.024 16.3644C12.3476 16.3645 11.4508 16.0833 10.3585 15.5286C7.54184 14.0983 5.51809 13.2333 3.7512 12.382C3.03274 12.0358 1.84911 11.4735 1.53832 11.3179C1.43695 10.7743 1.44684 8.42831 1.62636 6.14485C2.50216 6.48862 4.009 7.12375 4.50655 7.29644C5.5274 7.65078 6.09794 8.59164 5.99553 9.75191L5.95036 10.6492L8.88009 11.829L8.96087 11.0626C8.9819 11.0076 9.13751 9.28601 10.9606 9.61828C11.2191 9.66539 11.5081 9.66357 11.8066 9.75282C13.4285 10.2377 13.939 10.4523 14.4672 10.601C14.4495 11.6549 14.4076 13.947 14.3617 14.8731Z" fill="#070707"/>
        <path d="M15.8297 10.2497C15.8297 10.2497 21.2932 8.48555 21.5068 8.41531C21.7205 8.34508 21.7969 11.2503 21.2302 11.9039C20.6635 12.5576 20.4514 10.7368 20.4514 10.7368L15.793 12.4129L15.8297 10.2497Z" fill="#070707"/>
        <path d="M8.13915 4.69111C7.26548 5.04141 6.39871 4.93203 6.20342 4.44466C6.00826 3.95728 6.55789 3.27884 7.43156 2.92715C8.30523 2.57686 9.17065 2.68762 9.36716 3.175C9.56245 3.66238 9.01282 4.34081 8.13915 4.69111Z" fill="#070707"/>
        <path d="M1.00391 5.14001L3.46202 4.42969L2.40776 6.14423L1.00391 5.14001Z" fill="#070707"/>
    </g>
    <defs>
        <clipPath id="clip0_1201_51102">
            <rect width="21.3333" height="18.6468" fill="white" transform="translate(0.332031 0.667969)"/>
        </clipPath>
    </defs>
</svg>