<svg xmlns="http://www.w3.org/2000/svg" width="22" height="22" viewBox="0 0 22 22" fill="none">
    <g clip-path="url(#clip0_1201_51160)">
        <path d="M1.86917 15.8098C1.51087 15.7472 1.20093 15.5281 0.948167 15.1587C0.360675 14.3005 0.171002 12.6982 0.476141 11.1715C0.730644 9.8978 1.30373 9.3149 1.73963 9.0502C2.22059 8.75799 2.64089 8.77709 2.659 8.77785L2.64656 9.0151C2.58709 9.01293 1.15793 8.97238 0.709053 11.2181C0.415692 12.686 0.590535 14.2157 1.14419 15.0245C1.35952 15.3391 1.61719 15.5245 1.91 15.5757L1.86917 15.8098Z" fill="#070707"/>
        <path d="M9.58586 4.44549C6.69866 4.89949 4.18459 6.52338 2.83423 9.03102C1.62376 11.2569 1.43718 14.0715 2.51441 16.3836C2.51442 16.3836 1.98618 16.6072 1.98618 16.6072C1.68104 15.7613 1.44953 14.8907 1.36468 13.9949C0.98313 10.143 3.21193 6.49573 6.60016 4.96526C7.53094 4.53854 8.53221 4.27005 9.54866 4.16406L9.58586 4.44549Z" fill="#070707"/>
        <path d="M6.85113 20.2004C7.99183 20.9142 9.33283 21.2379 10.6693 21.2695C12.2531 21.3796 13.8516 21.0203 15.2923 20.3674C15.7362 20.1661 16.1618 19.9275 16.5667 19.6612C16.9169 19.4182 17.3579 19.1608 17.5041 18.7461L18.0374 18.9575C17.8877 19.2488 17.7074 19.428 17.473 19.6293C15.6347 21.0075 13.3272 21.7847 11.0247 21.7063C10.5261 21.6824 10.0056 21.6603 9.51285 21.5759C8.50572 21.4139 7.51472 21.046 6.69141 20.435L6.85113 20.2004Z" fill="#070707"/>
        <path d="M17.1274 19.0164C16.4059 19.0164 15.6585 18.8218 15.0501 18.0099C14.2216 16.9045 14.063 15.2452 14.6151 13.4573C15.0043 12.197 15.7779 11.357 16.9142 10.9609L16.9924 11.1853C15.9313 11.5552 15.2079 12.3432 14.8422 13.5274C14.3206 15.2165 14.4693 16.8389 15.2402 17.8674C16.066 18.9694 17.1618 18.8206 18.1278 18.6891C18.2129 18.6776 18.2968 18.6662 18.3795 18.6557L18.4092 18.8914C18.3273 18.9018 18.2441 18.9131 18.1599 18.9246C17.8354 18.9687 17.4845 19.0163 17.1274 19.0164Z" fill="#070707"/>
        <path d="M17.7221 19.0135C17.211 19.0135 16.7485 18.8877 16.3685 18.6358C15.5114 18.0678 15.0958 16.9342 15.1332 15.2665C15.1887 12.7871 16.5022 11.2149 18.9315 10.7199C20.0202 10.4977 20.9397 11.2047 21.3925 12.6093C22.0879 14.7673 21.4589 17.6956 19.4139 18.6152C18.8235 18.8806 18.2472 19.0135 17.7221 19.0135ZM18.9985 11.0484C16.7085 11.5151 15.5207 12.9367 15.4684 15.274C15.4343 16.7972 15.8096 17.8631 16.5537 18.3564C17.2262 18.8022 18.2187 18.785 19.2763 18.3094C21.1298 17.476 21.711 14.6906 21.0734 12.7121C20.504 10.9452 19.4327 10.96 18.9985 11.0484Z" fill="#070707"/>
        <path d="M20.175 11.7974C19.8599 11.4406 19.2834 11.4624 18.9542 11.5243C18.2081 11.6646 16.6928 12.6351 16.5991 14.548C16.5756 15.0266 16.6763 15.2215 16.8653 15.5034C18.1394 17.4044 21.776 13.6102 20.175 11.7974Z" fill="#070707"/>
        <path d="M19.5764 10.9206C19.3872 8.80423 18.7681 7.06316 17.7363 5.74577L18.0002 5.53906C19.0727 6.90825 19.7153 8.70884 19.9103 10.8908L19.5764 10.9206Z" fill="#070707"/>
        <path d="M15.0531 3.59988C14.1299 3.14352 13.0464 2.80716 11.8329 2.60007C10.945 2.44859 10.0891 2.40761 9.28924 2.47823L9.25977 2.14426C10.088 2.07103 10.9729 2.11322 11.8892 2.26961C13.1348 2.48216 14.2493 2.82862 15.2017 3.29932L15.0531 3.59988Z" fill="#070707"/>
        <path d="M16.8682 11.6803C16.864 11.6426 16.4283 7.89958 15.3103 6.80172C14.9583 6.45614 13.6897 5.82669 13.0801 5.52421L13.0325 5.50064C12.5678 5.26998 10.8835 4.5082 8.71896 4.38859C6.73452 4.27891 5.03186 4.77548 3.79272 5.82435L3.16016 6.35983L3.53493 5.62059C3.56014 5.57088 4.16847 4.39258 5.62065 3.40625L5.80902 3.68356C5.15801 4.12578 4.68229 4.61434 4.36109 5.00772C5.56225 4.28889 7.05634 3.96093 8.73738 4.05381C10.9659 4.17698 12.7023 4.96249 13.1816 5.2003L13.229 5.22387C13.9022 5.55789 15.1552 6.17953 15.5451 6.56249C16.7477 7.74341 17.1834 11.4839 17.2013 11.6426L16.8682 11.6803Z" fill="#070707"/>
        <path d="M16.6776 6.69111C16.4599 6.69111 16.3617 6.59588 16.3174 6.51295C15.8325 5.60498 14.0575 4.92298 14.0396 4.91616L13.8398 4.84037L13.961 4.66439C13.9826 4.63296 14.4979 3.88716 15.127 3.19633C16.038 2.19592 16.6925 1.84914 17.1273 2.1365C18.0357 2.73649 18.1855 5.35065 17.9116 6.04165C17.7948 6.33649 17.1215 6.66727 16.7229 6.68981C16.7072 6.69069 16.6921 6.69111 16.6776 6.69111ZM16.609 6.34723C16.6412 6.36136 16.7609 6.36632 16.9675 6.29866C17.3001 6.18991 17.5684 5.99755 17.5999 5.91809C17.8283 5.34201 17.6829 2.90525 16.9425 2.4162C16.6579 2.22877 15.6763 2.81553 14.3565 4.68342C14.8582 4.89777 16.1597 5.5174 16.609 6.34723Z" fill="#070707"/>
        <path d="M5.81502 3.79508C5.63877 3.79508 5.57722 3.75633 5.53541 3.68179C5.50365 3.62515 5.49503 3.53533 5.56586 3.4532C5.61421 3.38773 5.76263 2.98342 5.89349 2.62676C6.45053 1.10921 6.75481 0.418759 7.08549 0.338752C7.57869 0.220883 8.94825 1.68403 9.51292 2.3197L9.61093 2.42998L9.51402 2.54119C9.48237 2.57742 8.72998 3.42989 7.89027 3.50804C7.69296 3.52638 7.37253 3.57914 7.03333 3.63502C6.376 3.74323 6.01879 3.79508 5.81502 3.79508ZM7.16963 0.664802C7.16691 0.664802 7.16418 0.664913 7.16167 0.665126C6.9363 0.758599 6.42609 2.14868 6.20825 2.74228C6.08122 3.0883 5.99838 3.31088 5.93672 3.45516C6.19483 3.43328 6.65003 3.35836 6.97887 3.30416C7.32407 3.24736 7.65006 3.19366 7.85927 3.17418C8.4066 3.12326 8.94191 2.64525 9.15954 2.42768C8.36589 1.54972 7.41312 0.664802 7.16963 0.664802Z" fill="#070707"/>
        <path d="M9.27344 3.27193C9.27344 3.27193 9.66417 2.64749 10.45 2.66849C11.2357 2.68949 13.1746 3.13425 13.9549 3.49034C14.7352 3.84643 13.0559 3.78157 11.891 3.49034C10.7261 3.19912 9.82062 3.53671 9.27344 3.27193Z" fill="#070707"/>
        <path d="M3.20403 11.1955C3.074 11.0444 2.94861 10.8913 2.82875 10.7153C2.7935 10.6691 2.753 10.5955 2.75183 10.5194C2.74636 10.2072 3.18982 10.0333 3.40439 10.2583C3.44822 10.3034 3.48313 10.3571 3.52065 10.4021C3.90628 10.9021 4.60115 11.8555 4.98359 12.3722L5.19049 12.6549C5.27033 12.7497 5.36662 12.909 5.32792 13.0526C5.22913 13.4563 4.76951 13.4619 4.55753 13.158C4.54028 13.1379 4.52645 13.1162 4.51094 13.0953L4.66765 13.0406C4.71074 13.3216 4.78012 13.6012 4.76956 13.8873C4.71813 14.473 4.06414 14.8638 3.51321 14.7462C2.80452 14.6107 2.33052 13.9813 2.37384 13.2691C2.37381 13.2691 2.38074 12.4425 2.38074 12.4425L2.38247 12.2358C2.35524 11.8596 2.49419 11.4379 2.8496 11.253C2.95291 11.1971 3.06486 11.1607 3.18073 11.1461C3.2087 11.1416 3.19946 11.1425 3.19641 11.1529C3.193 11.1626 3.19416 11.1807 3.20403 11.1955ZM3.39208 11.288C3.31928 11.352 3.20107 11.3505 3.12097 11.3741C2.94852 11.4191 2.79575 11.5342 2.7106 11.691C2.57785 11.9172 2.62275 12.185 2.61805 12.4425L2.62497 13.2691C2.59606 13.8646 2.98617 14.3711 3.57288 14.4709C3.95503 14.5461 4.41055 14.2328 4.45299 13.8533C4.46444 13.7282 4.45463 13.5886 4.46585 13.4621C4.47167 13.3246 4.48318 13.1868 4.49464 13.0487L4.47334 12.7921L4.65136 12.9939C4.70579 13.0664 4.77756 13.12 4.85618 13.153C4.9676 13.2005 5.09776 13.1299 5.11907 13.0129C5.13633 12.9167 5.07746 12.8663 5.01865 12.7785L4.81605 12.493C4.54739 12.1164 3.85599 11.1477 3.59163 10.7866C3.55922 10.7445 3.36278 10.4741 3.33248 10.4353C3.25301 10.2778 3.04364 10.2757 2.93149 10.4006C2.87078 10.4704 2.87184 10.5541 2.94056 10.6373C3.09631 10.8383 3.24651 11.0621 3.39208 11.288Z" fill="#070707"/>
        <path d="M9.02895 14.6756C9.48312 14.4285 11.6726 13.239 12.0785 13.0197C12.6174 12.7868 12.9596 13.5602 12.43 13.8129C12.1963 13.9414 11.6831 14.2232 11.4435 14.3549C11.4437 14.3551 11.4414 14.0835 11.4422 14.0845C12.0812 14.3941 12.4323 15.0207 12.3906 15.7287C12.3916 15.9379 12.4044 16.3202 12.4054 16.5263C12.4229 17.3003 11.7027 17.7785 10.9785 17.6474C10.2021 17.4993 9.62732 16.7158 9.67719 15.9422C9.68661 15.6393 9.69831 15.3363 9.72016 15.0333L9.92177 15.1538C9.81642 15.2073 9.52847 15.3523 9.42672 15.4067C8.93728 15.6524 8.55074 14.9534 9.02895 14.6756ZM9.14238 14.887C8.9462 14.9986 9.10586 15.2994 9.30859 15.1856C9.40926 15.1312 9.68858 14.9717 9.79223 14.9127L9.98819 14.8012C9.99962 15.2173 10.0326 15.6393 10.0407 16.0548C10.0776 16.6442 10.6178 17.2672 11.2287 17.2323C11.6994 17.2174 11.9893 16.876 11.9572 16.4104C11.9572 16.4104 11.9615 16.1832 11.9615 16.1832C11.9645 16.0306 11.9716 15.6486 11.9745 15.5015C11.9883 15.0325 11.6976 14.5955 11.3001 14.3557L11.0558 14.2126C11.3728 14.0462 11.9021 13.7683 12.2187 13.6021L12.2954 13.5618L12.3337 13.5417C12.4273 13.4982 12.4453 13.36 12.3674 13.2924C12.3233 13.2506 12.2517 13.239 12.1962 13.2661L11.5895 13.5876L9.14238 14.887Z" fill="#070707"/>
        <path d="M0.539691 17.6832C0.558433 17.7338 0.558477 17.7896 0.603661 17.8281C0.722044 17.9068 0.900564 17.9533 1.03411 18.0194C1.38901 18.1686 1.90706 18.4055 2.26251 18.5703C2.8529 18.8501 3.49353 19.1672 4.07004 19.4658C4.43399 19.6649 4.86104 19.6917 5.24864 19.5668L5.22219 19.5737L6.40869 19.1856C7.10466 18.9615 8.10007 18.6459 8.79172 18.4381C8.79311 18.437 9.99225 18.0813 9.99422 18.0802C10.0665 18.0689 10.1226 18.0022 10.1232 17.9199C10.1233 17.9188 10.1302 17.7717 10.1302 17.7705L10.2219 17.8796L10.224 17.8821L10.225 17.8833L10.2373 17.8977L10.2381 17.9193C10.2474 18.0561 10.2648 18.7127 10.2703 18.8345L10.2729 18.9261C10.2962 19.0875 10.2036 19.264 10.037 19.3067C9.55134 19.4887 9.06571 19.6713 8.57853 19.8474C7.41972 20.2556 6.27833 20.7099 5.09971 21.0663C4.69986 21.1455 4.26985 21.0806 3.90897 20.8932L3.58225 20.728C2.94976 20.4064 2.25001 20.0583 1.62966 19.7218C1.31614 19.5571 0.977374 19.3656 0.666233 19.193C0.609695 19.1562 0.542697 19.132 0.482259 19.0759C0.350208 18.9427 0.352868 18.8283 0.364412 18.6717C0.385221 18.3612 0.404343 18.0275 0.436775 17.7186L0.437032 17.7159L0.443726 17.6445C0.473051 17.6549 0.521553 17.6577 0.539691 17.6832ZM0.449794 17.7495C0.455639 17.7586 0.466781 17.7666 0.477029 17.7694L0.54881 17.7158C0.573062 17.9785 0.598184 18.2706 0.612679 18.5355C0.615395 18.5995 0.625062 18.7111 0.626604 18.7737C0.63056 18.8575 0.696262 18.8685 0.806051 18.9188C1.58221 19.2729 2.35253 19.6509 3.11093 20.0401L3.76241 20.3745C3.94004 20.4578 4.1993 20.6184 4.38978 20.6596C4.71581 20.7469 5.03531 20.7192 5.35569 20.5985L5.70323 20.4833C6.16632 20.3287 6.63064 20.178 7.09541 20.0283C7.91071 19.7614 9.08077 19.3893 9.89041 19.1401C9.89043 19.1401 9.9779 19.113 9.9779 19.113C10.0054 19.1058 10.0148 19.1019 10.0312 19.0915C10.1154 19.0411 10.0847 18.9207 10.0942 18.8345C10.0997 18.7134 10.1191 18.0541 10.1263 17.9192L10.1394 17.9552L10.1385 17.954L10.1363 17.9514L10.2349 17.9123C10.2574 18.0435 10.1432 18.1935 10.0353 18.217C10.0353 18.217 8.8691 18.6654 8.8691 18.6654C7.77777 19.0822 6.4152 19.5678 5.30727 19.9578L5.3212 19.9505C5.32138 19.9502 5.34304 19.9447 5.3433 19.9445C4.8699 20.1087 4.3236 20.0576 3.88728 19.8255C3.48625 19.6253 3.08898 19.4177 2.69189 19.2097C2.14175 18.9145 1.46372 18.5424 0.931867 18.2208C0.750285 18.0884 0.434852 18.0114 0.43759 17.7413C0.437412 17.734 0.437635 17.7373 0.439993 17.7417C0.442117 17.7451 0.445693 17.7481 0.449794 17.7495Z" fill="#070707"/>
        <path d="M0.570133 17.4456C1.5446 16.8283 2.54892 16.2131 3.52465 15.5957C3.80182 15.4324 4.07733 15.1835 4.41842 15.1523C4.58198 15.1607 4.73459 15.2378 4.86763 15.2932L5.50947 15.5686C6.36279 15.9399 7.21358 16.3157 8.0618 16.6974C8.57244 16.9313 9.64367 17.4015 10.1421 17.6395C10.3871 17.7811 10.3052 18.1865 10.0332 18.2351C10.0676 18.2261 8.83946 18.6108 8.84811 18.6093C8.09568 18.8494 6.05984 19.5128 5.28242 19.7665C4.83835 19.9128 4.32545 19.8549 3.92062 19.6179C3.19476 19.2424 2.14412 18.7302 1.39494 18.3772C1.39496 18.3772 0.760477 18.0731 0.760477 18.0731L0.602241 17.9963C0.384561 17.902 0.361841 17.5696 0.570133 17.4456ZM0.647267 17.5699C0.530091 17.6342 0.532046 17.8248 0.659303 17.884L0.814466 17.9668C1.7755 18.4823 2.94939 19.1327 3.92256 19.6141C4.33053 19.8462 4.8347 19.9001 5.27772 19.7489C5.2787 19.7494 7.63122 18.9135 7.63226 18.9137C8.21746 18.7042 9.39837 18.2784 9.98147 18.0625C10.0889 18.0332 10.0969 17.8924 10.0139 17.8389C10.0098 17.8329 9.97465 17.8183 9.9512 17.8071C9.50922 17.6023 8.42849 17.1049 7.97209 16.895C7.50062 16.6799 5.22231 15.6355 4.7991 15.4528C4.67052 15.4013 4.55884 15.3322 4.43739 15.3248L4.4353 15.3246C4.43458 15.3237 4.43392 15.3287 4.43312 15.3157C4.43139 15.2848 4.42983 15.2998 4.42861 15.3089C4.42735 15.3197 4.4264 15.333 4.42495 15.3307C4.35038 15.3372 4.28478 15.3671 4.21429 15.4028C3.8201 15.6091 3.42799 15.8825 3.03098 16.1203C2.23942 16.6094 1.44172 17.0871 0.647267 17.5699Z" fill="#070707"/>
        <path d="M3.88293 16.5098C3.9248 16.0763 4.54871 16.063 4.58435 16.5098C4.58818 17.0049 3.87208 17.0031 3.88293 16.5098ZM4.01388 16.5098C4.0345 16.716 4.34081 16.7073 4.36298 16.5098C4.39005 16.2646 3.99105 16.245 4.01388 16.5098Z" fill="#070707"/>
        <path d="M5.53327 17.4826C5.57267 17.0529 6.19189 17.042 6.22608 17.4826C6.22936 17.9692 5.52537 17.9677 5.53327 17.4826ZM5.66465 17.4826C5.68332 17.6946 6.00182 17.6887 6.02234 17.4826C6.04666 17.2327 5.64419 17.2142 5.66465 17.4826Z" fill="#070707"/>
        <path d="M11.5329 13.9688L10.4355 14.5095L11.6831 14.2979L11.5329 13.9688Z" fill="#070707"/>
        <path d="M3.28719 11.1289L3.99706 12.0913L3.12305 11.264L3.28719 11.1289Z" fill="#070707"/>
        <path d="M3.12226 12.4818C3.0856 12.4818 3.04871 12.4698 3.01782 12.4452L2.45762 11.9979C2.38525 11.9401 2.37336 11.8346 2.43121 11.7623C2.48894 11.6899 2.59447 11.6781 2.66672 11.7358L3.22692 12.1831C3.29929 12.2409 3.31118 12.3464 3.25333 12.4188C3.22026 12.4602 3.17149 12.4818 3.12226 12.4818Z" fill="#070707"/>
        <path d="M10.462 15.7904C10.4253 15.7904 10.3884 15.7785 10.3574 15.7538L9.79736 15.3065C9.72511 15.2487 9.71322 15.1432 9.77105 15.0709C9.82867 14.9985 9.9341 14.9866 10.0067 15.0445L10.5668 15.4918C10.639 15.5496 10.6509 15.655 10.5931 15.7274C10.56 15.7689 10.5112 15.7904 10.462 15.7904Z" fill="#070707"/>
        <path d="M7.62546 7.79104C6.79586 8.12367 5.97281 8.0198 5.78737 7.55702C5.60206 7.09422 6.12396 6.45 6.95356 6.11605C7.78316 5.78343 8.60493 5.88861 8.79153 6.3514C8.97697 6.81419 8.45506 7.4584 7.62546 7.79104Z" fill="#070707"/>
        <path d="M2.53554 9.48296L2.20703 9.41563C2.75152 6.76043 3.51657 5.64767 3.54887 5.60156L3.82357 5.79381C3.81603 5.80467 3.06387 6.90607 2.53554 9.48296Z" fill="#070707"/>
    </g>
    <defs>
        <clipPath id="clip0_1201_51160">
            <rect width="21.3333" height="21.3762" fill="white" transform="translate(0.332031 0.332031)"/>
        </clipPath>
    </defs>
</svg>