<svg xmlns="http://www.w3.org/2000/svg" width="22" height="20" viewBox="0 0 22 20" fill="none">
    <g clip-path="url(#clip0_1201_51188)">
        <path d="M3.3781 8.11269C3.2389 7.9509 3.10464 7.78692 2.97631 7.59849C2.93858 7.54904 2.89521 7.47029 2.89396 7.38876C2.88811 7.0546 3.36289 6.86831 3.59261 7.10923C3.63954 7.15755 3.67692 7.21505 3.71708 7.26326C4.12996 7.7985 4.87392 8.81929 5.28336 9.37244L5.50488 9.67517C5.59036 9.77667 5.69344 9.94724 5.65202 10.101C5.54625 10.5332 5.05417 10.5391 4.82722 10.2138C4.80874 10.1923 4.79394 10.169 4.77734 10.1467L4.94511 10.0881C4.99126 10.3889 5.06551 10.6883 5.05422 10.9946C4.99914 11.6217 4.29897 12.0401 3.70913 11.9142C2.95037 11.7692 2.44289 11.0952 2.48926 10.3327C2.48924 10.3327 2.49666 9.4477 2.49666 9.4477L2.49851 9.22645C2.46934 8.8237 2.61812 8.37223 2.99864 8.17417C3.10926 8.11435 3.22911 8.0754 3.35315 8.05975C3.3831 8.0549 3.37321 8.0559 3.36994 8.06704C3.36629 8.07745 3.36754 8.09684 3.3781 8.11269ZM3.57945 8.21169C3.50151 8.28019 3.37494 8.27865 3.28919 8.30391C3.10456 8.35201 2.94099 8.47526 2.84982 8.64313C2.7077 8.88534 2.75576 9.17211 2.75072 9.44771L2.75814 10.3327C2.72718 10.9703 3.14485 11.5126 3.77301 11.6195C4.18216 11.6999 4.66985 11.3645 4.71528 10.9582C4.72755 10.8243 4.71704 10.6748 4.72906 10.5394C4.73529 10.3922 4.74763 10.2446 4.75988 10.0968L4.73707 9.82209L4.92766 10.0381C4.98595 10.1157 5.06277 10.1731 5.14695 10.2084C5.26624 10.2593 5.4056 10.1838 5.4284 10.0585C5.4469 9.9554 5.38386 9.90151 5.32091 9.80754L5.10398 9.50182C4.81634 9.09862 4.07611 8.0615 3.79308 7.67487C3.75838 7.62982 3.54805 7.3403 3.51562 7.29876C3.43053 7.1301 3.20637 7.12786 3.0863 7.26157C3.02131 7.33638 3.02244 7.42599 3.09601 7.51501C3.26276 7.73021 3.42358 7.96987 3.57945 8.21169Z" fill="#070707"/>
        <path d="M9.61471 11.8385C10.101 11.5741 12.4451 10.3005 12.8796 10.0658C13.4566 9.8164 13.823 10.6444 13.256 10.915C13.0058 11.0525 12.4563 11.3543 12.1998 11.4953C12.2001 11.4954 12.1976 11.2046 12.1984 11.2057C12.8825 11.5372 13.2585 12.208 13.2139 12.9661C13.2149 13.1901 13.2286 13.5993 13.2296 13.82C13.2484 14.6487 12.4774 15.1607 11.702 15.0203C10.8707 14.8617 10.2553 14.023 10.3087 13.1947C10.3188 12.8703 10.3314 12.5459 10.3547 12.2215L10.5706 12.3506C10.4578 12.4079 10.1495 12.5631 10.0406 12.6213C9.51655 12.8844 9.10271 12.1361 9.61471 11.8385ZM9.73614 12.0649C9.52611 12.1844 9.69704 12.5065 9.9141 12.3846C10.0219 12.3264 10.3209 12.1556 10.4319 12.0924L10.6417 11.973C10.6539 12.4185 10.6893 12.8704 10.6979 13.3152C10.7374 13.9463 11.3158 14.6133 11.9699 14.5759C12.4738 14.56 12.7842 14.1944 12.7498 13.6959C12.7498 13.6959 12.7544 13.4527 12.7544 13.4527C12.7576 13.2893 12.7653 12.8803 12.7683 12.7229C12.7831 12.2207 12.4718 11.7528 12.0463 11.4961L11.7848 11.3429C12.1241 11.1648 12.6908 10.8672 13.0298 10.6893L13.1119 10.6462L13.1529 10.6246C13.2531 10.578 13.2724 10.4301 13.189 10.3577C13.1418 10.3129 13.0651 10.3006 13.0056 10.3296L12.3562 10.6737L9.73614 12.0649Z" fill="#070707"/>
        <path d="M3.41301 4.91895C2.07414 7.02649 1.5168 9.60111 2.07612 12.0502C2.20325 12.5862 2.37362 13.176 2.63176 13.6623L2.08084 13.8956C2.02437 13.7004 1.96199 13.509 1.89395 13.3198C1.19284 11.2282 1.21192 8.89564 2.01033 6.83499C2.29517 6.08798 2.68274 5.37927 3.16988 4.75L3.41301 4.91895Z" fill="#070707"/>
        <path d="M7.28184 17.7467C8.46243 18.5146 9.87085 18.8594 11.2684 18.9023C12.2648 18.9684 13.2905 18.8996 14.2603 18.6566C17.5216 17.8623 20.1633 15.9401 20.8962 12.5257C21.0929 11.6647 21.1578 10.7716 21.1447 9.88535L21.404 9.8845H21.4054L21.1467 10.1433C21.1441 9.69109 21.0961 9.22924 21.0158 8.77999C20.9367 8.353 20.8219 7.89527 20.6157 7.5254L21.1427 7.24219C21.2635 7.48699 21.3345 7.72912 21.3981 7.96951C21.5973 8.76695 21.6719 9.58062 21.6656 10.4029L21.4054 10.402H21.404L21.6628 10.1433C21.6591 10.9792 21.5757 11.8185 21.3849 12.6381C21.0121 14.2799 20.1496 15.839 18.8476 16.9261C16.7646 18.6294 13.9311 19.5262 11.25 19.3127C10.2057 19.2632 9.15979 19.0542 8.20462 18.6189C7.82281 18.4439 7.45776 18.2332 7.11523 17.9914L7.28184 17.7467Z" fill="#070707"/>
        <path d="M0.525085 15.0531C0.54515 15.1072 0.545198 15.167 0.593573 15.2083C0.720319 15.2925 0.91145 15.3423 1.05443 15.4131C1.4344 15.5728 1.98905 15.8264 2.3696 16.0029C3.0017 16.3024 3.68758 16.642 4.30482 16.9616C4.69448 17.1748 5.1517 17.2035 5.56667 17.0698L5.53835 17.0772L6.80867 16.6616C7.5538 16.4217 8.61953 16.0838 9.36003 15.8614C9.36152 15.8602 10.6454 15.4793 10.6475 15.4781C10.7249 15.466 10.7849 15.3947 10.7856 15.3065C10.7857 15.3054 10.793 15.1478 10.7931 15.1466L10.8912 15.2634L10.8935 15.2661L10.8945 15.2673L10.9077 15.2828L10.9086 15.3058C10.9185 15.4523 10.9372 16.1554 10.943 16.2858L10.9458 16.3838C10.9708 16.5566 10.8717 16.7456 10.6933 16.7913C10.1733 16.9862 9.65338 17.1817 9.13179 17.3702C7.89112 17.8072 6.6691 18.2936 5.40722 18.6752C4.97913 18.76 4.51874 18.6905 4.13237 18.4899L3.78257 18.313C3.1054 17.9687 2.35622 17.596 1.69205 17.2357C1.35638 17.0594 0.993686 16.8544 0.660566 16.6695C0.600034 16.6302 0.528303 16.6042 0.463596 16.5442C0.322217 16.4016 0.325064 16.2791 0.337424 16.1114C0.359703 15.779 0.380176 15.4218 0.414898 15.0911L0.415174 15.0881L0.422341 15.0117C0.453737 15.0228 0.505666 15.0258 0.525085 15.0531ZM0.428838 15.1242C0.435095 15.1338 0.447025 15.1424 0.457997 15.1454L0.534848 15.0881C0.560813 15.3693 0.58771 15.682 0.603229 15.9656C0.606136 16.0341 0.616486 16.1536 0.618137 16.2207C0.622373 16.3103 0.692716 16.3221 0.810261 16.376C1.64125 16.7551 2.46598 17.1598 3.27795 17.5765L3.97546 17.9345C4.16563 18.0237 4.44321 18.1957 4.64714 18.2398C4.9962 18.3332 5.33827 18.3036 5.68128 18.1744L6.05337 18.051C6.54917 17.8855 7.0463 17.7242 7.5439 17.5639C8.41679 17.2781 9.6695 16.8798 10.5363 16.6129C10.5364 16.6129 10.63 16.5839 10.63 16.5839C10.6595 16.5763 10.6695 16.572 10.687 16.5609C10.7773 16.5069 10.7443 16.3781 10.7545 16.2858C10.7604 16.1561 10.7812 15.4502 10.7889 15.3058L10.8029 15.3443L10.8019 15.343L10.7996 15.3403L10.9052 15.2984C10.9292 15.4388 10.807 15.5995 10.6914 15.6246C10.6914 15.6246 9.44288 16.1047 9.44288 16.1047C8.27446 16.551 6.81564 17.0709 5.62944 17.4884L5.64436 17.4805C5.64455 17.4803 5.66774 17.4743 5.66802 17.4742C5.16117 17.6499 4.57628 17.5953 4.10914 17.3468C3.67979 17.1324 3.25445 16.9101 2.82931 16.6874C2.24032 16.3714 1.51438 15.9731 0.944964 15.6287C0.750555 15.4869 0.41284 15.4045 0.415772 15.1153C0.41558 15.1075 0.41582 15.111 0.418344 15.1157C0.420618 15.1193 0.424447 15.1226 0.428838 15.1242Z" fill="#070707"/>
        <path d="M0.558846 14.8029C1.60215 14.142 2.67741 13.4834 3.72207 12.8223C4.01881 12.6475 4.31379 12.3811 4.67898 12.3477C4.85408 12.3566 5.01748 12.4392 5.15991 12.4985L5.84709 12.7933C6.7607 13.1908 7.67159 13.5932 8.57973 14.0018C9.12644 14.2523 10.2733 14.7557 10.8069 15.0105C11.0693 15.1621 10.9816 15.5962 10.6904 15.6482C10.7272 15.6385 9.41232 16.0505 9.42158 16.0488C8.61599 16.3058 6.43635 17.0162 5.60401 17.2878C5.12856 17.4444 4.57944 17.3823 4.14602 17.1286C3.36887 16.7266 2.24402 16.1783 1.44192 15.8003C1.44194 15.8003 0.762635 15.4747 0.762635 15.4747L0.593221 15.3925C0.360165 15.2915 0.33584 14.9356 0.558846 14.8029ZM0.641429 14.936C0.515975 15.0048 0.518069 15.2089 0.654315 15.2722L0.820438 15.3609C1.84936 15.9128 3.10618 16.6092 4.14809 17.1246C4.58487 17.3731 5.12466 17.4308 5.59897 17.2689C5.60002 17.2695 8.11872 16.3745 8.11984 16.3747C8.74638 16.1504 10.0107 15.6945 10.635 15.4634C10.75 15.432 10.7586 15.2813 10.6697 15.224C10.6653 15.2176 10.6277 15.202 10.6026 15.19C10.1294 14.9707 8.97231 14.4381 8.48367 14.2135C7.9789 13.9832 5.53965 12.8649 5.08654 12.6694C4.94888 12.6142 4.82932 12.5402 4.69928 12.5323L4.69704 12.5321C4.69628 12.5311 4.69557 12.5365 4.69471 12.5225C4.69286 12.4895 4.69119 12.5055 4.68989 12.5153C4.68854 12.5268 4.68752 12.541 4.68596 12.5386C4.60613 12.5456 4.5359 12.5775 4.46042 12.6158C4.03839 12.8366 3.61858 13.1294 3.19352 13.384C2.34605 13.9076 1.492 14.4191 0.641429 14.936Z" fill="#070707"/>
        <path d="M4.1056 13.7988C4.15042 13.3346 4.81841 13.3204 4.85656 13.7988C4.86067 14.3288 4.09398 14.3269 4.1056 13.7988ZM4.24579 13.7988C4.26787 14.0195 4.59582 14.0102 4.61956 13.7988C4.64854 13.5362 4.22135 13.5152 4.24579 13.7988Z" fill="#070707"/>
        <path d="M5.87116 14.8416C5.91335 14.3816 6.57631 14.3699 6.61292 14.8416C6.61642 15.3626 5.86271 15.361 5.87116 14.8416ZM6.01183 14.8416C6.03182 15.0686 6.37281 15.0623 6.39478 14.8416C6.42082 14.574 5.98992 14.5543 6.01183 14.8416Z" fill="#070707"/>
        <path d="M12.296 11.0781L11.1211 11.6571L12.4567 11.4306L12.296 11.0781Z" fill="#070707"/>
        <path d="M3.46677 8.03906L4.22677 9.06945L3.29102 8.18365L3.46677 8.03906Z" fill="#070707"/>
        <path d="M3.29074 9.48639C3.25148 9.48639 3.21187 9.4736 3.17881 9.44713L2.57915 8.96818C2.5018 8.90637 2.48907 8.79338 2.55099 8.71597C2.6128 8.63849 2.72578 8.62576 2.80326 8.68775L3.40291 9.1667C3.48027 9.22852 3.493 9.3415 3.43108 9.41892C3.39567 9.46332 3.34345 9.48639 3.29074 9.48639Z" fill="#070707"/>
        <path d="M11.1483 13.0293C11.109 13.0293 11.0695 13.0166 11.0365 12.9901L10.4367 12.5112C10.3592 12.4493 10.3465 12.3364 10.4084 12.2589C10.4702 12.1814 10.5831 12.1688 10.6606 12.2306L11.2603 12.7096C11.3378 12.7715 11.3505 12.8844 11.2886 12.9619C11.2532 13.0063 11.201 13.0293 11.1483 13.0293Z" fill="#070707"/>
        <path d="M3.42111 4.91715L3.0625 4.90366C3.0639 4.85037 3.09908 4.35296 3.86009 3.30204C4.63806 2.2277 6.17249 1.78023 6.23745 1.76172L6.33594 2.10689C6.32123 2.1111 4.85503 2.5401 4.1508 3.51261C3.45778 4.46953 3.42145 4.91276 3.42111 4.91715Z" fill="#070707"/>
        <path d="M15.6188 6.13624C15.4449 6.13624 15.264 6.13081 15.0746 6.11924C11.4446 5.89816 6.63701 4.00298 6.11133 1.98095L6.45883 1.89062C6.93451 3.72073 11.6058 5.54839 15.0964 5.761C18.457 5.96477 19.1079 4.14466 19.1119 4.12607L19.4642 4.19484C19.4601 4.21541 18.873 6.13624 15.6188 6.13624Z" fill="#070707"/>
        <path d="M21.2277 7.94176L20.8755 7.87241C20.8941 7.77659 21.3078 5.5124 19.1992 4.31612L19.3764 4.00391C21.7136 5.32994 21.2328 7.91576 21.2277 7.94176Z" fill="#070707"/>
        <path d="M15.6512 9.7601C13.5136 9.7601 11.2345 9.34343 8.63947 8.48899C5.26833 7.379 3.16533 5.01987 3.14453 4.99615L3.33546 4.82812C3.35591 4.85131 5.41614 7.15986 8.71893 8.24735C12.189 9.38993 15.0833 9.74182 17.8282 9.35418C20.0203 9.04472 20.9405 7.84552 20.9495 7.83342L21.1536 7.98526C21.1145 8.03795 20.1681 9.28073 17.8637 9.6061C17.1387 9.70846 16.4037 9.7601 15.6512 9.7601Z" fill="#070707"/>
        <path d="M19.8059 4.73563C20.293 5.22281 20.2113 6.61541 17.7991 7.79475C15.1185 9.10523 11.7878 8.67205 8.60041 7.56127C7.45784 7.1631 4.25046 5.67695 3.75924 3.94531C3.12475 4.88174 3.32194 4.9905 3.32194 4.9905C3.32194 4.9905 5.30267 7.2534 8.67989 8.36534C12.0571 9.47729 14.9837 9.88146 17.8466 9.47729C20.1249 9.15564 21.0522 8.03813 21.0522 8.03813C21.0522 8.03813 21.5987 6.03315 19.8059 4.73563Z" fill="#070707"/>
        <path d="M19.1156 4.35782C18.4548 3.40768 17.4878 2.71313 16.4623 2.13815C15.9508 1.85048 15.4411 1.57113 14.8857 1.37936C12.6782 0.624389 10.2038 0.721869 8.02186 1.5199C7.47674 1.7217 6.94883 1.9739 6.466 2.29424L6.16406 1.77776C6.71411 1.50087 7.26997 1.24314 7.84626 1.03711C10.1447 0.230618 12.7242 0.16554 15.032 0.970036C15.6055 1.17259 16.1456 1.47119 16.6707 1.77281C17.1923 2.07457 17.7086 2.39863 18.1852 2.78399C18.6639 3.16564 19.0955 3.61402 19.4601 4.11287L19.1156 4.35782Z" fill="#070707"/>
        <path d="M7.96911 5.12891C7.96911 5.86891 8.4009 6.71864 12.3406 6.177C12.3406 6.177 10.2975 7.25819 8.69524 6.84824C7.24692 6.47768 7.96911 5.12891 7.96911 5.12891Z" fill="#070707"/>
    </g>
    <defs>
        <clipPath id="clip0_1201_51188">
            <rect width="21.3333" height="18.9484" fill="white" transform="translate(0.332031 0.398438)"/>
        </clipPath>
    </defs>
</svg>