<svg xmlns="http://www.w3.org/2000/svg" width="31" height="30" viewBox="0 0 31 30" fill="none">
    <mask id="mask0_21374_2567" style="mask-type:luminance" maskUnits="userSpaceOnUse" x="5" y="5" width="21" height="21">
        <path d="M8.30876 25.2402L5.25879 22.1903L22.0715 5.37748L25.1215 8.42747L8.30876 25.2402Z" fill="white"/>
    </mask>
    <g mask="url(#mask0_21374_2567)">
        <path d="M8.30876 25.2402L5.25879 22.1903L22.0715 5.37748L25.1215 8.42747L8.30876 25.2402Z" fill="url(#paint0_linear_21374_2567)"/>
    </g>
    <mask id="mask1_21374_2567" style="mask-type:luminance" maskUnits="userSpaceOnUse" x="18" y="0" width="13" height="12">
        <path d="M29.1081 5.77146C28.177 4.84037 26.8648 4.52752 25.6737 4.82541C25.9716 3.63432 25.6592 2.32255 24.7277 1.391C23.3168 -0.0198841 21.0291 -0.0198841 19.6177 1.391C18.2069 2.80189 18.2069 5.08961 19.6177 6.50096C20.5493 7.43205 21.8615 7.7449 23.0521 7.44701C22.7542 8.63763 23.0671 9.94986 23.9981 10.8809C25.409 12.2923 27.6972 12.2923 29.1081 10.8809C30.519 9.47005 30.519 7.18234 29.1081 5.77146Z" fill="white"/>
    </mask>
    <g mask="url(#mask1_21374_2567)">
        <path d="M29.1081 5.77146C28.177 4.84037 26.8648 4.52752 25.6737 4.82541C25.9716 3.63432 25.6592 2.32255 24.7277 1.391C23.3168 -0.0198841 21.0291 -0.0198841 19.6177 1.391C18.2069 2.80189 18.2069 5.08961 19.6177 6.50096C20.5493 7.43205 21.8615 7.7449 23.0521 7.44701C22.7542 8.63763 23.0671 9.94986 23.9981 10.8809C25.409 12.2923 27.6972 12.2923 29.1081 10.8809C30.519 9.47005 30.519 7.18234 29.1081 5.77146Z" fill="url(#paint1_linear_21374_2567)"/>
    </g>
    <mask id="mask2_21374_2567" style="mask-type:luminance" maskUnits="userSpaceOnUse" x="0" y="18" width="13" height="12">
        <path d="M11.3815 23.4979C10.4505 22.5668 9.13824 22.254 7.94716 22.5518C8.24505 21.3612 7.93266 20.0485 7.00111 19.1175C5.59023 17.7066 3.30252 17.7066 1.89117 19.1175C0.480287 20.5288 0.480287 22.8165 1.89117 24.2274C2.82272 25.1585 4.13493 25.4714 5.32555 25.1735C5.02766 26.3641 5.34051 27.6768 6.27159 28.6079C7.68247 30.0187 9.97065 30.0187 11.3815 28.6079C12.7924 27.1965 12.7924 24.9088 11.3815 23.4979Z" fill="white"/>
    </mask>
    <g mask="url(#mask2_21374_2567)">
        <path d="M11.3815 23.4979C10.4505 22.5668 9.13824 22.254 7.94716 22.5518C8.24505 21.3612 7.93266 20.0485 7.00111 19.1175C5.59023 17.7066 3.30252 17.7066 1.89117 19.1175C0.480287 20.5288 0.480287 22.8165 1.89117 24.2274C2.82272 25.1585 4.13493 25.4714 5.32555 25.1735C5.02766 26.3641 5.34051 27.6768 6.27159 28.6079C7.68247 30.0187 9.97065 30.0187 11.3815 28.6079C12.7924 27.1965 12.7924 24.9088 11.3815 23.4979Z" fill="url(#paint2_linear_21374_2567)"/>
    </g>
    <mask id="mask3_21374_2567" style="mask-type:luminance" maskUnits="userSpaceOnUse" x="5" y="4" width="21" height="21">
        <path d="M5.26074 7.80975L8.31025 4.75976L25.123 21.5726L22.073 24.6221L5.26074 7.80975Z" fill="white"/>
    </mask>
    <g mask="url(#mask3_21374_2567)">
        <path d="M5.26074 7.80975L8.31025 4.75976L25.123 21.5726L22.073 24.6221L5.26074 7.80975Z" fill="url(#paint3_linear_21374_2567)"/>
    </g>
    <mask id="mask4_21374_2567" style="mask-type:luminance" maskUnits="userSpaceOnUse" x="18" y="18" width="13" height="12">
        <path d="M24.7276 28.6079C25.6591 27.6768 25.9715 26.3646 25.6736 25.1735C26.8647 25.4714 28.1769 25.1585 29.108 24.2274C30.5189 22.8165 30.5189 20.5288 29.108 19.1175C27.6971 17.7066 25.4094 17.7066 23.998 19.1175C23.067 20.0485 22.7541 21.3612 23.052 22.5518C21.8614 22.254 20.5492 22.5668 19.6181 23.4979C18.2067 24.9088 18.2067 27.1965 19.6181 28.6079C21.029 30.0187 23.3167 30.0187 24.7276 28.6079Z" fill="white"/>
    </mask>
    <g mask="url(#mask4_21374_2567)">
        <path d="M24.7276 28.6079C25.6591 27.6768 25.9715 26.3646 25.6736 25.1735C26.8647 25.4714 28.1769 25.1585 29.108 24.2274C30.5189 22.8165 30.5189 20.5288 29.108 19.1175C27.6971 17.7066 25.4094 17.7066 23.998 19.1175C23.067 20.0485 22.7541 21.3612 23.052 22.5518C21.8614 22.254 20.5492 22.5668 19.6181 23.4979C18.2067 24.9088 18.2067 27.1965 19.6181 28.6079C21.029 30.0187 23.3167 30.0187 24.7276 28.6079Z" fill="url(#paint4_linear_21374_2567)"/>
    </g>
    <mask id="mask5_21374_2567" style="mask-type:luminance" maskUnits="userSpaceOnUse" x="0" y="0" width="13" height="12">
        <path d="M7.00111 10.8809C7.93266 9.94986 8.24505 8.63763 7.94716 7.44701C9.13824 7.7449 10.4505 7.43205 11.3815 6.50096C12.7924 5.08961 12.7924 2.80189 11.3815 1.391C9.97065 -0.0198841 7.68247 -0.0198841 6.27159 1.391C5.34051 2.32255 5.02766 3.63432 5.32555 4.82541C4.13493 4.52752 2.82272 4.84037 1.89117 5.77146C0.480287 7.18234 0.480287 9.47005 1.89117 10.8809C3.30252 12.2923 5.59023 12.2923 7.00111 10.8809Z" fill="white"/>
    </mask>
    <g mask="url(#mask5_21374_2567)">
        <path d="M7.00111 10.8809C7.93266 9.94986 8.24505 8.63763 7.94716 7.44701C9.13824 7.7449 10.4505 7.43205 11.3815 6.50096C12.7924 5.08961 12.7924 2.80189 11.3815 1.391C9.97065 -0.0198841 7.68247 -0.0198841 6.27159 1.391C5.34051 2.32255 5.02766 3.63432 5.32555 4.82541C4.13493 4.52752 2.82272 4.84037 1.89117 5.77146C0.480287 7.18234 0.480287 9.47005 1.89117 10.8809C3.30252 12.2923 5.59023 12.2923 7.00111 10.8809Z" fill="url(#paint5_linear_21374_2567)"/>
    </g>
    <defs>
        <linearGradient id="paint0_linear_21374_2567" x1="21.4131" y1="9.08591" x2="9.4119" y2="21.087" gradientUnits="userSpaceOnUse">
            <stop stop-color="#EBF4AB"/>
            <stop offset="0.207447" stop-color="#FEFEEA"/>
            <stop offset="0.367021" stop-color="#C4D486"/>
            <stop offset="0.638298" stop-color="#C4D486"/>
            <stop offset="0.792553" stop-color="#FEFEEA"/>
            <stop offset="1" stop-color="#EBF4AB"/>
        </linearGradient>
        <linearGradient id="paint1_linear_21374_2567" x1="21.7581" y1="8.74099" x2="25.4074" y2="5.09174" gradientUnits="userSpaceOnUse">
            <stop stop-color="#EBF4AB"/>
            <stop offset="1" stop-color="#FEFEEA"/>
        </linearGradient>
        <linearGradient id="paint2_linear_21374_2567" x1="4.9533" y1="25.5457" x2="8.2281" y2="22.2709" gradientUnits="userSpaceOnUse">
            <stop stop-color="#EBF4AB"/>
            <stop offset="1" stop-color="#FEFEEA"/>
        </linearGradient>
        <linearGradient id="paint3_linear_21374_2567" x1="5.26074" y1="14.6911" x2="25.1231" y2="14.6911" gradientUnits="userSpaceOnUse">
            <stop stop-color="#EBF4AB"/>
            <stop offset="0.5" stop-color="#FEFEEA"/>
            <stop offset="1" stop-color="#EBF4AB"/>
        </linearGradient>
        <linearGradient id="paint4_linear_21374_2567" x1="27.5344" y1="27.0338" x2="22.7675" y2="22.2669" gradientUnits="userSpaceOnUse">
            <stop stop-color="#EBF4AB"/>
            <stop offset="1" stop-color="#FEFEEA"/>
        </linearGradient>
        <linearGradient id="paint5_linear_21374_2567" x1="10.3845" y1="9.88438" x2="5.54177" y2="5.04165" gradientUnits="userSpaceOnUse">
            <stop stop-color="#EBF4AB"/>
            <stop offset="1" stop-color="#FEFEEA"/>
        </linearGradient>
    </defs>
</svg>
