<svg width="22" height="20" viewBox="0 0 22 20" fill="none" xmlns="http://www.w3.org/2000/svg">
<g id="a" clip-path="url(#clip0_1199_115399)">
<path id="Vector" d="M0.817818 15.4783C0.828061 15.4924 0.828451 15.5147 0.832232 15.5315C0.856937 15.6308 0.908284 15.6571 1.01215 15.6955C1.34287 15.8283 1.66857 15.9725 1.99415 16.1166C2.31797 16.2629 2.96226 16.5659 3.28118 16.7219C3.70556 16.9327 4.12938 17.1448 4.54978 17.3635C4.92489 17.5648 5.36531 17.6112 5.76994 17.4855L5.78528 17.4807L5.79207 17.4796L5.79778 17.4786L5.77105 17.4857C6.51351 17.2537 7.2545 17.0164 7.9992 16.7906L10.2289 16.0998L10.2606 16.09C10.4822 16.2166 10.8122 16.3992 11.0423 16.5086L11.0768 16.5263L11.0776 16.5669L11.0812 16.7473C11.0821 16.8108 11.0901 16.881 11.0715 16.9476C11.0462 17.0587 10.9355 17.1484 10.8321 17.1735L10.7473 17.2044C10.3271 17.3562 9.15202 17.7879 8.71472 17.9477L7.36063 18.4451L6.00285 18.9353C5.76248 19.029 5.49266 19.0897 5.23119 19.0821C4.71046 19.0883 4.24725 18.8004 3.80071 18.5785L3.15665 18.253C2.40696 17.8739 1.65996 17.4765 0.927471 17.064C0.869165 17.0264 0.792664 16.9961 0.74036 16.938C0.653356 16.8577 0.621255 16.7107 0.625343 16.6621C0.623228 16.5793 0.636177 16.462 0.639592 16.3793C0.660988 16.0726 0.683141 15.7422 0.716636 15.4375C0.748997 15.4489 0.797485 15.4512 0.817818 15.4783ZM0.72278 15.5485C0.728971 15.558 0.740738 15.5666 0.751572 15.5695L0.827459 15.5129C0.847319 15.7057 0.863529 15.8985 0.877932 16.0914L0.897142 16.3793L0.911828 16.632C0.920229 16.686 0.94068 16.7156 0.994296 16.7347C2.17133 17.2612 3.474 17.9368 4.62702 18.5319C5.02048 18.7227 5.46973 18.7344 5.88279 18.5833C7.20645 18.1554 8.67859 17.6953 10.0124 17.2705L10.7002 17.0508C10.754 17.0317 10.8254 17.0147 10.854 16.999C10.9108 16.9653 10.9443 16.909 10.9406 16.8375L10.9424 16.7473L10.946 16.5669L10.9813 16.6251C10.7764 16.5001 10.4381 16.343 10.2186 16.2329C10.2186 16.2329 10.2758 16.2373 10.2758 16.2373L8.08772 17.0509C7.35971 17.3261 6.62847 17.5914 5.89785 17.8593L5.8586 17.8737L5.87108 17.8663C5.87116 17.8662 5.89315 17.8605 5.89328 17.8604C5.39693 18.0356 4.81817 17.99 4.35714 17.7426C3.74397 17.4375 3.07115 17.086 2.4663 16.7566C1.97926 16.4845 1.39612 16.158 0.9274 15.8624C0.808874 15.8047 0.700509 15.6816 0.709795 15.5398C0.709606 15.5321 0.709854 15.5356 0.712371 15.5402C0.714616 15.5438 0.718444 15.5469 0.72278 15.5485Z" fill="#FFC54D"/>
<path id="Vector_2" d="M10.2702 16.3332C10.2724 16.3282 5.80611 17.8346 5.87538 17.8107C5.39739 17.9676 4.86013 17.9231 4.41497 17.6911C3.60195 17.2749 1.80311 16.3478 0.974965 15.9234L0.906155 15.888L0.871762 15.8703C0.550081 15.7145 0.579901 15.2909 0.898251 15.1465C1.64859 14.6867 3.42428 13.5944 4.19276 13.1211L4.30764 13.3046C3.53345 13.7892 1.78247 14.8844 1.02748 15.3545C1.00905 15.369 0.940595 15.4041 0.927079 15.4234C0.867214 15.4868 0.886247 15.6014 0.967592 15.6389C1.045 15.6776 1.28273 15.7983 1.36469 15.8393C2.05395 16.1871 3.87844 17.1079 4.54137 17.4424C4.92817 17.6414 5.39118 17.6709 5.80135 17.5317L10.166 16.0272L10.2702 16.3332Z" fill="#FFC54D"/>
<path id="Vector_3" d="M8.64601 14.6367C7.37315 14.059 6.39023 13.6179 5.72461 13.3257L5.81968 13.1094C6.48611 13.402 7.46995 13.8434 8.74361 14.4215L8.64601 14.6367Z" fill="#FFC54D"/>
<path id="Vector_4" d="M4.35169 14.2357C4.39595 13.7774 5.05555 13.7634 5.09322 14.2357C5.09728 14.7592 4.34022 14.7573 4.35169 14.2357ZM4.49013 14.2357C4.51192 14.4537 4.83576 14.4445 4.8592 14.2357C4.88781 13.9765 4.46599 13.9558 4.49013 14.2357Z" fill="#FFC54D"/>
<path id="Vector_5" d="M6.09577 15.2669C6.13743 14.8126 6.79207 14.8011 6.82821 15.2669C6.83167 15.7813 6.08742 15.7797 6.09577 15.2669ZM6.23467 15.2669C6.25441 15.491 6.59112 15.4848 6.61281 15.2669C6.63852 15.0027 6.21303 14.9832 6.23467 15.2669Z" fill="#FFC54D"/>
<path id="Vector_6" d="M13.387 17.8875L9.63342 16.0251L9.68303 15.133L8.56581 14.6087L8.62004 13.334L7.74201 12.9555L7.80812 11.2174L6.82533 10.832L6.76141 12.5328L5.95803 12.1865L5.89525 13.4046L4.94707 12.9587L4.9068 13.68L2.13033 12.3011L2.16701 11.649L1.42848 11.3047L1.48236 10.2573L0.853194 9.98613L0.905699 8.51038L0.332031 8.28539L0.411876 6.26562L17.2603 12.552L21.3824 11.0687L21.4676 11.305L17.2587 12.8196L0.649093 6.62225L0.590019 8.11681L1.16299 8.34146L1.11026 9.82344L1.74219 10.0958L1.68807 11.1486L2.42731 11.4933L2.39039 12.1498L4.6772 13.2855L4.71701 12.573L5.66358 13.0181L5.72565 11.8128L6.52419 12.157L6.58765 10.469L8.06588 11.0487L7.99954 12.793L8.87827 13.1718L8.8238 14.4524L9.94332 14.9776L9.89348 15.8737L13.1574 17.4931L13.2091 16.5658L14.5794 17.21L14.6605 15.6642L15.8272 16.167L15.9107 14.1254L17.1745 14.621L20.4954 13.3408L20.3887 15.0385L20.1381 15.0226L20.2201 13.7162L17.1738 14.8905L16.1473 14.4879L16.0632 16.5424L14.8924 16.0376L14.8106 17.5963L13.4392 16.9515L13.387 17.8875Z" fill="#FFC54D"/>
<path id="Vector_7" d="M20.3531 15.2462L20.1738 14.809L21.0774 14.4385L21.1889 11.1758L21.6613 11.1919L21.5393 14.7598L20.3531 15.2462Z" fill="#FFC54D"/>
<path id="Vector_8" d="M3.8672 5.12159C3.85453 5.09552 3.83491 5.06456 3.80919 5.05147L3.81647 5.05588L3.84556 5.07354C4.46806 5.44179 5.12012 5.76354 5.77876 6.06236C9.52372 7.73187 14.7715 9.3191 18.8356 8.26862C19.5435 8.07372 20.2139 7.75639 20.7754 7.30423L20.7049 7.41192C20.8785 6.60783 20.7538 5.63275 20.0931 5.08193C19.8635 4.8864 19.577 4.74756 19.2824 4.65107C18.9442 4.09585 18.5129 3.57852 18.043 3.12454C16.16 1.29282 13.7666 0.56875 11.1759 0.768349C9.51614 0.88196 7.24276 1.29993 6.25153 2.76166C6.25154 2.76168 6.17337 2.9102 6.17337 2.9102L6.00646 2.93211C4.88562 3.056 3.96323 3.83952 3.90658 5.00753C3.9067 5.04994 3.89216 5.08379 3.8672 5.12159ZM3.4635 5.34661C3.2547 3.76839 4.43239 2.53973 5.95012 2.32828C5.95012 2.32827 5.70508 2.49869 5.70508 2.49869C5.76354 2.38688 5.81134 2.32482 5.86704 2.24534C7.29431 0.49043 10.0045 0.157193 12.1257 0.133162C14.8172 0.108965 17.4391 1.34228 19.1458 3.42228C19.3646 3.69054 19.5602 3.94432 19.7433 4.24834L19.5868 4.11533C21.0469 4.66753 21.5182 6.17036 21.102 7.59501C20.4732 8.1168 19.725 8.47417 18.9544 8.68737C14.4099 9.88812 8.10888 7.84934 4.04684 5.7196C4.04684 5.71955 3.79478 5.57905 3.79478 5.57905L3.66918 5.50625C3.59979 5.46257 3.50796 5.42045 3.4635 5.34661Z" fill="#FFC54D"/>
<path id="Vector_9" d="M19.2351 4.02914C17.8299 5.14985 15.9373 5.19182 13.8859 5.10402C9.74518 4.92679 7.0709 3.3502 6.12305 2.40234C5.88591 2.65478 5.82812 2.77986 5.82812 2.77986C5.82812 2.77986 7.90194 4.92679 13.373 5.54793C14.8175 5.71192 16.459 5.80634 17.8529 5.38653C18.9887 5.04445 19.6327 4.45919 19.6156 4.45278C19.6156 4.45278 19.5468 4.42035 19.2351 4.02914Z" fill="#FFC54D"/>
<path id="Vector_10" d="M8.00144 2.71088C7.49926 2.20869 9.70375 1.32552 10.3644 1.98613C11.025 2.64675 8.85705 3.56648 8.00144 2.71088Z" fill="#FFC54D"/>
<path id="Vector_11" d="M4.89151 10.4421C4.95837 10.3666 4.99659 10.2631 5.00582 10.1315C5.01967 9.93505 4.9563 9.75203 4.81682 9.58396C4.75946 9.51486 4.68851 9.45258 4.60566 9.39638L4.63385 9.01135L4.21181 8.87874L4.18893 9.19983C4.18671 9.19911 4.1847 9.19829 4.18248 9.19758L3.87134 9.09792L3.89359 8.77877L3.49112 8.65234L3.46981 8.96611L2.9583 8.79997L2.93118 9.21377L3.10294 9.27201L3.00813 10.8072L2.83132 10.7379L2.80469 11.1445L3.30806 11.3488L3.28644 11.6672L3.68065 11.8315L3.70338 11.5057L4.01575 11.6311L3.99222 11.9614L4.40533 12.1336L4.43252 11.7622C4.56502 11.7854 4.67795 11.7823 4.7693 11.7506C4.93454 11.6933 5.02544 11.5577 5.04064 11.3439C5.05098 11.1988 5.02722 11.0641 4.96942 10.9403C4.91189 10.8169 4.82904 10.7089 4.72146 10.6167C4.70212 10.6002 4.68148 10.585 4.66097 10.5698C4.75405 10.5512 4.83169 10.5095 4.89151 10.4421ZM4.5067 11.0802C4.4997 11.1832 4.45895 11.2454 4.38459 11.2671C4.3106 11.2887 4.20785 11.2739 4.07692 11.2233L3.48895 10.9956L3.52663 10.4067L4.11689 10.6234C4.24835 10.6717 4.34813 10.7335 4.41577 10.8087C4.48362 10.8842 4.51397 10.9748 4.5067 11.0802ZM4.46233 10.0253C4.4556 10.1242 4.41666 10.1858 4.34568 10.2101C4.27505 10.2343 4.17707 10.2242 4.05239 10.1801L3.55245 10.0033L3.58869 9.43672L4.09056 9.60452C4.21571 9.64643 4.31081 9.7023 4.37529 9.77199C4.43999 9.84194 4.46906 9.92644 4.46233 10.0253Z" fill="#FFC54D"/>
<path id="Vector_12" d="M13.0789 13.7727C13.1619 13.679 13.2094 13.5504 13.2209 13.3871C13.238 13.1432 13.1594 12.916 12.9862 12.7073C12.915 12.6216 12.8269 12.5442 12.7241 12.4745L12.7591 11.9965L12.2351 11.8318L12.2067 12.2305C12.204 12.2296 12.2015 12.2285 12.1987 12.2277L11.8125 12.1039L11.8401 11.7077L11.3404 11.5508L11.314 11.9403L10.679 11.7341L10.6453 12.2478L10.8585 12.3201L10.7408 14.2259L10.5214 14.14L10.4883 14.6447L11.1132 14.8984L11.0863 15.2936L11.5757 15.4976L11.604 15.0931L11.9917 15.2487L11.9625 15.6588L12.4754 15.8726L12.5091 15.4116C12.6736 15.4403 12.8138 15.4364 12.9272 15.3971C13.1324 15.326 13.2452 15.1576 13.2641 14.8922C13.2769 14.7121 13.2474 14.5449 13.1757 14.3911C13.1042 14.238 13.0014 14.1039 12.8678 13.9894C12.8438 13.9688 12.8182 13.95 12.7927 13.9311C12.9083 13.908 13.0047 13.8564 13.0789 13.7727ZM12.6012 14.5648C12.5925 14.6927 12.5419 14.77 12.4496 14.7969C12.3578 14.8237 12.2302 14.8054 12.0677 14.7425L11.3377 14.4598L11.3845 13.7287L12.1173 13.9978C12.2805 14.0577 12.4043 14.1344 12.4883 14.2278C12.5726 14.3215 12.6102 14.434 12.6012 14.5648ZM12.5461 13.2552C12.5378 13.378 12.4894 13.4544 12.4013 13.4847C12.3137 13.5147 12.192 13.5021 12.0372 13.4474L11.4166 13.228L11.4615 12.5245L12.0846 12.7329C12.2399 12.7849 12.358 12.8542 12.4381 12.9407C12.5184 13.0276 12.5545 13.1325 12.5461 13.2552Z" fill="#FFC54D"/>
<path id="Vector_13" d="M3.85919 5.21488C3.59689 5.7422 3.24408 6.20804 3.02482 6.7548C2.95901 6.93824 2.85928 7.10843 2.85315 7.3091L2.28516 7.0966C2.41761 6.92943 2.46954 6.72865 2.57262 6.54584C2.8517 6.00033 3.16745 5.45593 3.61881 5.03516C3.61882 5.03516 3.85919 5.21488 3.85919 5.21488Z" fill="#FFC54D"/>
<path id="Vector_14" d="M21.2422 11.2002C21.2713 10.2802 21.1852 9.35372 20.9138 8.47168C20.8178 8.18089 20.7482 7.87859 20.5801 7.6176L21.147 7.40234C21.1993 7.72621 21.3264 8.02307 21.3943 8.34231C21.6363 9.28312 21.6809 10.2539 21.6617 11.2204C21.6617 11.2204 21.2422 11.2002 21.2422 11.2002Z" fill="#FFC54D"/>
<path id="Vector_15" d="M7.49113 18.1371C8.52603 18.7882 9.7198 19.1354 10.9333 19.2376C11.4551 19.2739 12.0099 19.3024 12.5417 19.2875C14.438 19.1845 16.327 18.5514 17.8964 17.4896C18.894 16.8129 19.7454 15.9072 20.2281 14.7969L20.7694 15.0703C20.4439 15.6321 20.079 16.1701 19.6454 16.6516C17.8955 18.5316 15.3243 19.5295 12.7979 19.7191C12.679 19.7275 12.4373 19.7361 12.3179 19.7343C11.2123 19.7211 10.0778 19.6376 9.0224 19.2649C8.41827 19.0522 7.84014 18.7605 7.32227 18.3852L7.49113 18.1371Z" fill="#FFC54D"/>
<path id="Vector_16" d="M2.18837 11.3789C2.25123 12.084 2.38504 12.7849 2.61216 13.4561C2.70056 13.6762 2.74873 13.9137 2.90348 14.101C2.90349 14.101 2.34503 14.3375 2.34503 14.3375C2.33514 14.2055 2.28637 14.091 2.24322 13.9735C1.94749 13.1512 1.73965 12.2941 1.67383 11.4214L2.18837 11.3789Z" fill="#FFC54D"/>
<path id="Vector_17" d="M3.16482 5.75435L0.496094 6.26562L0.562784 6.61373L3.23151 6.10245L3.16482 5.75435Z" fill="#FFC54D"/>
<path id="Vector_18" d="M20.5343 5.64062C20.7171 6.34298 19.7807 8.73934 13.0827 8.07479C8.94744 7.6645 6.89453 6.54502 6.89453 6.54502C6.89453 6.54502 14.776 10.2214 20.2634 7.91506C20.707 7.72863 21.009 7.4089 21.009 6.64983C21.009 6.38627 20.9195 5.93776 20.5343 5.64062Z" fill="#FFC54D"/>
<path id="Vector_19" d="M10.0195 4.47305C10.0195 4.47305 15.9589 5.68232 18.6524 3.54688L19.3932 4.3743C19.3932 4.3743 16.0783 6.49604 10.0195 4.47305Z" fill="#FFC54D"/>
</g>
<defs>
<clipPath id="clip0_1199_115399">
<rect width="21.3333" height="19.6002" fill="white" transform="translate(0.332031 0.132812)"/>
</clipPath>
</defs>
</svg>
