<svg width="38" height="34" viewBox="0 0 38 34" fill="none" xmlns="http://www.w3.org/2000/svg">
<g id="a" clip-path="url(#clip0_2321_177780)">
<g id="Group">
<path id="Vector" d="M3.03149 20.1328C3.36472 20.9907 3.53188 21.887 3.88509 22.7356C4.01556 23.0129 4.08164 23.3156 4.30095 23.5441L3.32744 23.9563C3.3093 23.6225 3.14825 23.3428 3.06694 23.0267C2.79301 22.1139 2.48722 21.1838 2.5155 20.2196C2.51552 20.2196 3.03149 20.1328 3.03149 20.1328Z" fill="#FFC54D"/>
<path id="Vector_2" d="M12.296 30.5745C14.3194 31.915 16.7445 32.5214 19.1534 32.6024C20.8699 32.7165 22.6405 32.5947 24.3106 32.1724C26.9818 31.5264 29.5879 30.3474 31.6919 28.5715C34.9114 25.8846 36.2382 21.5843 36.2042 17.4919C36.2043 17.4919 36.205 17.0945 36.205 17.0945C36.2059 17.0943 36.6029 17.0946 36.6041 17.0945L36.2068 17.4918C36.2038 15.8826 35.9375 14.2774 35.4209 12.756C33.8623 8.17997 30.1254 4.45183 25.701 2.58198C19.7002 0.368393 12.361 1.76492 7.7807 6.2882C7.78581 6.28282 7.75965 6.30943 7.79046 6.27769C7.81755 6.2483 7.8408 6.2136 7.85757 6.17794L7.76482 6.30632C6.52853 7.52591 5.49816 8.95469 4.74627 10.5181L3.80273 10.0412C4.66461 8.4097 5.78955 6.92236 7.11013 5.63805L7.01742 5.76637C7.06591 5.66792 7.14537 5.6016 7.22213 5.53155C12.0903 0.862312 19.7202 -0.569974 26.0138 1.77984C30.6619 3.75319 34.5677 7.67824 36.1906 12.4981C36.776 14.2295 37.0372 16.0642 37.0007 17.8892C36.9983 17.8892 36.6039 17.8892 36.6017 17.8892L36.999 17.4919C36.9916 18.9277 36.8469 20.3682 36.5277 21.777C35.8824 24.5924 34.4179 27.2783 32.1792 29.1429C29.4051 31.4544 25.909 32.7943 22.3445 33.2082C21.3174 33.3503 20.1632 33.2988 19.1241 33.2421C17.3295 33.1609 15.5324 32.8058 13.8866 32.0683C13.2291 31.769 12.5994 31.4119 12.0016 31.007L12.296 30.5745Z" fill="#FFC54D"/>
</g>
<path id="Vector_3" d="M0.662816 25.9425C0.697335 26.0358 0.697418 26.1386 0.780689 26.2097C0.999071 26.3548 1.32777 26.4403 1.574 26.5623C2.22739 26.8368 3.18329 27.2741 3.8379 27.5776C4.92629 28.0934 6.10639 28.6775 7.16912 29.2278C7.82278 29.5786 8.59115 29.6557 9.29367 29.4354C9.30569 29.4306 9.33014 29.4249 9.34299 29.4233L9.29552 29.4357C11.6342 28.6921 15.1394 27.6132 17.5109 26.8786C17.7701 26.8446 17.9182 27.0404 18.0959 27.1712C18.1135 27.1895 18.2317 27.2925 18.2522 27.3151L18.2777 27.3393C18.4098 27.3857 18.5435 27.4296 18.6711 27.495C18.6758 27.6453 18.693 28.1933 18.6977 28.3473C18.7117 28.6482 18.4811 28.9471 18.197 29.0203C17.0331 29.4387 15.7746 29.9108 14.6145 30.3124C13.0197 30.8719 11.4223 31.4427 9.81827 31.989C8.88782 32.3649 7.80433 32.3644 6.90666 31.8957C5.08564 30.9591 3.20584 30.0095 1.42076 29.0094C1.2861 28.9287 0.768166 28.6548 0.633858 28.5632C0.408802 28.4194 0.316057 28.1017 0.336818 27.9524C0.371626 27.3143 0.413189 26.6394 0.473557 26.0038C0.47366 26.0028 0.485256 25.8721 0.485338 25.8711C0.539671 25.8903 0.629244 25.8954 0.662816 25.9425ZM0.49714 26.0649C0.507891 26.0815 0.528446 26.0964 0.547333 26.1015L0.679623 26.0028C0.71097 26.3383 0.737045 26.6739 0.760319 27.0095L0.791893 27.5124L0.816506 27.9562L0.816979 27.9648C0.829213 28.0567 0.886677 28.1173 0.969742 28.1448C3.03065 29.0718 5.09126 30.1236 7.10923 31.1435C7.52123 31.3668 7.98619 31.4995 8.45614 31.4968C8.83408 31.5053 9.21964 31.3966 9.57248 31.2682C11.1754 30.7172 12.7892 30.2031 14.4006 29.6632C15.5674 29.2735 16.8579 28.8661 18.0347 28.489C18.1545 28.4664 18.1765 28.3702 18.1714 28.2683L18.1877 27.633L18.256 27.8015C18.2231 27.7003 18.1797 27.5929 18.138 27.4908C17.992 27.3595 17.7336 27.157 17.5905 27.1126C15.2196 27.9893 11.804 29.2764 9.45687 30.1226L9.47316 30.1118C9.47337 30.1114 9.51232 30.1014 9.51267 30.1012C9.07695 30.2499 8.60985 30.309 8.14893 30.2733C7.69056 30.2405 7.22831 30.0973 6.83227 29.8908C6.09319 29.5218 5.36101 29.1392 4.62921 28.7558C3.61564 28.212 2.36553 27.526 1.38558 26.9333C1.05073 26.6892 0.469685 26.5476 0.474648 26.0496C0.474319 26.0363 0.47471 26.0423 0.479056 26.0504C0.482969 26.0566 0.48956 26.0621 0.49714 26.0649Z" fill="#FFC54D"/>
<path id="Vector_4" d="M0.720589 25.505C2.48149 24.3973 5.0233 22.8311 6.74807 21.7188C7.07382 21.8659 7.40188 22.0222 7.71947 22.1869C7.72662 22.1811 7.71504 22.2137 7.70771 22.2377C7.70714 22.2432 7.70083 22.2606 7.71564 22.2347L7.73309 22.2055C7.73525 22.2033 7.73521 22.2056 7.73638 22.2054L7.75749 22.2152L7.84204 22.2542C8.89511 22.74 11.1625 23.7865 12.2386 24.283C13.7816 25.0152 16.1246 26.0583 17.6354 26.8091C17.6354 26.8091 18.0789 27.0758 18.0789 27.0758C17.5797 27.1864 17.0601 27.3228 16.5793 27.4823C15.9399 27.6817 14.167 28.2489 13.503 28.4603L9.40672 29.79C9.00561 29.9157 8.54775 29.9619 8.12089 29.9138C7.34973 29.8618 6.42623 29.2414 5.74171 28.9172C4.62167 28.3492 3.37261 27.7509 2.24272 27.218L1.07208 26.6601L0.780297 26.5189C0.378999 26.3455 0.337477 25.7338 0.720589 25.505ZM0.862744 25.7341C0.646133 25.8524 0.649737 26.2044 0.884432 26.3139L1.17023 26.4669L2.31 27.0855C3.77463 27.8947 5.39658 28.7509 6.89999 29.4995C7.65103 29.9251 8.58139 30.0297 9.39407 29.7425C9.39692 29.7438 13.4454 28.2993 13.4483 28.2996C14.1026 28.0614 15.8471 27.4326 16.4824 27.1975C16.8202 27.0771 17.1555 26.9491 17.4838 26.8009L17.4632 27.1773C17.2276 27.0945 17.0088 26.976 16.7835 26.8714C14.5784 25.8214 11.5969 24.4044 9.38546 23.3398C9.14105 23.2225 7.92408 22.6391 7.70567 22.5342L7.6217 22.494L7.60071 22.4839C7.60012 22.4829 7.5983 22.4844 7.59874 22.4813L7.61091 22.4496C7.6222 22.4221 7.61239 22.4378 7.60829 22.4417C7.59394 22.4623 7.57534 22.4916 7.57546 22.4825C7.27713 22.3558 6.97623 22.2183 6.6856 22.076L6.8547 22.0677C5.18973 23.1109 2.56412 24.7096 0.862744 25.7341Z" fill="#FFC54D"/>
<path id="Vector_5" d="M6.8264 23.7803C6.90355 22.9813 8.0534 22.9569 8.11908 23.7803C8.12615 24.6928 6.8064 24.6894 6.8264 23.7803ZM7.06772 23.7803C7.10572 24.1603 7.67025 24.1442 7.71111 23.7803C7.76099 23.3283 7.02565 23.2922 7.06772 23.7803Z" fill="#FFC54D"/>
<path id="Vector_6" d="M9.86536 25.5702C9.93798 24.7783 11.0792 24.7583 11.1422 25.5702C11.1482 26.467 9.85079 26.4642 9.86536 25.5702ZM10.1075 25.5702C10.1419 25.9609 10.7289 25.9501 10.7667 25.5702C10.8115 25.1096 10.0698 25.0756 10.1075 25.5702Z" fill="#FFC54D"/>
<path id="Vector_7" d="M22.3731 18.2509C22.2388 17.998 21.9246 17.9032 21.6717 18.0375L16.2979 20.9241C16.0469 21.0584 15.9521 21.3725 16.0864 21.6254C16.2208 21.8783 16.5349 21.9732 16.7878 21.8388L17.6615 21.3696V23.1665C17.6615 24.2986 18.7002 25.4884 19.7142 25.6203C20.8623 25.7696 21.7689 25.1106 21.7689 23.9845V22.1688C21.7689 21.4129 21.3517 20.6672 20.7341 20.1882L19.2298 20.4433L21.1208 19.5114L22.1617 18.9523C22.4126 18.818 22.5074 18.5039 22.3731 18.2509Z" fill="#FFC54D"/>
<path id="Vector_8" d="M9.37445 17.0375C9.37445 17.0375 7.00887 13.7442 6.18415 12.6736C5.81669 12.1965 4.9244 12.7094 5.31439 13.2422L6.06428 14.2679C6.06276 14.2679 6.06131 14.2682 6.05977 14.2682L7.06493 15.6717L5.65122 14.3335C5.05764 14.5121 4.65234 15.0421 4.65234 15.7613V17.9524C4.65234 18.9876 5.21738 19.9553 6.52335 20.2264C7.25887 20.379 8.39434 19.7957 8.39434 18.7703C8.39434 18.7703 8.34091 17.6324 8.33259 17.4551C8.96609 18.3324 9.76449 17.5702 9.37445 17.0375Z" fill="#FFC54D"/>
<path id="Vector_9" d="M20.77 15.3834C14.7868 13.4729 14.2757 18.4337 14.2757 18.4337L12.1009 17.5869C12.3464 14.8074 10.8491 12.096 8.66962 11.3395C7.32885 10.8741 1.51134 8.49609 1.51134 8.49609C1.51134 8.49609 0.568632 19.696 1.52939 20.2231C2.49016 20.7503 10.7485 24.1904 18.453 28.1026C26.1576 32.0149 27.1624 27.7325 27.2525 25.9149C27.3601 23.7422 27.4537 17.4405 27.4537 17.4405C27.4537 17.4405 25.5859 16.9212 20.77 15.3834ZM24.8874 25.5279C24.7583 28.1376 23.0935 28.1377 22.5464 28.1378C21.3627 28.1379 19.7932 27.6457 17.8818 26.6751C12.9526 24.1721 9.41105 22.6583 6.31899 21.1685C5.06169 20.5627 2.99034 19.5787 2.44646 19.3062C2.26906 18.355 2.28636 14.2495 2.60052 10.2535C4.13317 10.8551 6.77015 11.9666 7.64086 12.2688C9.42734 12.8889 10.4258 14.5354 10.2466 16.5658L10.1675 18.1361L15.2946 20.2007L15.4359 18.8595C15.4727 18.7632 15.745 15.7505 18.9355 16.332C19.3878 16.4144 19.8935 16.4112 20.416 16.5674C23.2543 17.4159 24.1476 17.7915 25.072 18.0517C25.041 19.8961 24.9677 23.9073 24.8874 25.5279Z" fill="#FFC54D"/>
<path id="Vector_10" d="M27.453 17.4389C27.453 17.4389 37.014 14.3517 37.388 14.2288C37.7619 14.1058 37.8956 19.19 36.9039 20.3339C35.9121 21.4777 35.541 18.2914 35.541 18.2914L27.3887 21.2246L27.453 17.4389Z" fill="#FFC54D"/>
<path id="Vector_11" d="M13.9955 7.71041C12.4665 8.32344 10.9497 8.13202 10.6079 7.27913C10.2664 6.42622 11.2283 5.23894 12.7572 4.62349C14.2861 4.01048 15.8006 4.20431 16.1445 5.05722C16.4862 5.91014 15.5244 7.09739 13.9955 7.71041Z" fill="#FFC54D"/>
<path id="Vector_12" d="M1.51172 8.49697L5.81342 7.25391L3.96846 10.2544L1.51172 8.49697Z" fill="#FFC54D"/>
</g>
<defs>
<clipPath id="clip0_2321_177780">
<rect width="37.3333" height="32.6319" fill="white" transform="translate(0.333984 0.667969)"/>
</clipPath>
</defs>
</svg>
