<svg width="22" height="22" viewBox="0 0 22 22" fill="none" xmlns="http://www.w3.org/2000/svg">
<g id="a" clip-path="url(#clip0_1199_115355)">
<path id="Vector" d="M17.348 5.13499C16.8396 4.64367 16.2517 4.10896 16.08 3.58594C15.8974 4.00087 15.6893 4.39627 15.8919 4.97409C16.2815 6.08513 18.442 6.45764 19.338 8.00573C19.1496 7.41136 18.3311 6.08517 17.348 5.13499Z" fill="#FFC54D"/>
<path id="Vector_2" d="M13.1252 4.2563C13.3478 4.83655 13.6296 5.37483 14.1711 5.66766C13.6871 5.69465 12.8328 5.33829 12.533 4.56413C12.2929 3.94393 12.7297 3.26204 12.7297 2.96094C12.9647 3.19592 12.9135 3.70471 13.1252 4.2563Z" fill="#FFC54D"/>
<g id="Group">
<path id="Vector_3" d="M3.38042 10.2147C3.24115 10.0529 3.10685 9.88881 2.97847 9.7003C2.94072 9.65083 2.89734 9.57205 2.89608 9.49048C2.89023 9.15618 3.36521 8.96982 3.59502 9.21084C3.64197 9.25917 3.67936 9.3167 3.71954 9.36493C4.13259 9.90039 4.87685 10.9216 5.28648 11.475L5.50808 11.7778C5.59359 11.8794 5.69673 12.05 5.65527 12.2038C5.54947 12.6362 5.05718 12.6421 4.83013 12.3167C4.81165 12.2951 4.79684 12.2719 4.78023 12.2496L4.94807 12.1909C4.99423 12.4919 5.06854 12.7914 5.05723 13.0978C5.00214 13.7252 4.30167 14.1437 3.71158 14.0178C2.95252 13.8727 2.44482 13.1985 2.49122 12.4356C2.49119 12.4356 2.49861 11.5503 2.49861 11.5503L2.50047 11.3289C2.4713 10.926 2.62012 10.4744 3.0008 10.2762C3.11146 10.2164 3.23136 10.1774 3.35546 10.1617C3.38543 10.1569 3.37553 10.1579 3.37226 10.169C3.36861 10.1795 3.36985 10.1989 3.38042 10.2147ZM3.58184 10.3138C3.50387 10.3823 3.37725 10.3807 3.29146 10.406C3.10675 10.4541 2.94312 10.5774 2.85192 10.7454C2.70973 10.9877 2.75783 11.2746 2.75279 11.5503L2.76021 12.4357C2.72924 13.0735 3.14708 13.616 3.77549 13.7229C4.18481 13.8034 4.6727 13.4678 4.71815 13.0614C4.73042 12.9274 4.71991 12.7778 4.73193 12.6424C4.73817 12.4952 4.7505 12.3475 4.76277 12.1996L4.73995 11.9248L4.93063 12.1409C4.98893 12.2186 5.0658 12.276 5.15001 12.3113C5.26935 12.3622 5.40876 12.2866 5.43158 12.1613C5.45007 12.0582 5.38701 12.0043 5.32403 11.9103L5.10702 11.6044C4.81926 11.201 4.07873 10.1635 3.79558 9.77671C3.76086 9.73163 3.55046 9.442 3.51801 9.40044C3.43289 9.23171 3.20863 9.22948 3.08851 9.36324C3.02349 9.43808 3.02463 9.52773 3.09823 9.61679C3.26504 9.83207 3.42592 10.0718 3.58184 10.3138Z" fill="#FFC54D"/>
<path id="Vector_4" d="M9.62065 13.9408C10.1071 13.6763 12.4522 12.4022 12.8869 12.1673C13.4641 11.9179 13.8306 12.7462 13.2635 13.0169C13.0132 13.1545 12.4634 13.4564 12.2068 13.5974C12.2071 13.5976 12.2046 13.3067 12.2054 13.3078C12.8898 13.6394 13.2659 14.3105 13.2213 15.0689C13.2224 15.2929 13.2361 15.7024 13.2371 15.9231C13.2559 16.7522 12.4845 17.2643 11.7088 17.1239C10.8772 16.9653 10.2615 16.1262 10.315 15.2976C10.3251 14.973 10.3376 14.6485 10.361 14.324L10.5769 14.4531C10.4641 14.5104 10.1557 14.6657 10.0467 14.724C9.52246 14.9871 9.10844 14.2385 9.62065 13.9408ZM9.74214 14.1674C9.53201 14.2868 9.70302 14.609 9.92016 14.4871C10.028 14.4289 10.3272 14.2581 10.4382 14.1949L10.6481 14.0754C10.6603 14.5211 10.6957 14.9731 10.7043 15.4181C10.7438 16.0494 11.3224 16.7167 11.9768 16.6794C12.481 16.6634 12.7915 16.2977 12.757 15.799C12.757 15.799 12.7617 15.5556 12.7617 15.5556C12.7649 15.3922 12.7725 14.983 12.7756 14.8255C12.7904 14.3231 12.479 13.8551 12.0533 13.5983L11.7916 13.445C12.1311 13.2668 12.698 12.9691 13.0371 12.7911L13.1192 12.748L13.1603 12.7264C13.2605 12.6798 13.2798 12.5318 13.1964 12.4594C13.1492 12.4146 13.0725 12.4022 13.013 12.4312L12.3632 12.7755L9.74214 14.1674Z" fill="#FFC54D"/>
</g>
<g id="Group_2">
<path id="Vector_5" d="M4.5697 5.66639C2.27773 7.92659 1.3424 11.3922 2.16908 14.4974C2.28982 14.938 2.4462 15.3596 2.55104 15.807C2.55103 15.807 2.16472 15.9706 2.16472 15.9706C2.04809 15.761 1.94907 15.5413 1.85955 15.3185C0.680815 11.8998 1.72926 7.91107 4.35695 5.44922C4.3569 5.44921 4.5697 5.66639 4.5697 5.66639Z" fill="#FFC54D"/>
<path id="Vector_6" d="M7.28632 19.8568C8.4542 20.6436 9.86842 20.9952 11.2662 21.0382C12.2655 21.1056 13.2851 21.0278 14.2632 20.794C17.6074 20.0505 20.0135 17.9909 20.8608 14.6208C21.0675 13.775 21.1504 12.9013 21.2211 12.0273C21.2224 12.0275 21.4123 12.0435 21.4135 12.0437V12.4632C21.4082 12.4648 21.6228 12.2539 21.622 12.2535C21.654 12.6709 21.6445 13.0921 21.6019 13.5101C21.32 16.0148 19.967 18.4363 17.8337 19.8191C16.0556 20.9173 13.9533 21.4764 11.8655 21.4371C11.0469 21.4003 10.1891 21.3479 9.39534 21.1325C8.58619 20.9237 7.80495 20.586 7.11523 20.1081L7.28632 19.8568Z" fill="#FFC54D"/>
</g>
<path id="Vector_7" d="M0.525164 17.1625C0.545238 17.2167 0.545286 17.2764 0.593681 17.3177C0.720479 17.402 0.911688 17.4518 1.05473 17.5226C1.43485 17.6825 1.98973 17.9362 2.37044 18.1127C3.0028 18.4123 3.68896 18.752 4.30645 19.0718C4.69627 19.2851 5.15368 19.3138 5.56882 19.18L5.54049 19.1874L6.81133 18.7717C7.55677 18.5317 8.62294 18.1936 9.36375 17.9711C9.36523 17.9699 10.6496 17.5889 10.6517 17.5877C10.7292 17.5756 10.7892 17.5042 10.7899 17.416C10.79 17.4149 10.7973 17.2573 10.7974 17.256L10.8955 17.3729L10.8978 17.3756L10.8989 17.3768L10.9121 17.3923L10.9129 17.4153C10.9229 17.5619 10.9415 18.2652 10.9474 18.3957L10.9502 18.4937C10.9751 18.6666 10.876 18.8557 10.6976 18.9014C10.1774 19.0964 9.65722 19.292 9.13541 19.4806C7.89422 19.9177 6.6717 20.4043 5.40931 20.786C4.98104 20.8709 4.52047 20.8014 4.13393 20.6007L3.78399 20.4238C3.10654 20.0793 2.35705 19.7065 1.69261 19.346C1.3568 19.1696 0.993958 18.9645 0.660701 18.7796C0.600144 18.7402 0.528384 18.7143 0.46365 18.6542C0.322213 18.5115 0.325062 18.389 0.337427 18.2212C0.359715 17.8887 0.380195 17.5313 0.414932 17.2005L0.415208 17.1975L0.422378 17.1211C0.453787 17.1322 0.505737 17.1352 0.525164 17.1625ZM0.428877 17.2336C0.435138 17.2432 0.447072 17.2519 0.458048 17.2548L0.534932 17.1975C0.560907 17.4789 0.587815 17.7917 0.60334 18.0754C0.606249 18.1439 0.616603 18.2634 0.618255 18.3306C0.622492 18.4203 0.692864 18.432 0.810457 18.4859C1.64179 18.8652 2.46686 19.2701 3.27916 19.6869L3.97696 20.0451C4.16721 20.1343 4.4449 20.3063 4.64892 20.3505C4.99812 20.444 5.34033 20.4143 5.68348 20.285L6.05573 20.1616C6.55173 19.996 7.04906 19.8347 7.54687 19.6743C8.42012 19.3884 9.67334 18.9899 10.5405 18.723C10.5406 18.723 10.6342 18.6939 10.6342 18.6939C10.6637 18.6863 10.6738 18.682 10.6913 18.6709C10.7815 18.6169 10.7486 18.488 10.7588 18.3957C10.7647 18.266 10.7855 17.5598 10.7932 17.4153L10.8072 17.4538L10.8062 17.4525L10.8039 17.4498L10.9095 17.4079C10.9336 17.5484 10.8113 17.7091 10.6957 17.7343C10.6957 17.7343 9.44663 18.2145 9.44663 18.2145C8.27772 18.661 6.8183 19.1811 5.63162 19.5988L5.64654 19.5909C5.64674 19.5907 5.66993 19.5847 5.67021 19.5846C5.16316 19.7604 4.57803 19.7057 4.1107 19.4571C3.68116 19.2426 3.25566 19.0203 2.83034 18.7975C2.2411 18.4813 1.51487 18.0828 0.945216 17.7383C0.750727 17.5965 0.412874 17.5141 0.415806 17.2247C0.415615 17.217 0.415854 17.2205 0.41838 17.2251C0.420654 17.2288 0.424484 17.232 0.428877 17.2336Z" fill="#FFC54D"/>
<path id="Vector_8" d="M0.558909 16.9094C1.60265 16.2482 2.67834 15.5893 3.72343 14.928C4.0203 14.7531 4.3154 14.4865 4.68073 14.4531C4.85592 14.462 5.01938 14.5447 5.16187 14.604L5.84933 14.8989C6.76331 15.2966 7.67458 15.6992 8.58309 16.108C9.13002 16.3585 10.2774 16.8622 10.8112 17.1171C11.0736 17.2687 10.986 17.703 10.6946 17.7551C10.7314 17.7453 9.41602 18.1574 9.42529 18.1558C8.61937 18.4129 6.43883 19.1236 5.60615 19.3953C5.13051 19.552 4.58116 19.4899 4.14755 19.2361C3.37009 18.8339 2.24478 18.2853 1.44234 17.9072C1.44237 17.9072 0.762782 17.5815 0.762782 17.5815L0.593299 17.4992C0.360147 17.3982 0.335812 17.0422 0.558909 16.9094ZM0.641526 17.0425C0.516021 17.1114 0.518115 17.3155 0.654418 17.3789L0.820609 17.4676C1.84996 18.0198 3.10729 18.7164 4.14962 19.232C4.58659 19.4806 5.12661 19.5383 5.60111 19.3764C5.60216 19.377 8.1219 18.4816 8.12301 18.4818C8.74981 18.2575 10.0147 17.8013 10.6392 17.5702C10.7543 17.5388 10.7628 17.388 10.674 17.3306C10.6695 17.3242 10.6319 17.3086 10.6068 17.2966C10.1334 17.0773 8.97584 16.5444 8.48699 16.3197C7.98201 16.0893 5.54176 14.9706 5.08847 14.775C4.95075 14.7198 4.83114 14.6457 4.70105 14.6378L4.69881 14.6376C4.69804 14.6367 4.69734 14.642 4.69648 14.6281C4.69462 14.595 4.69296 14.611 4.69165 14.6208C4.6903 14.6324 4.68928 14.6466 4.68772 14.6441C4.60786 14.6511 4.5376 14.6831 4.46209 14.7213C4.03988 14.9423 3.6199 15.2352 3.19467 15.4899C2.34685 16.0137 1.49245 16.5254 0.641526 17.0425Z" fill="#FFC54D"/>
<path id="Vector_9" d="M4.10755 15.9044C4.15239 15.44 4.82065 15.4258 4.85883 15.9044C4.86293 16.4347 4.09593 16.4328 4.10755 15.9044ZM4.24781 15.9044C4.26989 16.1252 4.59798 16.1159 4.62172 15.9044C4.65072 15.6417 4.22335 15.6207 4.24781 15.9044Z" fill="#FFC54D"/>
<path id="Vector_10" d="M5.87312 16.9472C5.91532 16.487 6.57856 16.4753 6.61517 16.9472C6.61868 17.4684 5.86465 17.4668 5.87312 16.9472ZM6.01384 16.9472C6.03384 17.1743 6.37497 17.168 6.39695 16.9472C6.423 16.6795 5.99192 16.6597 6.01384 16.9472Z" fill="#FFC54D"/>
<path id="Vector_11" d="M12.3003 13.1875L11.125 13.7667L12.4612 13.5401L12.3003 13.1875Z" fill="#FFC54D"/>
<path id="Vector_12" d="M3.4688 10.1445L4.22911 11.1753L3.29297 10.2892L3.4688 10.1445Z" fill="#FFC54D"/>
<path id="Vector_13" d="M3.29313 11.596C3.25386 11.596 3.21435 11.5832 3.18126 11.5568L2.58124 11.0777C2.50373 11.0158 2.491 10.9028 2.55295 10.8253C2.61479 10.7478 2.72782 10.7352 2.80521 10.797L3.40523 11.2761C3.48274 11.338 3.49547 11.451 3.43352 11.5285C3.3981 11.5729 3.34586 11.596 3.29313 11.596Z" fill="#FFC54D"/>
<path id="Vector_14" d="M11.1524 15.1351C11.1131 15.1351 11.0736 15.1223 11.0404 15.0958L10.4405 14.6167C10.3631 14.5549 10.3504 14.4419 10.4123 14.3644C10.4742 14.2869 10.587 14.2742 10.6647 14.3362L11.2646 14.8153C11.342 14.8771 11.3547 14.9901 11.2928 15.0676C11.2574 15.112 11.2051 15.1351 11.1524 15.1351Z" fill="#FFC54D"/>
<g id="Group_3">
<path id="Vector_15" d="M20.3669 7.06119C20.3677 7.06176 20.3686 7.06228 20.3694 7.06287C19.9736 6.21121 19.2684 5.59059 18.817 4.56725C18.6755 4.24638 18.5319 3.9135 18.3775 3.58851C18.3775 3.58849 18.3775 3.58853 18.3775 3.58851C18.2764 3.3756 18.1714 3.16528 18.0563 2.96643C17.853 2.61536 17.593 2.30045 17.2945 2.02695C16.5216 1.31875 15.4812 0.897389 14.4309 0.913585C14.7029 1.00727 14.9812 1.12481 15.1642 1.34665C15.3473 1.56849 15.3997 1.92284 15.2081 2.13733C14.9659 2.40839 14.499 2.30141 14.2359 2.05068C13.9727 1.79994 13.8297 1.44923 13.5988 1.16845C13.2504 0.744604 12.7181 0.504569 12.1785 0.40535C11.6389 0.306131 11.0849 0.334164 10.5369 0.362569C10.8172 0.482293 10.914 0.846505 10.8523 1.1449C10.7578 1.60132 10.462 1.97282 9.93468 2.19909C9.86457 2.22399 9.3834 2.37723 9.12191 1.99857C8.95473 1.75646 9.12245 1.30273 9.12245 1.30273C9.12245 1.30273 8.323 2.07849 7.44851 2.64269C6.54961 3.22261 5.19172 4.22244 4.00339 5.61202C4.00373 5.61167 4.00408 5.61133 4.00444 5.61099C2.75213 7.05143 1.93017 8.85284 1.72461 10.8295C2.29207 8.62949 3.22299 7.0423 4.56953 5.66625C5.23455 4.98667 5.99825 4.33131 6.8749 3.73261C6.99314 3.64814 7.93746 3.07862 8.33852 2.63487C8.33822 2.63498 8.33794 2.6351 8.33766 2.63518C8.46624 2.50418 8.56029 2.38112 8.6042 2.29637C8.93421 2.97399 9.87439 4.37486 11.1446 3.79749C12.0683 3.45108 12.4148 1.94996 11.7219 1.02619C12.5263 1.18049 13.1248 1.71961 13.454 2.73201C13.6735 3.40682 14.2491 3.79309 14.9551 3.60653C15.6669 3.41846 15.7634 2.52731 16.4563 2.29637C16.3408 2.52731 16.5104 2.94974 16.7889 3.35459C17.2536 4.03031 18.1211 4.62491 18.832 5.63764C19.425 6.48249 20.3238 7.49624 20.9139 9.85029C21.1695 10.8696 21.1869 11.9931 21.1292 13.0137C21.0504 14.4096 20.7745 15.6698 20.2547 16.7285C20.3539 16.5674 20.45 16.4044 20.5396 16.2374C20.5627 16.1953 20.5844 16.1546 20.6047 16.1125C20.7583 15.8203 20.8955 15.5174 21.015 15.2077C21.4294 14.1495 21.618 13.9812 21.6562 12.7837C21.7473 9.92761 21.1879 8.46166 20.3669 7.06119Z" fill="#FFC54D"/>
<path id="Vector_16" d="M6.77005 2.10219C8.39012 1.25435 8.63558 0.609375 8.63558 0.609375C8.63558 0.609375 7.31322 0.811106 6.01941 1.667C4.91131 2.40003 4.95532 3.73252 4.95532 3.73252C4.95532 3.73252 5.62061 2.70372 6.77005 2.10219Z" fill="#FFC54D"/>
<path id="Vector_17" d="M20.8984 6.73362C20.8984 6.73362 20.942 5.38787 20.4069 4.62497C19.9049 3.90934 19.2207 3.58984 19.2207 3.58984C19.2207 3.58984 19.2857 4.38629 19.8274 5.19641C20.3772 6.01883 20.8984 6.73362 20.8984 6.73362Z" fill="#FFC54D"/>
</g>
</g>
<defs>
<clipPath id="clip0_1199_115355">
<rect width="21.3333" height="21.1022" fill="white" transform="translate(0.332031 0.335938)"/>
</clipPath>
</defs>
</svg>
